<svg width="297" height="297" xmlns="http://www.w3.org/2000/svg">

 <g>
  <title>background</title>
  <rect fill="none" id="canvas_background" height="402" width="582" y="-1" x="-1"/>
 </g>
 <g>
  <title>Layer 1</title>
  <g id="svg_1">
   <path id="svg_2" fill="#ffffff" class="active-path" d="m246.393,49.032l-87.801,0l0,-8.241c0,-11.572 -4.942,-22.642 -13.557,-30.369c-8.616,-7.728 -20.165,-11.434 -31.66,-10.184l-53.578,5.845c-5.541,0.605 -9.543,5.586 -8.939,11.127c0.605,5.541 5.586,9.536 11.127,8.939l53.579,-5.844c5.89,-0.647 11.578,1.183 15.996,5.145c4.416,3.961 6.849,9.409 6.849,15.342l0,8.241l-87.802,0c-5.573,0 -10.092,4.519 -10.092,10.092l0,35.043c0,5.573 4.519,10.092 10.092,10.092l8.317,0l14.359,155.777c1.729,20.727 19.375,36.963 40.174,36.963l70.087,0c20.799,0 38.444,-16.236 40.165,-36.875l14.367,-155.865l8.317,0c5.573,0 10.092,-4.519 10.092,-10.092l0,-35.044c0,-5.573 -4.519,-10.092 -10.092,-10.092zm-185.694,35.044l0,-14.86l175.602,0l0,14.859l-175.602,0l0,0.001zm142.902,174.283c-0.862,10.349 -9.673,18.456 -20.058,18.456l-70.087,0c-10.385,0 -19.196,-8.107 -20.066,-18.544l-14.196,-154.011l138.612,0l-14.205,154.099z"/>
  </g>
  <ellipse ry="45.5" rx="46" id="svg_3" cy="185.5" cx="149" stroke-width="0" stroke="#000" fill="#eb6727"/>
 </g>
</svg>