<svg width="100" height="100" xmlns="http://www.w3.org/2000/svg">

 <g>
  <title>background</title>
  <rect fill="none" id="canvas_background" height="102" width="102" y="-1" x="-1"/>
 </g>
 <g>
  <title>Layer 1</title>
  <path fill="#ffffff" stroke="null" id="svg_1" d="m99.67265,59.127219l0,-18.259326l-11.16877,-1.867443c-0.827198,-3.112405 -2.068173,-6.017436 -3.516213,-8.50736l6.618649,-9.129485l-12.823521,-13.072103l-9.307308,6.432186c-2.68866,-1.452337 -5.584385,-2.697299 -8.479756,-3.527511l-1.861462,-10.996929l-18.201195,0l-1.861462,11.204659c-3.102436,0.829856 -5.791096,2.074818 -8.479756,3.527156l-9.100598,-6.432186l-13.030232,12.864727l6.618649,9.129485c-1.447685,2.697655 -2.68866,5.60233 -3.516213,8.714735l-11.16877,1.660068l0,18.259326l11.16877,1.867443c0.827198,3.112405 2.068173,5.810061 3.516213,8.50736l-6.618649,9.337216l12.823521,12.864727l9.307308,-6.639917c2.68866,1.452337 5.584385,2.697299 8.686821,3.527511l1.861462,10.996929l18.200841,0l1.861462,-11.204659c2.895725,-0.829856 5.791096,-2.074818 8.48011,-3.527156l9.307308,6.639561l12.823166,-12.864372l-6.618294,-9.337216c1.447685,-2.697655 2.68866,-5.394955 3.515858,-8.50736l10.962059,-1.660068zm-49.638979,9.959697c-10.548283,0 -19.028393,-8.507004 -19.028393,-19.089183s8.686821,-19.089538 19.028393,-19.089538s19.028393,8.50736 19.028393,19.089538s-8.48011,19.089183 -19.028393,19.089183z"/>
 </g>
</svg>