<svg width="352" height="208" xmlns="http://www.w3.org/2000/svg" stroke="null" style="vector-effect: non-scaling-stroke;" preserveAspectRatio="xMidYMid meet">
 <metadata stroke="null">Created by potrace 1.15, written by Peter Selinger 2001-2017</metadata>

 <g stroke="null">
  <title stroke="null">background</title>
  <rect stroke="null" fill="none" id="canvas_background" height="210" width="354" y="-1" x="-1"/>
 </g>
 <g stroke="null">
  <title stroke="null">Layer 1</title>
  <g stroke="null" id="svg_1" fill="#000000" transform="translate(0,1222) scale(0.10000000149011612,-0.10000000149011612) ">
   <path stroke="null" fill="#ffffff" id="svg_2" d="m1828.86492,12197.79161c-28.40238,-4.14726 -58.33412,-12.44178 -92.41697,-25.34436c-16.60447,-6.22089 -59.86348,-29.95242 -79.30819,-43.31581c-76.46794,-52.53194 -135.89446,-129.71702 -163.6414,-212.89259c-25.12518,-74.65064 -29.71325,-152.98774 -13.98271,-235.4721c7.20984,-38.01654 27.52846,-102.75984 44.78837,-142.6196c3.49568,-8.06412 6.33592,-14.97621 6.33592,-15.43702c0,-0.46081 3.05871,-7.83371 6.77287,-16.58903c3.71416,-8.52492 8.52072,-19.81468 10.70551,-24.88355c13.32727,-31.56525 25.78062,-60.36565 34.51982,-79.48912c5.24351,-11.98097 11.57943,-26.49637 13.98271,-32.25645c16.82295,-41.24218 110.11384,-237.77614 135.02054,-284.548c8.73919,-16.35862 17.47839,-32.94766 19.22622,-36.86451c1.96632,-3.68645 4.80656,-8.98573 6.5544,-11.52016c2.84024,-4.37767 3.05872,-4.37767 1.52936,1.15201c-3.05872,11.52016 -32.11654,79.25871 -59.20804,137.55073c-45.88076,99.07339 -66.41787,144.69323 -74.28314,164.96872c-2.84024,7.1425 -7.86528,19.58427 -10.92399,27.64839c-7.42832,18.66266 -12.45336,35.48209 -9.8316,32.71726c4.15112,-4.60807 41.94813,-80.64114 86.08106,-173.95445c46.5362,-98.15177 67.07331,-140.31557 78.21578,-159.66944c3.49568,-5.99048 6.33592,-11.98097 6.33592,-13.13298c0,-1.38242 1.0924,-2.30403 2.1848,-2.30403c1.31087,0 2.18479,-1.15202 2.18479,-2.53444c0,-1.38242 8.30224,-17.04984 18.57079,-34.79089c10.26855,-17.51064 18.57079,-32.48685 18.57079,-32.94766c0,-0.46081 4.15111,-7.60331 9.39463,-15.89782c5.02504,-8.29452 11.79791,-19.35388 14.85663,-24.88355c15.07511,-26.49637 38.01549,-63.13049 41.07421,-65.66492c8.30223,-6.6817 13.54575,-2.30404 39.54485,33.86927c7.64679,10.82895 14.63815,20.04508 15.29359,20.73629c1.31088,1.15202 15.51207,21.4275 21.84798,31.33484c55.05692,84.09718 98.53441,157.36541 131.08791,220.9567c5.24351,10.13775 12.23487,23.73154 15.51206,29.95242c10.05008,18.89307 57.4602,119.80969 70.78747,150.91412c11.79791,26.95718 29.49478,70.50339 41.94813,102.52944c44.56989,115.20162 66.63635,228.79041 63.35915,324.86856c-1.31087,34.56049 -2.18479,42.6246 -8.30223,78.3371c-7.64679,44.00702 -29.2763,100.91662 -53.52756,141.23718c-23.8143,39.62936 -68.38419,87.32283 -107.92904,115.89283c-7.86527,5.52968 -14.63815,10.82895 -15.29359,11.75056c-0.65544,0.69121 -14.20119,8.29452 -30.15022,16.81944c-32.77197,17.28024 -77.9973,33.86928 -110.76928,40.78137c-29.27629,5.99049 -95.91265,7.60331 -126.7183,2.99525zm114.48343,-29.95243c36.9231,-6.45129 75.15707,-19.81467 102.90401,-36.1733c12.01639,-6.9121 48.06556,-31.56525 50.25036,-33.86928c0.65544,-0.92161 5.02504,-4.37766 9.83159,-8.29451c16.60447,-12.90259 56.80476,-57.60081 71.00595,-78.79791c55.2754,-83.17557 79.74514,-170.49839 75.59403,-270.26299c-6.11744,-144.69324 -81.92994,-271.64542 -198.59818,-332.24147c-79.0897,-41.01177 -154.24676,-51.84073 -238.3615,-33.86927c-114.9204,24.42274 -218.47984,111.97597 -272.22588,229.71202c-3.49568,8.06411 -6.5544,14.97621 -6.5544,15.43702c0,0.69121 -2.40328,6.45129 -5.24351,13.13298c-17.25991,39.62936 -29.2763,111.05436 -26.43606,155.98299c2.40327,38.47734 12.45335,91.47009 22.28494,116.58404c9.83159,24.88355 12.45335,31.33484 20.75558,48.38468c10.48704,21.8883 32.77198,57.60081 45.88077,73.72903c19.22623,23.27073 33.42742,37.78613 61.82979,62.90009c12.67184,11.52016 46.75469,33.63887 67.72875,44.23742c27.96542,14.285 71.00595,28.57 96.13113,32.25645c10.924,1.38242 21.19255,2.99524 22.94039,3.45605c11.57943,2.30403 82.3669,0.69121 100.28224,-2.30404z"/>
   <path stroke="null" fill="#eb6727" id="svg_3" d="m1886.543595,12032.13168c-0.65544,-0.69121 -8.302234,-1.843226 -17.259907,-2.764839c-21.192544,-1.843226 -44.351407,-8.064113 -48.939484,-13.132984c-2.184798,-2.073629 -5.025036,-3.916855 -6.335915,-3.916855c-1.529359,0 -1.310879,1.152016 0.65544,2.534436c5.898956,4.608065 -8.957673,0.460806 -22.284944,-5.990484c-12.890311,-6.220887 -16.385988,-12.211371 -8.302234,-14.285001c2.840238,-0.69121 4.369597,-3.225645 4.369597,-6.451291c0,-7.1425 6.117436,-12.441775 8.957673,-7.83371c1.747839,2.304032 1.966319,2.073629 0.873919,-1.843226c-1.092399,-4.147258 0.43696,-5.760081 10.268552,-10.598549c15.075109,-7.372903 25.780621,-10.828952 25.780621,-8.52492c0,1.152016 -1.747839,2.534436 -3.714157,2.995242c-3.277198,0.921613 -3.277198,1.152016 -0.43696,1.382419c1.966319,0 5.243516,-1.843226 7.428315,-4.377661c4.806556,-5.529678 8.739194,-5.760081 51.342762,-1.843226c19.881665,1.843226 29.713258,3.456049 26.217581,4.377661c-8.083754,2.304032 27.52846,-0.230403 41.511169,-2.995242c6.554395,-1.382419 17.478387,-3.225645 24.032782,-4.147258c6.554395,-0.921613 9.613113,-1.843226 6.554395,-2.073629c-5.025036,-0.460806 -5.025036,-0.69121 -1.092399,-2.304032c4.588077,-2.073629 10.050073,-0.69121 12.234871,2.764839c0.873919,1.152016 3.277198,1.612823 5.461996,1.152016c3.495677,-0.921613 3.277198,-1.382419 -1.747839,-4.147258l-5.898956,-2.995242l4.806556,-6.451291c3.058718,-4.608065 5.898956,-6.220887 8.520714,-5.299274c4.806556,1.612823 17.041427,-10.368146 17.041427,-16.819436c0,-3.456049 -0.43696,-3.456049 -2.184798,-0.69121c-1.092399,1.843226 -2.621758,2.764839 -3.277198,1.843226c-0.873919,-0.69121 0.873919,-5.299274 3.932637,-10.368146c6.772875,-11.289758 9.831593,-21.657904 11.360952,-38.246937c0.873919,-7.1425 2.403278,-12.672178 3.495677,-11.980968c1.092399,0.921613 1.966319,-0.921613 1.966319,-3.916855c0,-6.681694 1.529359,-8.755323 11.142472,-16.35863c8.520714,-6.681694 14.20119,-7.83371 15.730548,-3.225645c0.43696,1.612823 1.747839,1.843226 2.840238,0.69121c1.092399,-1.152016 0.873919,-2.534436 -0.65544,-2.995242c-3.495677,-1.382419 -3.714157,-6.681694 -0.21848,-8.985726c1.310879,-0.921613 3.932637,0.460806 5.680476,2.764839c3.058718,4.147258 3.058718,4.147258 1.966319,-1.152016c-1.092399,-4.147258 0.21848,-7.1425 5.461996,-11.980968c7.209835,-7.372903 9.613113,-8.064113 11.142472,-3.686452c0.43696,1.382419 0.65544,0.921613 0.43696,-1.152016c-0.873919,-5.529678 4.369597,-9.446533 10.268552,-7.603307c3.495677,0.921613 4.151117,0.69121 1.966319,-0.69121c-3.714157,-2.764839 -0.873919,-8.064113 3.277198,-6.451291c1.747839,0.69121 3.058718,-0.230403 3.058718,-1.843226c0,-4.147258 4.806556,-5.990484 11.360952,-4.608065c3.932637,0.69121 4.151117,0.69121 1.092399,-0.921613c-3.714157,-1.612823 -3.495677,-2.304032 1.966319,-6.220887c3.277198,-2.534436 7.646794,-6.451291 10.050073,-8.52492c3.714157,-3.916855 3.932637,-3.916855 3.932637,0.69121c0,2.764839 -1.747839,6.451291 -3.714157,8.064113c-3.714157,2.995242 -3.714157,2.995242 0,3.225645c2.840238,0 3.495677,1.382419 2.840238,5.299274c-0.65544,2.764839 -3.058718,15.897823 -5.680476,29.261211c-2.621758,13.363388 -6.117436,27.417985 -7.865274,31.565243c-1.747839,3.916855 -3.058718,8.52492 -3.058718,10.368146c0,4.608065 -24.469742,55.527179 -28.839339,59.674438c-2.184798,2.073629 -3.932637,5.068871 -3.932637,6.451291c0,1.382419 -1.529359,3.225645 -3.277198,3.916855c-1.747839,0.921613 -3.277198,2.764839 -3.277198,4.608065c0,2.073629 -2.184798,2.995242 -6.554395,2.304032c-6.991355,-0.921613 -11.360952,2.995242 -15.075109,12.902581c-1.966319,5.529678 -1.747839,5.990484 1.529359,4.838468c2.184798,-0.69121 0.43696,2.304032 -3.932637,7.1425c-6.772875,7.603307 -7.865274,8.064113 -10.268552,4.608065c-2.621758,-3.686452 -2.840238,-3.686452 -4.369597,0.230403c-0.873919,2.534436 -0.43696,4.608065 1.092399,5.299274c3.058718,0.921613 -2.184798,7.372903 -5.898956,7.372903c-1.310879,0 -2.403278,0.921613 -2.403278,2.073629c0,2.534436 -6.772875,5.529678 -8.520714,3.686452c-0.65544,-0.69121 1.747839,-3.916855 5.243516,-6.912097c3.714157,-2.995242 5.243516,-5.529678 3.932637,-5.760081c-4.806556,0 -13.76423,9.907339 -13.76423,15.437017c0,4.608065 -0.873919,5.299274 -5.898956,4.147258c-4.588077,-0.921613 -5.025036,-0.69121 -1.966319,0.69121c3.714157,1.612823 3.277198,2.304032 -3.277198,6.451291c-16.385988,10.137742 -35.393734,17.280243 -41.729649,15.897823c-4.806556,-1.152016 -5.898956,-0.69121 -5.025036,1.843226c1.092399,2.534436 -3.058718,4.147258 -16.822948,7.372903c-10.050073,2.304032 -22.721903,4.377661 -28.402379,4.377661c-5.461996,0.230403 -10.923992,0.921613 -11.797911,2.073629c-1.747839,1.612823 -23.595823,2.304032 -25.125182,0.69121z"/>
   <path stroke="null" fill="#eb6727" id="svg_4" d="m1742.565381,11978.908533c-3.058718,-1.843226 -6.772875,-3.916855 -8.520714,-4.838468c-3.714157,-2.073629 -11.142472,-9.676936 -11.142472,-11.289758c0,-0.69121 1.747839,-1.152016 3.714157,-1.152016c3.058718,0 2.840238,-0.69121 -1.092399,-3.686452c-2.621758,-1.843226 -6.117436,-2.995242 -7.646794,-2.534436c-1.529359,0.69121 -1.092399,1.382419 1.310879,1.382419c1.966319,0.230403 3.714157,1.382419 3.714157,2.534436c0,4.377661 -3.495677,2.304032 -13.10879,-8.064113c-6.772875,-7.372903 -8.520714,-10.368146 -5.898956,-10.368146c1.966319,0 3.714157,-0.921613 3.714157,-2.304032c0,-1.152016 1.529359,-2.304032 3.277198,-2.304032c1.747839,0 5.025036,-0.921613 7.209835,-2.073629c8.739194,-5.068871 23.814302,-11.750565 26.217581,-11.750565c1.529359,0 2.621758,-0.921613 2.621758,-2.304032c0,-1.152016 1.747839,-2.304032 3.932637,-2.304032c2.403278,0 9.831593,-2.073629 16.604468,-4.608065c11.579431,-4.147258 13.10879,-4.147258 19.226226,-0.921613c3.495677,1.843226 7.428315,3.225645 8.739194,2.764839c1.310879,-0.460806 -0.65544,-2.534436 -4.588077,-4.608065l-6.991355,-3.456049l10.487032,-2.995242c5.680476,-1.612823 13.54575,-4.147258 17.259907,-5.990484c3.495677,-1.612823 10.705512,-3.686452 15.730548,-4.608065c5.025036,-0.921613 9.176153,-2.304032 9.176153,-3.456049c0,-1.152016 1.310879,-2.073629 2.840238,-2.073629c1.310879,0 5.680476,-1.612823 9.176153,-3.686452c3.714157,-2.073629 10.268552,-3.916855 14.638149,-3.916855c4.369597,-0.230403 6.991355,-1.152016 5.461996,-2.073629c-1.529359,-0.921613 -0.21848,-2.534436 3.714157,-4.147258c6.554395,-2.534436 20.100145,-0.921613 22.284944,2.534436c1.747839,3.225645 -10.923992,2.534436 -13.98271,-0.69121c-1.747839,-1.843226 -2.621758,-1.843226 -2.621758,-0.230403c0,3.456049 5.461996,5.299274 16.604468,5.299274c12.016391,0 12.234871,-3.456049 0.873919,-8.985726l-8.957673,-4.147258l6.991355,-2.995242c3.714157,-1.843226 13.98271,-3.225645 22.503423,-3.225645c8.520714,-0.230403 16.822948,-1.152016 18.570786,-2.304032c1.747839,-1.152016 3.495677,-0.921613 4.369597,0.69121c1.092399,1.843226 4.151117,2.073629 10.268552,0.460806l8.520714,-2.073629l-9.176153,-0.230403c-11.142472,-0.230403 -12.890311,-4.838468 -1.966319,-4.838468c4.151117,0 8.083754,-0.921613 8.957673,-2.073629c1.966319,-3.456049 -14.856629,0 -19.007746,3.916855c-2.403278,2.073629 -5.898956,2.764839 -9.176153,1.843226c-3.058718,-0.69121 -6.117436,-0.460806 -6.772875,0.921613c-0.65544,1.152016 -3.058718,2.304032 -5.025036,2.304032c-7.865274,0 1.529359,-4.608065 20.318625,-9.446533c10.923992,-2.995242 20.100145,-5.990484 20.755585,-6.912097c2.621758,-3.456049 13.76423,-4.377661 17.041427,-1.612823c3.277198,2.534436 3.277198,2.534436 0.873919,-0.69121c-2.403278,-3.456049 -1.747839,-4.147258 5.025036,-5.299274c8.739194,-1.843226 12.890311,0 11.142472,4.377661c-0.873919,2.534436 0.21848,2.534436 5.461996,0.69121c7.865274,-2.764839 8.520714,-7.603307 0.873919,-5.529678c-8.302234,2.304032 -6.554395,-1.612823 5.025036,-10.137742c5.680476,-4.377661 11.142472,-9.216129 12.016391,-11.059355c1.529359,-2.304032 2.621758,-2.534436 5.025036,-0.230403c1.747839,1.382419 3.932637,2.073629 4.588077,1.152016c0.873919,-0.921613 0.21848,-2.534436 -1.310879,-3.456049c-2.184798,-1.612823 -2.184798,-2.764839 1.092399,-6.681694c3.495677,-4.377661 4.151117,-4.377661 8.957673,-1.152016l5.243516,3.686452l-4.806556,5.299274c-2.621758,2.995242 -3.932637,6.451291 -2.840238,8.064113c1.092399,2.073629 2.184798,1.382419 3.277198,-2.073629c1.092399,-2.764839 3.714157,-5.068871 6.117436,-5.068871c2.184798,0 4.588077,-1.612823 5.243516,-3.225645c0.873919,-2.304032 0.21848,-2.995242 -1.529359,-2.304032c-1.747839,0.69121 -5.025036,-1.843226 -7.865274,-5.760081c-4.151117,-6.220887 -4.151117,-7.372903 -1.310879,-8.52492c1.966319,-0.69121 3.495677,-2.534436 3.495677,-4.147258c0,-1.382419 2.840238,-6.220887 6.335915,-10.598549c3.277198,-4.377661 8.957673,-13.593791 12.234871,-20.045081c3.277198,-6.681694 6.772875,-12.211371 7.865274,-12.211371c0.873919,0 2.840238,-3.916855 3.932637,-8.755323c1.310879,-4.838468 3.714157,-10.598549 5.461996,-13.132984c3.277198,-4.608065 3.277198,-4.608065 3.495677,0.230403c0,2.534436 -1.310879,5.990484 -2.621758,7.603307c-2.403278,2.304032 -1.966319,2.534436 1.310879,1.152016c3.277198,-1.382419 3.714157,-3.225645 2.621758,-10.368146c-1.092399,-6.681694 0.21848,-11.980968 5.243516,-23.50113c3.495677,-8.294516 6.554395,-16.128226 6.554395,-17.510646c0,-1.152016 1.092399,-2.995242 2.403278,-3.916855c1.966319,-1.152016 2.184798,0.69121 1.092399,6.451291c-0.65544,4.377661 -0.43696,10.598549 0.65544,13.593791c1.310879,3.916855 1.747839,0.69121 1.310879,-11.289758c-0.43696,-12.672178 0.21848,-17.280243 2.403278,-18.201855c1.747839,-0.69121 3.058718,-3.916855 3.058718,-7.372903c0,-3.225645 1.529359,-8.064113 3.277198,-10.368146c1.747839,-2.534436 3.277198,-3.225645 3.277198,-1.843226c0,1.612823 1.092399,2.764839 2.403278,2.764839c1.529359,0 1.966319,-2.304032 1.092399,-5.760081c-0.873919,-3.225645 -0.873919,-5.760081 -0.43696,-5.760081c1.529359,0 10.268552,16.589033 9.176153,17.741049c-0.43696,0.69121 0.873919,4.608065 3.058718,8.985726c2.403278,4.147258 3.714157,9.446533 2.840238,11.520162c-0.873919,2.304032 0,5.068871 2.184798,6.681694c2.184798,1.612823 4.588077,7.372903 5.680476,12.902581c1.092399,5.529678 3.277198,16.128226 4.806556,23.50113c2.621758,12.902581 2.403278,13.593791 -2.403278,17.049839c-2.840238,2.073629 -6.772875,5.529678 -8.739194,7.372903c-1.747839,2.073629 -9.394633,7.83371 -17.041427,12.902581c-7.428315,5.068871 -13.54575,10.137742 -13.54575,11.059355c0,1.152016 -1.966319,1.152016 -4.369597,0.460806c-5.025036,-1.612823 -11.579431,2.764839 -9.613113,6.220887c0.873919,1.382419 0.21848,3.225645 -1.310879,4.147258c-1.529359,0.921613 -8.739194,7.603307 -16.167508,14.515404c-7.209835,6.912097 -16.604468,15.437017 -20.537105,19.123468c-4.151117,3.916855 -8.739194,11.520162 -10.923992,18.662662c-2.184798,6.681694 -4.806556,11.520162 -5.898956,10.368146c-0.873919,-0.921613 -1.092399,1.612823 -0.21848,5.299274c1.310879,7.372903 0,11.289758 -5.243516,13.363388c-2.621758,0.921613 -2.403278,1.382419 0.65544,1.382419c5.025036,0.230403 4.806556,2.304032 -2.184798,15.437017c-6.335915,11.980968 -19.881665,26.496372 -29.057819,31.33484c-3.058718,1.612823 -7.209835,4.377661 -9.176153,5.990484c-3.277198,2.995242 -3.932637,2.995242 -5.243516,-0.230403c-1.092399,-2.995242 -1.966319,-3.225645 -4.151117,-0.921613c-2.403278,2.304032 -2.184798,2.995242 0.873919,4.147258c2.621758,1.152016 2.184798,2.073629 -3.058718,4.147258c-3.495677,1.612823 -8.083754,2.304032 -10.268552,1.843226c-2.184798,-0.69121 -3.932637,0 -3.932637,1.612823c0,2.995242 -8.520714,6.220887 -28.402379,10.828952c-6.554395,1.382419 -15.512069,3.686452 -19.663186,4.838468c-4.151117,1.152016 -26.65454,2.764839 -49.594924,3.456049c-38.233972,1.152016 -42.166609,1.152016 -42.166609,-2.304032c0,-3.456049 -2.403278,-3.686452 -19.007746,-2.995242c-28.183899,1.382419 -26.217581,1.152016 -22.503423,3.456049c1.747839,1.382419 6.117436,1.843226 9.831593,1.152016c6.117436,-0.69121 6.117436,-0.69121 1.092399,1.152016c-3.058718,1.152016 -8.083754,2.073629 -11.360952,2.304032c-3.714157,0.230403 -8.957673,3.225645 -13.76423,8.294516c-4.151117,4.608065 -8.739194,7.603307 -9.831593,6.912097c-1.310879,-0.69121 -2.184798,0.69121 -2.184798,3.225645c0,2.764839 0.873919,4.838468 1.966319,4.838468c1.092399,0 1.529359,2.073629 0.873919,4.608065c-1.310879,5.529678 -2.184798,5.529678 -9.394633,1.152016z"/>
   <path stroke="null" fill="#eb6727" id="svg_5" d="m1696.029175,11930.063047c0.43696,-2.995242 -0.21848,-5.299274 -1.529359,-5.299274c-1.092399,0 -2.184798,1.843226 -2.184798,4.147258c-0.21848,2.764839 -2.840238,0.69121 -8.739194,-6.451291c-4.806556,-5.760081 -8.083754,-11.750565 -7.646794,-13.363388c0.43696,-1.612823 0.43696,-5.990484 -0.43696,-9.676936c-0.873919,-5.068871 -2.184798,-6.681694 -4.806556,-5.760081c-2.621758,0.921613 -5.461996,-2.534436 -10.705512,-12.441775c-7.428315,-14.285001 -6.991355,-16.35863 4.151117,-16.35863c2.403278,0 3.932637,-0.921613 3.277198,-2.073629c-1.966319,-3.225645 31.024137,-10.368146 46.536206,-9.907339c10.268552,0.230403 16.167508,-0.921613 21.847984,-4.147258c6.991355,-3.916855 14.419669,-5.990484 39.981811,-10.828952c3.277198,-0.69121 7.865274,-0.460806 9.831593,0.460806c3.714157,1.612823 3.495677,1.843226 -0.43696,3.686452c-2.840238,1.382419 -1.529359,1.382419 4.369597,0.460806c11.142472,-1.612823 11.579431,-2.304032 3.495677,-4.147258c-11.360952,-2.534436 -8.083754,-6.451291 7.865274,-9.446533c3.495677,-0.69121 6.554395,-2.073629 6.772875,-3.456049c0.43696,-1.152016 1.966319,-2.073629 3.277198,-2.073629c1.529359,0 7.428315,-2.534436 13.32727,-5.760081c5.898956,-3.225645 11.579431,-5.760081 12.671831,-5.760081c1.092399,0 5.243516,-2.534436 9.176153,-5.760081c3.932637,-3.225645 7.865274,-5.760081 8.739194,-5.760081c1.529359,0 24.688222,-17.510646 29.276298,-22.11871c1.310879,-1.612823 2.621758,-3.916855 2.621758,-5.299274c0,-1.382419 1.310879,-2.534436 2.840238,-2.534436c1.747839,0 5.243516,-2.534436 8.083754,-5.760081c5.025036,-5.760081 13.10879,-7.83371 13.10879,-3.456049c0,1.382419 1.747839,2.304032 3.932637,2.304032c3.495677,-0.230403 3.495677,-0.230403 0,-3.225645c-5.898956,-4.608065 -4.806556,-8.52492 4.588077,-18.662662c15.075109,-16.128226 16.822948,-17.049839 25.125182,-15.66742c5.243516,0.921613 7.865274,0.460806 7.865274,-1.382419c0,-1.382419 -1.529359,-2.534436 -3.495677,-2.534436c-1.747839,0 -2.621758,-0.921613 -1.966319,-2.304032c0.65544,-1.152016 3.277198,-2.304032 5.680476,-2.304032c2.403278,0 3.932637,-0.921613 3.277198,-2.073629c-0.873919,-1.152016 0.873919,-1.612823 3.495677,-0.69121c2.840238,0.69121 4.151117,0.230403 3.277198,-1.152016c-0.873919,-1.382419 4.806556,-4.377661 13.76423,-7.372903c8.302234,-2.764839 15.293589,-5.760081 15.730548,-6.681694c0.43696,-0.921613 4.588077,-3.686452 9.394633,-6.220887c4.806556,-2.304032 10.487032,-5.990484 12.671831,-7.83371c3.495677,-2.995242 4.151117,-2.995242 6.117436,-0.230403c1.747839,2.534436 1.966319,2.073629 0.873919,-2.073629c-1.310879,-4.377661 -0.873919,-5.299274 1.966319,-4.147258c1.747839,0.69121 3.932637,0.230403 4.806556,-1.152016c0.873919,-1.612823 0.65544,-1.843226 -0.873919,-0.921613c-1.529359,0.921613 -2.621758,0.69121 -2.621758,-0.69121c0,-3.916855 4.806556,-5.529678 6.772875,-2.304032c0.873919,1.612823 2.403278,2.304032 3.277198,1.382419c0.873919,-0.69121 0.43696,-2.764839 -0.873919,-4.377661c-1.529359,-2.304032 -0.43696,-5.068871 4.151117,-11.059355c3.495677,-4.377661 6.335915,-6.681694 6.335915,-5.068871c0,1.612823 1.529359,2.073629 3.714157,1.152016c2.403278,-0.921613 2.621758,-1.843226 1.092399,-2.534436c-3.932637,-1.382419 -3.277198,-3.686452 3.495677,-14.745807c9.613113,-15.897823 11.142472,-18.662662 15.730548,-28.339598c2.403278,-5.068871 5.680476,-11.289758 7.646794,-13.593791c3.058718,-4.377661 3.277198,-4.377661 7.865274,1.152016c11.142472,13.132984 13.32727,20.736291 5.243516,17.510646c-1.747839,-0.921613 -3.277198,-3.686452 -3.277198,-6.220887c0,-2.534436 -0.873919,-4.608065 -2.184798,-4.608065c-3.495677,0 -2.621758,5.990484 1.747839,11.520162c3.277198,4.147258 4.806556,4.838468 8.302234,2.764839c3.495677,-2.073629 4.806556,-1.612823 6.991355,2.073629c2.621758,4.377661 1.529359,15.897823 -1.747839,15.897823c-0.873919,0 -1.529359,2.764839 -1.529359,6.220887c0,3.456049 -1.310879,6.681694 -2.621758,7.1425c-1.310879,0.460806 -2.403278,2.764839 -2.403278,5.299274c0,2.534436 -1.966319,8.294516 -4.151117,13.132984c-3.932637,8.294516 -4.588077,9.907339 -4.588077,13.824194c0,0.921613 -0.873919,0.230403 -1.747839,-1.152016c-1.092399,-1.843226 -1.747839,0.230403 -1.747839,4.838468c0,4.147258 -1.747839,9.446533 -3.714157,11.750565c-2.184798,2.304032 -4.588077,6.912097 -5.243516,10.598549c-0.65544,3.686452 -2.621758,7.83371 -4.151117,9.216129c-3.714157,3.225645 -3.714157,3.456049 0.21848,-9.907339c1.747839,-6.220887 2.184798,-11.059355 1.092399,-11.059355c-2.621758,0 -4.369597,7.372903 -5.025036,20.736291c-0.873919,12.902581 -10.268552,29.030807 -14.419669,24.653146c-2.184798,-2.073629 -2.621758,-1.382419 -1.966319,4.147258c0.43696,4.377661 -0.21848,6.681694 -1.966319,6.451291c-1.529359,-0.460806 -2.184798,0.921613 -1.310879,2.995242c0.873919,2.764839 0,3.225645 -4.151117,2.073629c-5.898956,-1.612823 -14.20119,5.529678 -8.739194,7.372903c3.714157,1.382419 3.277198,6.451291 -0.873919,10.137742c-3.277198,2.764839 -3.495677,2.534436 -1.966319,-2.534436c1.529359,-5.068871 1.310879,-5.299274 -1.966319,-2.534436c-1.966319,1.612823 -3.277198,4.377661 -3.058718,5.760081c0.21848,1.382419 -1.310879,5.299274 -3.495677,8.985726c-3.058718,4.608065 -5.243516,5.990484 -8.739194,5.068871c-2.403278,-0.460806 -3.277198,-0.460806 -1.747839,0.230403c1.310879,0.69121 2.621758,2.304032 2.621758,3.456049c0,3.225645 -6.117436,2.534436 -7.209835,-0.69121c-0.43696,-1.612823 -1.747839,-2.073629 -2.840238,-1.152016c-1.092399,0.921613 -0.43696,2.764839 1.310879,3.916855c2.184798,1.382419 2.403278,2.764839 1.092399,4.377661c-2.403278,2.534436 -8.302234,-1.152016 -10.487032,-6.681694c-0.65544,-1.843226 -0.873919,0.921613 -0.43696,6.451291l0.43696,9.907339l-6.772875,-1.152016c-4.806556,-0.921613 -5.461996,-0.69121 -2.403278,0.460806c3.714157,1.843226 3.058718,2.764839 -5.461996,8.064113c-5.461996,3.225645 -13.76423,7.603307 -18.570786,9.907339c-4.806556,2.073629 -10.923992,4.838468 -13.54575,6.220887c-3.277198,1.612823 -6.772875,1.382419 -11.360952,-0.69121c-6.991355,-2.995242 -13.32727,-1.843226 -13.32727,2.073629c0,1.382419 2.840238,1.843226 6.991355,0.921613c4.806556,-0.921613 6.335915,-0.69121 5.243516,1.152016c-0.873919,1.612823 -3.932637,2.764839 -6.991355,2.764839c-2.840238,0 -5.243516,0.921613 -5.243516,1.843226c0,1.152016 -5.243516,3.225645 -11.360952,4.838468c-10.705512,2.534436 -30.805657,9.907339 -39.107891,14.054597c-1.966319,1.152016 -8.302234,2.534436 -14.20119,3.456049c-5.898956,0.921613 -18.570786,3.456049 -28.183899,5.760081c-9.613113,2.304032 -21.847984,4.838468 -27.30998,5.760081c-5.461996,0.69121 -13.98271,2.764839 -19.007746,4.608065c-5.025036,1.843226 -12.453351,2.764839 -16.385988,2.304032c-5.680476,-0.921613 -6.117436,-0.69121 -1.966319,0.69121c5.025036,1.612823 4.806556,2.073629 -4.151117,5.760081c-7.646794,2.995242 -10.050073,3.225645 -11.579431,0.921613c-1.310879,-1.843226 -1.529359,-1.612823 -0.873919,1.152016c1.747839,5.529678 -3.714157,9.216129 -14.856629,9.676936c-5.243516,0.230403 -10.923992,1.612823 -12.453351,3.225645c-1.966319,2.073629 -1.966319,2.764839 0.65544,2.764839c1.747839,0 4.369597,-1.152016 5.680476,-2.534436c1.310879,-1.382419 3.495677,-2.304032 5.025036,-1.612823c1.310879,0.460806 -0.65544,3.225645 -4.588077,6.220887c-5.461996,4.377661 -7.209835,4.838468 -8.957673,2.304032c-1.529359,-2.304032 -1.747839,-1.843226 -0.65544,1.612823c0.873919,3.456049 0,5.529678 -2.184798,6.451291c-1.966319,0.69121 -3.058718,0.460806 -2.403278,-0.69121c0.65544,-0.921613 -1.310879,-1.382419 -4.369597,-0.69121c-3.714157,0.69121 -4.806556,1.612823 -2.840238,2.764839c1.966319,1.382419 1.966319,2.764839 -0.873919,5.529678c-1.747839,2.073629 -4.369597,3.686452 -5.680476,3.686452c-1.092399,0 -2.403278,1.382419 -3.058718,2.995242c-0.43696,1.382419 -0.43696,0.460806 0,-2.304032z"/>
   <path stroke="null" fill="#eb6727" id="svg_6" d="m1645.778812,11840.436189c-1.747839,-11.520162 1.747839,-15.66742 4.806556,-5.299274l2.184798,7.83371l-1.092399,-9.446533c-1.310879,-10.368146 0.873919,-12.902581 16.604468,-19.353872c4.151117,-1.843226 8.302234,-4.147258 8.957673,-5.299274c0.873919,-1.152016 9.831593,-2.304032 20.318625,-2.534436c10.268552,0 17.041427,-0.921613 14.856629,-1.612823c-1.966319,-0.69121 2.840238,-2.073629 10.487032,-2.995242c18.570786,-2.304032 32.116536,-5.760081 41.29269,-10.828952c4.369597,-2.534436 10.050073,-3.686452 13.10879,-3.225645c4.806556,1.152016 5.025036,0.921613 1.310879,-0.921613c-2.403278,-1.152016 -3.277198,-2.304032 -1.966319,-2.304032c1.310879,-0.230403 6.335915,-3.916855 10.923992,-8.52492c8.520714,-8.064113 8.520714,-8.064113 10.050073,-2.764839c1.092399,4.147258 1.310879,3.456049 1.529359,-3.225645c0.21848,-5.529678 1.966319,-10.598549 5.243516,-14.285001c2.621758,-2.995242 6.335915,-8.52492 7.865274,-12.211371c3.495677,-8.294516 7.428315,-16.589033 10.487032,-22.579517c1.310879,-2.534436 3.495677,-7.603307 5.025036,-11.289758c1.966319,-5.529678 2.840238,-6.220887 4.588077,-3.456049c1.529359,2.304032 1.747839,0.921613 0.873919,-4.608065c-0.873919,-4.377661 -0.65544,-7.1425 0.43696,-6.451291c1.092399,0.69121 3.277198,-3.225645 4.806556,-8.755323c2.184798,-7.83371 3.495677,-9.676936 6.772875,-8.755323c2.403278,0.69121 4.588077,2.764839 5.025036,5.068871c0.873919,3.225645 1.092399,3.225645 1.310879,-0.460806c0,-2.304032 -1.310879,-4.608065 -3.058718,-5.299274c-4.588077,-1.843226 -4.151117,-5.760081 2.840238,-21.657904c3.932637,-9.216129 6.991355,-13.593791 9.176153,-13.132984c1.966319,0.230403 3.058718,2.534436 2.621758,5.068871c-0.43696,2.534436 -0.21848,3.916855 0.65544,2.995242c1.747839,-1.843226 3.495677,-10.598549 4.151117,-21.427501c0.21848,-5.068871 1.310879,-6.681694 4.151117,-6.220887c2.184798,0.460806 3.277198,-0.460806 2.621758,-2.534436c-1.310879,-3.456049 6.554395,-11.520162 18.789266,-19.584275c9.613113,-6.220887 10.923992,-6.220887 9.394633,-0.921613c-0.873919,2.764839 -0.65544,2.995242 0.65544,0.921613c1.092399,-1.612823 3.714157,-2.304032 5.680476,-1.382419c2.184798,0.69121 3.714157,0.230403 3.714157,-1.152016c0,-1.382419 -1.747839,-2.534436 -3.714157,-2.534436c-2.184798,0 0.43696,-2.304032 5.898956,-5.068871c8.957673,-4.608065 13.76423,-5.068871 52.435161,-5.529678c48.284045,-0.460806 69.258109,-2.995242 83.677778,-9.676936l9.831593,-4.608065l6.772875,7.372903c8.083754,8.755323 8.739194,11.750565 1.966319,8.064113c-4.151117,-2.073629 -4.588077,-2.073629 -2.184798,0.460806c4.369597,4.838468 3.058718,7.83371 -1.747839,3.225645c-3.495677,-3.225645 -4.369597,-3.456049 -4.369597,-0.921613c0,1.843226 1.092399,4.608065 2.621758,6.220887c1.966319,2.073629 1.966319,2.764839 0,2.764839c-1.529359,0 -2.621758,1.152016 -2.621758,2.534436c0,1.382419 -3.058718,5.068871 -6.772875,8.294516c-3.714157,3.456049 -7.646794,8.52492 -8.739194,11.520162c-1.310879,3.916855 -3.277198,5.068871 -6.772875,4.608065c-2.840238,-0.460806 -3.714157,-0.460806 -2.184798,0c3.932637,1.382419 3.277198,4.838468 -1.747839,8.064113c-2.403278,1.612823 -4.369597,4.147258 -4.369597,5.760081c0,1.612823 -3.714157,5.760081 -8.083754,9.216129c-4.588077,3.456049 -8.520714,7.1425 -8.957673,8.064113c-1.747839,3.686452 -22.284944,17.741049 -22.284944,14.97621c-0.21848,-1.612823 -1.747839,-0.69121 -3.932637,1.843226c-4.369597,5.529678 -24.906702,19.584275 -28.402379,19.584275c-1.529359,0 -2.621758,1.152016 -2.621758,2.304032c0,1.382419 -1.747839,2.304032 -3.932637,2.304032c-2.403278,0 -5.898956,2.073629 -7.865274,4.377661c-2.184798,2.534436 -6.117436,5.068871 -9.176153,5.760081c-2.840238,0.921613 -5.243516,2.304032 -5.243516,3.456049c0,2.764839 -15.512069,20.966694 -17.915347,20.966694c-3.058718,0 -1.966319,-6.912097 1.529359,-8.294516c1.747839,-0.921613 2.621758,-2.304032 1.966319,-3.686452c-2.184798,-3.686452 -7.428315,2.995242 -7.428315,9.907339c0,4.147258 -1.092399,6.220887 -2.621758,5.760081c-1.529359,-0.230403 -2.184798,-0.230403 -1.092399,0.230403c2.840238,1.843226 1.529359,4.838468 -4.151117,8.755323c-4.806556,3.225645 -6.117436,3.456049 -7.865274,0.921613c-1.529359,-2.304032 -1.747839,-2.073629 -0.873919,1.152016c1.747839,5.529678 -4.588077,10.828952 -11.360952,8.985726c-3.932637,-0.921613 -4.588077,-0.460806 -3.277198,2.764839c1.092399,3.456049 0.43696,3.916855 -3.277198,2.995242c-3.277198,-0.921613 -6.117436,0.69121 -10.050073,5.299274c-3.058718,3.686452 -10.705512,9.216129 -17.041427,12.672178c-6.335915,3.456049 -12.016391,6.912097 -12.671831,7.603307c-2.403278,3.225645 -19.881665,8.985726 -23.814302,7.83371c-2.403278,-0.69121 -6.117436,0 -8.302234,1.612823c-3.495677,2.304032 -3.495677,2.304032 1.092399,1.152016c5.898956,-1.843226 6.554395,2.534436 0.43696,4.608065c-2.403278,0.69121 -4.369597,2.534436 -4.369597,3.686452c0,1.152016 -1.529359,2.073629 -3.495677,2.073629c-1.747839,0 -7.865274,2.073629 -13.32727,4.838468c-5.461996,2.534436 -11.797911,4.147258 -13.98271,3.686452c-2.403278,-0.69121 -4.151117,0 -4.151117,1.612823c0,3.916855 -17.041427,11.059355 -22.503423,9.446533c-3.495677,-1.152016 -3.932637,-0.921613 -1.747839,0.69121c2.403278,1.843226 -0.873919,3.686452 -12.234871,7.1425c-8.520714,2.764839 -16.385988,4.838468 -17.478387,4.838468c-1.092399,0 -5.243516,1.612823 -9.176153,3.686452c-4.369597,2.304032 -15.512069,4.147258 -30.587178,4.838468l-23.595823,1.152016l-1.310879,-8.755323z"/>
   <path stroke="null" fill="#eb6727" id="svg_7" d="m1665.441998,11797.811591c24.032782,-1.843226 43.695968,-5.760081 41.511169,-8.294516c-0.873919,-0.69121 -4.369597,0 -8.302234,1.382419c-7.865274,2.764839 -22.503423,3.456049 -20.974065,0.921613c0.65544,-1.152016 -7.209835,-1.612823 -17.478387,-1.152016l-18.570786,0.921613l7.209835,-7.1425c6.335915,-5.990484 7.865274,-6.451291 10.050073,-3.456049c1.966319,2.764839 2.403278,2.073629 2.184798,-4.147258c-0.43696,-7.372903 -0.21848,-7.603307 7.646794,-7.372903c7.428315,0 7.865274,-0.230403 5.461996,-4.608065c-2.184798,-4.377661 -2.621758,-4.377661 -3.277198,-0.69121c-0.65544,3.916855 -4.806556,5.760081 -4.806556,2.073629c0,-3.225645 7.865274,-9.907339 9.394633,-8.064113c0.873919,0.69121 1.529359,0.230403 1.529359,-1.152016c0,-3.456049 6.772875,-11.980968 9.394633,-11.980968c1.092399,0 1.529359,1.612823 0.65544,3.456049c-0.873919,2.304032 0.21848,3.456049 3.495677,3.456049c4.369597,0 4.369597,-0.230403 0.873919,-4.377661c-3.714157,-4.147258 -3.714157,-4.838468 -0.21848,-10.368146c2.184798,-3.225645 4.369597,-5.990484 5.243516,-5.990484c0.65544,0 4.151117,-4.147258 7.646794,-9.216129c3.495677,-4.838468 7.209835,-8.52492 8.083754,-7.83371c1.092399,0.69121 1.310879,-0.460806 0.65544,-2.304032c-0.873919,-2.534436 0,-2.995242 3.932637,-2.073629c3.495677,0.69121 4.151117,0.460806 2.184798,-1.152016c-3.932637,-2.764839 3.714157,-16.35863 13.76423,-24.422743c5.461996,-4.377661 6.991355,-7.1425 6.117436,-11.059355l-1.092399,-5.299274l4.588077,5.529678c5.243516,5.990484 5.461996,5.529678 2.403278,-3.456049c-1.966319,-4.838468 -1.529359,-6.681694 1.529359,-9.446533c2.621758,-2.073629 2.840238,-2.764839 0.65544,-1.843226c-2.840238,1.382419 -2.840238,1.152016 0,-1.612823c1.747839,-1.612823 5.243516,-7.1425 7.865274,-12.211371c11.360952,-23.040323 12.890311,-24.883549 19.444706,-22.579517c3.714157,1.152016 3.932637,0.921613 1.529359,-2.073629c-2.403278,-2.995242 -0.873919,-5.529678 8.739194,-15.437017c11.360952,-11.750565 20.100145,-16.819436 10.487032,-5.990484c-2.840238,3.225645 -4.369597,5.760081 -3.495677,5.760081c2.403278,0 14.419669,-14.515404 14.419669,-17.280243c0,-2.304032 22.940383,-14.97621 26.87302,-14.97621c1.092399,0 3.495677,-1.612823 5.243516,-3.686452c2.184798,-2.304032 5.461996,-2.995242 9.176153,-2.073629c3.058718,0.69121 4.588077,0.460806 3.277198,-0.460806c-1.529359,-1.152016 1.529359,-3.225645 8.083754,-5.529678c11.797911,-3.916855 14.419669,-2.304032 4.151117,2.995242l-6.335915,3.225645l10.705512,0.230403c5.898956,0 10.268552,-0.69121 9.613113,-1.843226c-0.65544,-1.152016 1.310879,-2.073629 4.369597,-2.073629c6.991355,0 7.428315,-3.916855 0.873919,-5.299274c-4.806556,-0.69121 -4.806556,-0.921613 -0.65544,-2.764839c2.403278,-1.152016 5.025036,-2.995242 5.680476,-4.147258c0.873919,-1.382419 9.176153,-2.304032 18.570786,-2.534436c9.176153,-0.230403 14.856629,-0.69121 12.671831,-1.152016c-6.117436,-1.612823 28.620859,-6.912097 65.325472,-9.907339c24.469742,-2.073629 32.771976,-2.073629 34.738294,0c3.714157,3.916855 0.65544,5.760081 -4.369597,2.995242c-2.621758,-1.382419 -8.739194,-2.304032 -13.98271,-2.304032l-9.394633,0.230403l11.579431,1.843226c6.335915,0.921613 12.890311,2.995242 14.638149,4.608065c2.403278,2.073629 3.277198,2.073629 3.277198,0.230403c0,-1.382419 1.529359,-2.534436 3.277198,-2.534436c3.714157,0 22.940383,13.824194 22.940383,16.589033c0,2.534436 -1.529359,2.304032 -6.772875,-0.921613c-3.714157,-2.534436 -4.806556,-2.304032 -6.335915,0.460806c-1.092399,1.843226 -2.840238,4.838468 -3.932637,6.451291c-1.529359,2.534436 -11.360952,3.225645 -44.351407,3.225645c-25.343661,0.230403 -40.20029,0.921613 -36.923093,2.073629c4.588077,1.612823 4.151117,1.843226 -2.184798,1.152016c-4.151117,-0.460806 -9.613113,-1.382419 -12.016391,-2.073629c-2.403278,-0.460806 -3.058718,-0.460806 -1.529359,0c1.310879,0.69121 2.621758,2.073629 2.621758,3.225645c0,2.995242 -7.428315,2.534436 -10.487032,-0.69121c-1.966319,-2.073629 -2.621758,-2.073629 -2.621758,0.69121c0,1.843226 -6.991355,7.1425 -16.385988,11.980968c-17.696867,9.216129 -22.284944,10.598549 -15.293589,4.608065c4.151117,-3.456049 4.151117,-3.456049 -2.184798,-1.843226c-7.646794,1.843226 -9.831593,3.686452 -5.898956,5.068871c4.151117,1.612823 3.058718,4.377661 -3.058718,7.372903c-3.277198,1.382419 -5.243516,3.456049 -4.369597,4.147258c0.65544,0.69121 -0.873919,2.995242 -3.277198,4.838468c-3.932637,2.764839 -5.025036,2.764839 -6.335915,0.230403c-1.529359,-2.304032 -3.277198,-1.612823 -7.428315,3.225645c-3.058718,3.686452 -5.680476,8.52492 -5.680476,11.059355c0,2.304032 -1.310879,4.377661 -2.621758,4.377661c-2.184798,0 -1.966319,0.69121 0.21848,2.073629c2.403278,1.612823 1.966319,3.456049 -2.840238,9.907339c-3.058718,4.377661 -5.680476,8.985726 -5.680476,10.137742c-0.21848,4.838468 -8.520714,12.441775 -12.453351,11.059355c-3.058718,-1.152016 -3.277198,-0.921613 -0.65544,0.921613c2.621758,2.073629 2.621758,3.456049 0.21848,8.985726c-3.277198,7.1425 -7.865274,18.201855 -10.050073,23.731533c-3.058718,8.52492 -13.76423,24.19234 -16.167508,23.50113c-1.747839,-0.460806 -2.184798,0.921613 -1.310879,3.916855c1.310879,4.608065 -6.991355,16.35863 -11.579431,16.35863c-1.092399,0 -1.747839,2.073629 -1.092399,4.608065c1.310879,5.068871 -2.621758,6.451291 -4.588077,1.843226c-0.43696,-1.612823 -0.873919,-0.460806 -0.65544,2.764839c0.43696,4.838468 -0.43696,5.760081 -5.025036,5.068871c-4.151117,-0.460806 -4.806556,0 -2.184798,1.843226c2.840238,1.843226 2.184798,3.456049 -3.714157,9.216129c-5.461996,5.529678 -9.176153,6.912097 -17.696867,7.372903c-8.957673,0.460806 -10.487032,1.152016 -9.831593,4.377661c1.092399,4.147258 7.209835,3.456049 7.209835,-0.460806c0,-1.152016 1.747839,-2.073629 3.932637,-2.073629c3.058718,0 2.621758,0.921613 -1.747839,4.608065c-3.058718,2.534436 -6.554395,4.608065 -8.083754,4.608065c-1.310879,0 -5.243516,1.152016 -8.739194,2.764839c-9.394633,3.916855 -12.234871,4.608065 -18.570786,4.838468c-3.277198,0 -5.461996,0.69121 -5.025036,1.612823c2.184798,3.916855 -27.52846,9.216129 -49.594924,8.985726l-22.503423,-0.460806l24.469742,-1.843226z"/>
   <path stroke="null" fill="#eb6727" id="svg_8" d="m1647.526651,11763.942316c-2.184798,-5.068871 -1.310879,-32.02605 1.092399,-37.094921c1.092399,-2.073629 2.621758,-9.446533 3.495677,-16.35863c0.873919,-6.912097 2.403278,-14.054597 3.495677,-16.128226c1.092399,-1.843226 3.932637,-11.059355 6.335915,-20.045081c2.403278,-9.216129 6.772875,-21.657904 9.394633,-27.648388c4.151117,-9.446533 5.680476,-11.059355 10.268552,-10.368146c4.588077,0.460806 4.806556,0.230403 1.747839,-1.843226c-3.277198,-2.073629 -3.277198,-2.995242 0.65544,-11.520162c2.403278,-5.299274 5.680476,-9.907339 7.428315,-10.828952c1.747839,-0.69121 3.277198,-2.534436 3.277198,-4.377661c0,-1.843226 1.529359,-3.225645 3.495677,-3.225645c1.747839,0 2.840238,-0.921613 2.184798,-1.843226c-0.65544,-1.152016 1.747839,-5.068871 5.243516,-8.52492c6.554395,-6.451291 8.520714,-12.672178 4.369597,-12.672178c-1.092399,0 -2.184798,1.612823 -2.184798,3.686452c0,2.764839 -1.310879,3.456049 -5.243516,2.304032c-3.058718,-0.69121 -6.117436,-0.460806 -6.772875,0.921613c-0.873919,1.382419 0.21848,1.612823 2.621758,0.69121c3.714157,-1.382419 3.714157,-1.152016 -0.21848,3.456049c-2.403278,2.764839 -5.461996,5.068871 -6.772875,5.068871c-1.529359,0 -3.277198,2.073629 -3.932637,4.608065c-0.873919,3.225645 -2.403278,4.147258 -5.243516,3.225645c-3.058718,-1.152016 -3.277198,-0.921613 -0.873919,0.921613c2.621758,1.843226 1.966319,3.456049 -3.058718,8.294516c-3.277198,3.225645 -7.209835,5.990484 -8.302234,5.990484c-1.310879,0 -1.747839,0.69121 -0.873919,1.382419c0.65544,0.921613 -3.714157,9.216129 -9.831593,18.432259c-6.554395,9.676936 -12.016391,15.897823 -12.671831,14.515404c-1.092399,-1.612823 -1.966319,-1.152016 -2.840238,1.152016c-0.873919,2.534436 -0.21848,3.686452 2.184798,3.686452c3.932637,0 1.747839,3.456049 -2.184798,3.456049c-1.529359,0 -2.403278,2.995242 -2.184798,6.912097c0.65544,8.064113 -3.495677,14.515404 -6.335915,9.907339c-1.092399,-1.843226 -1.310879,0.69121 -0.65544,6.220887c1.092399,6.912097 0.873919,8.294516 -0.873919,5.760081c-1.966319,-2.764839 -2.403278,-2.304032 -2.184798,2.304032c0.21848,3.225645 -1.529359,13.132984 -3.495677,21.888307c-2.184798,8.985726 -4.588077,23.50113 -5.461996,32.256453l-1.529359,16.128226l-0.21848,-14.285001c-0.21848,-7.83371 0.43696,-16.819436 1.747839,-20.275485c1.092399,-3.225645 2.621758,-10.828952 3.495677,-16.819436c0.65544,-5.990484 1.529359,-12.441775 1.747839,-14.285001c3.058718,-16.35863 14.419669,-50.688711 16.822948,-50.688711c1.092399,0 1.966319,-1.612823 1.966319,-3.456049c0,-3.686452 7.865274,-19.353872 11.360952,-23.040323c1.529359,-1.612823 1.966319,-1.612823 1.310879,0c-0.65544,1.382419 -0.43696,4.377661 0.65544,6.912097l1.966319,4.608065l-0.21848,-4.608065c-0.43696,-8.52492 0.21848,-13.824194 2.403278,-17.280243c1.966319,-2.995242 2.403278,-2.995242 4.369597,0c1.529359,2.534436 2.184798,1.612823 2.184798,-3.916855c0,-6.220887 2.840238,-10.368146 17.259907,-25.344356c9.394633,-9.907339 20.755585,-21.427501 25.343661,-25.574759c12.453351,-11.289758 36.486133,-25.805162 43.914448,-26.035565c4.151117,-0.230403 5.025036,-0.69121 2.184798,-1.382419c-3.277198,-0.921613 -2.184798,-2.304032 5.025036,-6.912097c5.461996,-3.225645 11.142472,-5.299274 13.54575,-4.608065c3.058718,0.921613 4.151117,0.230403 3.495677,-1.612823c-1.529359,-3.916855 17.696867,-8.985726 27.0915,-7.1425c7.646794,1.382419 15.293589,-1.843226 12.016391,-5.068871c-1.092399,-0.921613 -2.403278,-0.460806 -2.840238,1.152016c-1.092399,3.225645 -7.209835,3.916855 -7.209835,0.69121c0,-1.152016 5.025036,-3.225645 10.923992,-4.608065c13.10879,-2.995242 15.730548,-2.995242 9.831593,0c-3.495677,1.612823 -3.058718,1.843226 2.184798,0.921613c3.714157,-0.921613 7.865274,-3.225645 9.394633,-5.299274c2.403278,-3.456049 7.428315,-3.916855 39.981811,-3.686452c20.974065,0.230403 38.015492,1.382419 39.763331,2.764839c1.310879,1.152016 6.117436,2.995242 10.268552,3.686452c4.151117,0.921613 9.613113,2.534436 12.016391,3.456049c2.403278,1.152016 9.831593,3.686452 16.385988,5.760081c30.805657,9.676936 32.116536,14.054597 4.151117,12.902581c-21.847984,-0.69121 -65.543952,6.220887 -95.25721,15.206613c-3.058718,0.921613 -5.025036,0.460806 -5.025036,-0.921613c0,-1.382419 2.184798,-2.764839 5.025036,-3.225645c2.621758,-0.460806 -1.966319,-0.921613 -10.487032,-0.921613c-8.302234,0 -12.890311,0.69121 -9.831593,1.382419c3.714157,0.921613 4.588077,1.843226 2.621758,3.225645c-3.277198,2.073629 -11.360952,-0.230403 -11.360952,-3.456049c0,-1.152016 -1.529359,-2.073629 -3.277198,-2.073629c-1.747839,0 -3.277198,0.921613 -3.277198,1.843226c0,3.916855 8.083754,9.676936 13.32727,9.676936c5.025036,0 5.025036,0 -1.092399,3.456049c-7.865274,4.377661 -10.268552,4.377661 -8.739194,0c0.873919,-1.843226 0.21848,-3.456049 -1.092399,-3.456049c-2.184798,0 -3.495677,5.068871 -2.621758,10.137742c0.21848,0.921613 -2.184798,1.382419 -5.025036,0.460806c-4.588077,-1.152016 -5.243516,-0.69121 -4.151117,2.304032c1.092399,2.995242 0.43696,3.456049 -3.714157,2.073629c-3.932637,-1.382419 -4.806556,-0.921613 -3.714157,1.843226c0.873919,2.534436 0,2.995242 -3.058718,2.304032c-3.058718,-0.921613 -4.151117,0 -4.151117,3.456049c0,2.995242 -2.403278,5.529678 -6.991355,7.603307c-3.932637,1.612823 -9.394633,5.529678 -12.016391,8.52492c-2.840238,3.225645 -5.898956,4.838468 -7.428315,3.686452c-1.529359,-0.921613 -1.966319,-0.69121 -1.310879,0.69121c1.747839,2.995242 -13.10879,17.510646 -15.949028,15.66742c-1.092399,-0.69121 -2.403278,0.921613 -3.277198,3.456049c-1.966319,6.681694 -11.797911,18.432259 -15.512069,18.432259c-1.529359,0 -2.403278,1.382419 -1.747839,2.995242c0.65544,1.843226 -1.310879,5.529678 -3.932637,8.755323c-6.772875,7.372903 -23.595823,30.874033 -23.595823,32.947662c0,0.69121 -3.277198,6.681694 -7.428315,13.132984c-4.151117,6.220887 -8.302234,13.363388 -8.957673,15.897823c-1.529359,4.838468 -5.461996,6.451291 -5.461996,2.304032c0,-1.152016 1.092399,-2.304032 2.184798,-2.304032c1.310879,0 2.184798,-2.304032 2.184798,-5.068871c-0.21848,-5.299274 -0.21848,-5.299274 -3.277198,0.460806c-1.747839,3.225645 -2.621758,7.372903 -1.966319,9.446533c0.873919,3.456049 -8.957673,25.113953 -11.579431,25.113953c-0.65544,0 -0.43696,-2.534436 0.21848,-5.760081c0.873919,-3.225645 0.43696,-5.760081 -0.873919,-5.760081c-1.092399,0 -2.184798,1.382419 -2.184798,2.995242c0,1.843226 -0.873919,1.612823 -2.184798,-0.69121c-2.840238,-4.608065 -2.621758,-2.304032 0.21848,6.451291c2.184798,6.681694 1.747839,8.064113 -4.369597,15.897823c-3.714157,4.838468 -6.772875,9.446533 -6.772875,10.598549c0,2.534436 -9.176153,11.980968 -14.638149,15.206613c-3.714157,2.073629 -4.806556,1.612823 -6.335915,-1.612823z"/>
   <path stroke="null" fill="#eb6727" id="svg_9" d="m2746.043283,11052.226726c-1.529359,-0.460806 -2.840238,-2.995242 -2.840238,-5.529678c0,-2.304032 -0.873919,-4.377661 -1.966319,-4.377661c-3.495677,0 -10.487032,-19.353872 -12.016391,-33.408469c-2.621758,-24.883549 7.865274,-73.959438 15.075109,-71.194599c5.461996,2.304032 12.016391,-3.456049 11.797911,-10.137742c-0.21848,-4.838468 -0.43696,-5.068871 -1.310879,-1.612823c-1.529359,6.220887 -4.151117,8.985726 -6.991355,7.1425c-2.840238,-1.843226 2.840238,-15.206613 6.335915,-15.206613c4.369597,0 5.461996,0.460806 5.025036,2.304032c-0.21848,0.921613 2.621758,1.612823 6.554395,1.382419c4.806556,-0.230403 6.772875,-1.152016 6.335915,-3.456049c-1.092399,-5.529678 6.335915,-25.574759 9.613113,-25.574759c1.747839,0 3.058718,1.612823 3.058718,3.456049c0,1.843226 -0.873919,3.456049 -2.184798,3.456049c-1.092399,0 -2.184798,1.152016 -2.184798,2.534436c0,1.382419 1.529359,2.073629 3.277198,1.152016c1.747839,-0.69121 3.277198,-0.230403 3.277198,0.69121c0,1.152016 0.65544,3.686452 1.310879,5.760081c0.873919,2.534436 0.21848,3.686452 -2.184798,3.686452c-2.184798,0 -3.495677,1.843226 -3.495677,5.068871c0,4.608065 0.21848,4.608065 3.932637,1.152016c5.025036,-4.838468 10.050073,-5.068871 8.302234,-0.460806c-0.65544,1.843226 -0.43696,3.456049 0.65544,3.456049c0.873919,0 2.621758,-3.225645 3.714157,-7.1425c1.092399,-3.916855 2.840238,-6.912097 3.714157,-6.681694c1.092399,0.230403 3.714157,-2.073629 6.117436,-5.068871c3.277198,-3.686452 4.806556,-4.377661 6.117436,-2.304032c1.310879,2.304032 3.058718,2.073629 7.865274,-0.460806c5.243516,-2.995242 6.335915,-5.068871 7.209835,-14.515404c0.873919,-12.211371 10.268552,-36.634114 14.638149,-38.47734c1.966319,-0.69121 2.840238,1.612823 2.621758,8.52492c-0.21848,28.109195 1.529359,29.95242 15.293589,16.589033c4.588077,-4.377661 9.613113,-7.603307 11.142472,-6.912097c1.529359,0.460806 2.621758,-0.69121 2.621758,-2.995242c0,-2.304032 1.092399,-5.299274 2.184798,-6.451291c1.310879,-1.382419 2.840238,-5.529678 3.495677,-9.216129c0.65544,-3.686452 1.966319,-7.603307 3.277198,-8.985726c1.092399,-1.152016 1.966319,-3.916855 1.966319,-6.220887c0,-2.304032 0.873919,-4.147258 2.184798,-4.147258c1.310879,0 0.873919,3.456049 -0.873919,8.755323c-6.117436,18.432259 -7.209835,25.344356 -6.554395,46.541453c0.873919,28.800404 2.621758,45.61984 5.461996,51.149518c2.621758,5.299274 0.43696,8.985726 -2.403278,4.147258c-1.310879,-2.073629 -2.184798,-2.304032 -2.184798,-0.69121c0,1.382419 1.747839,4.377661 3.714157,6.681694c7.428315,7.83371 8.739194,13.132984 5.025036,19.814678c-1.747839,3.686452 -3.932637,6.451291 -4.806556,6.451291c-1.092399,0 -1.747839,1.612823 -1.747839,3.456049c0,1.843226 -1.092399,3.456049 -2.403278,3.456049c-1.310879,0 -6.335915,4.147258 -10.923992,9.216129c-4.806556,5.068871 -9.176153,9.216129 -9.831593,9.216129c-0.873919,0 -6.335915,3.225645 -12.234871,6.912097c-5.898956,3.916855 -11.579431,6.451291 -12.453351,5.760081c-1.092399,-0.460806 -2.403278,0.921613 -3.058718,3.456049c-0.65544,2.995242 -2.184798,4.147258 -4.588077,3.225645c-1.966319,-0.69121 -3.495677,-0.230403 -3.495677,1.152016c0,1.152016 -3.058718,5.760081 -6.991355,9.907339c-5.243516,5.529678 -8.520714,7.372903 -13.54575,6.912097c-5.680476,-0.230403 -6.117436,0 -2.403278,1.612823c7.428315,3.456049 -21.629504,16.128226 -39.981811,17.280243c-8.083754,0.69121 -15.949028,0.460806 -17.259907,-0.230403z"/>
   <path stroke="null" fill="#ffffff" id="svg_10" d="m1397.034965,10997.082333c-4.151117,-13.363388 -8.739194,-25.574759 -10.268552,-26.957178c-1.529359,-1.382419 -5.461996,-1.843226 -8.520714,-0.921613c-3.932637,0.921613 -5.898956,0.460806 -6.554395,-1.612823c-0.43696,-1.843226 -1.966319,-22.349114 -3.277198,-45.850244c-1.310879,-23.50113 -4.806556,-82.023551 -7.646794,-130.177827c-12.234871,-195.381942 -11.797911,-310.58356 1.747839,-404.357676c8.957673,-62.208873 31.242617,-119.809682 50.687323,-130.869037c7.865274,-4.377661 34.738294,-6.912097 51.998202,-5.068871c39.544851,4.838468 58.115637,22.80992 86.736496,83.175568c8.520714,18.201855 19.881665,39.629356 25.125182,47.232663c15.293589,23.040323 40.63725,37.325324 47.847085,27.187582c8.083754,-11.750565 12.453351,-58.522421 7.646794,-83.175568c-11.797911,-60.826454 -14.419669,-91.700487 -11.142472,-138.702747c1.529359,-19.814678 3.277198,-39.629356 4.369597,-44.007018l1.747839,-8.064113l2.621758,6.912097c1.529359,3.916855 6.991355,19.353872 12.453351,34.560485c5.461996,15.206613 11.360952,31.33484 12.890311,35.712501c1.747839,4.377661 6.991355,20.045081 12.016391,34.560485c5.025036,14.515404 11.360952,32.717259 14.20119,40.320566c2.840238,7.603307 7.209835,20.505888 10.050073,28.800404c5.243516,16.35863 8.520714,21.888307 8.520714,14.745807c0,-2.304032 -1.966319,-21.427501 -4.151117,-42.394195c-6.991355,-61.517663 -11.579431,-110.593552 -10.487032,-113.588794c1.092399,-3.686452 34.082855,68.199357 43.695968,95.156536c22.066464,62.208873 29.494778,118.657666 22.721903,171.650409c-3.932637,29.261211 -7.865274,43.085405 -17.915347,62.208873c-19.444706,36.634114 -52.435161,57.370405 -96.131129,60.365647c-17.478387,1.152016 -21.192544,0.460806 -62.266754,-10.828952c-21.411024,-5.990484 -45.225327,-6.220887 -46.754686,-0.460806c-3.495677,12.902581 -12.671831,103.451052 -18.789266,184.783394c-6.772875,91.470084 -18.352307,174.645651 -30.805657,220.035089c-4.588077,16.35863 -21.192544,56.448792 -23.595823,56.448792c-2.840238,0 -12.890311,-21.197098 -21.192544,-45.389437c-8.739194,-24.883549 -21.847984,-51.379921 -25.343661,-51.379921c-1.966319,0 -1.966319,-1.382419 -3.714157,58.522421l-1.310879,46.080647l-7.209835,-24.653146z"/>
   <path stroke="null" fill="#ffffff" id="svg_11" d="m1082.756266,10801.548007c-73.846186,-21.657904 -114.701916,-93.774116 -107.055121,-188.930652c4.588077,-57.370405 22.721903,-97.230165 71.879867,-158.287022c33.208936,-41.472582 43.259008,-56.448792 50.687323,-76.033067c6.772875,-18.201855 5.243516,-46.541453 -3.495677,-64.052099c-7.428315,-14.285001 -16.604468,-21.657904 -29.276298,-23.961936c-6.335915,-0.921613 -10.050073,-3.225645 -13.76423,-8.985726c-4.369597,-6.451291 -5.025036,-10.598549 -5.898956,-33.178066l-0.65544,-25.805162l9.176153,-4.838468c27.30998,-14.745807 46.973165,-19.353872 81.92994,-19.353872c29.713258,0 31.242617,0.230403 50.250363,8.064113c46.099246,18.662662 73.846186,48.845486 89.795214,97.690971c5.461996,16.35863 6.117436,21.657904 6.117436,47.232663c0,34.560485 -3.277198,48.845486 -18.352307,81.793148c-9.831593,21.657904 -27.0915,48.154276 -44.132928,67.508148c-41.29269,47.232663 -85.207137,107.828714 -95.69417,132.712263c-8.520714,19.814678 -9.394633,43.776614 -1.529359,53.223147c5.680476,6.912097 9.394633,7.372903 43.040528,4.838468c21.847984,-1.843226 23.158863,-1.612823 29.276298,3.225645c5.243516,4.608065 6.117436,6.451291 5.025036,13.824194c-1.310879,10.828952 -17.696867,32.02605 -34.301335,44.467824c-15.293589,11.289758 -14.638149,10.598549 -9.613113,10.828952c8.739194,0 38.889411,-9.216129 48.065565,-14.97621c11.142472,-6.912097 25.780621,-22.11871 39.544851,-41.011776c5.680476,-7.83371 11.142472,-15.206613 12.016391,-16.589033c0.873919,-1.152016 5.243516,-6.451291 9.613113,-11.520162l7.646794,-9.216129l-1.310879,10.368146c-3.058718,21.888307 -19.007746,54.83597 -34.519815,71.655406c-19.663186,21.197098 -40.63725,35.021292 -68.16571,45.159034c-19.881665,7.603307 -67.073311,9.676936 -86.299537,4.147258z"/>
   <path stroke="null" fill="#ffffff" id="svg_12" d="m260.39815,10799.243975c-46.099246,-9.216129 -90.669133,-33.178066 -120.382392,-64.973712c-16.385988,-17.280243 -33.645895,-51.149518 -39.326371,-76.724277c-6.117436,-27.648388 -3.058718,-70.50339 6.772875,-95.617342c12.453351,-32.02605 33.864375,-72.807422 48.939484,-93.31331c3.277198,-4.377661 18.570786,-27.648388 33.864375,-51.840728c28.620859,-44.698227 44.569887,-76.493874 50.250363,-99.7646c4.369597,-17.049839 4.151117,-21.197098 -0.43696,-21.197098c-4.588077,0 -43.259008,6.220887 -106.399682,17.280243c-99.626807,17.049839 -130.650944,22.11871 -132.617263,21.427501c-1.966319,-0.69121 72.098347,-47.923873 97.442008,-61.97847c7.209835,-3.916855 16.385988,-9.216129 20.100145,-11.289758c3.932637,-2.073629 6.554395,-4.377661 6.117436,-5.068871c-0.65544,-0.460806 -22.066464,3.916855 -47.410125,9.907339c-25.562141,6.220887 -48.065565,11.059355 -49.813403,11.289758c-1.747839,0 5.243516,-8.294516 15.293589,-18.201855c20.755585,-20.505888 38.015492,-30.874033 72.753787,-43.085405c24.688222,-8.985726 63.140674,-17.741049 93.727851,-21.657904c31.898057,-4.147258 92.198492,-1.843226 114.264956,4.377661c87.828895,24.653146 109.895359,88.705245 66.854831,194.46033c-7.646794,19.123468 -37.578532,81.793148 -41.729649,88.014035c-3.932637,5.760081 -36.923093,69.351373 -48.502524,93.543713c-25.125182,53.223147 -30.150218,86.631616 -15.293589,102.299036c11.142472,11.750565 16.604468,13.363388 52.872121,14.97621c38.233972,1.612823 45.443807,3.916855 53.527561,18.432259c5.680476,10.598549 6.117436,34.330082 0.65544,46.31105c-7.865274,17.280243 -29.057819,33.638872 -52.872121,40.550969c-16.822948,4.838468 -58.115637,5.760081 -78.652742,1.843226z"/>
   <path stroke="null" fill="#ffffff" id="svg_13" d="m1882.61096,10794.1751c-35.39374,-7.6033 -61.8298,-73.72903 -64.88851,-163.12549c-1.0924,-30.87403 -0.43696,-41.93338 6.77287,-102.52944c8.52071,-73.03782 19.66319,-170.9592 27.52846,-239.61936c9.39463,-84.09718 11.79791,-102.06863 13.98271,-102.99024c1.31088,-0.23041 6.33592,3.22564 11.57943,8.06411c8.7392,8.06411 9.39463,9.67693 12.45335,28.10919c1.74784,10.82896 3.49568,23.73154 3.49568,28.80041c0.21848,5.06887 1.31088,0.4608 2.1848,-10.13774c1.0924,-10.82896 2.40328,-20.04509 2.84024,-20.50589c0.65544,-0.46081 3.27719,0.69121 6.11743,2.76484c2.62176,2.07363 6.11744,3.68645 7.42832,3.68645c1.52936,0 5.46199,-8.29452 8.73919,-18.43226c3.49568,-10.13774 7.42831,-18.43226 8.95767,-18.43226c5.462,0 22.94039,45.85024 30.3687,80.18033c24.68822,112.66718 38.01549,285.70001 28.1839,365.64993c-6.99135,56.21839 -31.02414,114.74081 -57.4602,139.85476c-15.73055,14.97621 -33.64589,21.88831 -48.28404,18.66266z"/>
   <path stroke="null" fill="#ffffff" id="svg_14" d="m507.717329,10788.875829c-2.184798,-5.529678 -22.940383,-117.966456 -28.839339,-155.522183c-7.865274,-49.536695 -10.050073,-76.493874 -10.050073,-124.64815c0,-93.082907 18.352307,-142.850005 75.594024,-204.137265c33.864375,-36.403711 70.132028,-60.596051 106.836641,-71.194599c24.251262,-6.912097 58.334117,-5.529678 81.71146,3.686452c32.335016,12.672178 67.51027,43.085405 89.795214,77.876293c5.461996,8.52492 10.487032,15.437017 11.360952,15.437017c1.310879,0 11.579431,-16.589033 19.663186,-32.02605c3.058718,-5.760081 5.243516,-7.1425 10.705512,-7.1425l6.991355,0l-1.310879,99.7646l-1.529359,99.534197l6.335915,-19.584275c6.991355,-21.197098 12.016391,-40.781372 21.847984,-85.249197c8.302234,-36.403711 13.32727,-51.610324 21.847984,-65.895325l6.772875,-11.289758l0,22.349114c0,74.881051 -21.411024,306.205898 -32.990456,356.664206c-9.176153,39.16855 -23.158863,63.591293 -42.166609,72.807422c-20.974065,10.368146 -42.385089,5.299274 -56.149319,-13.132984c-16.604468,-22.11871 -22.503423,-48.384679 -25.999101,-114.971214c-3.058718,-61.748067 -4.151117,-76.493874 -8.083754,-99.073391c-15.075109,-90.087665 -53.309081,-149.070892 -93.290891,-144.232425c-26.65454,3.225645 -46.536206,27.417985 -58.552597,70.50339c-10.268552,37.555727 -12.890311,66.125728 -15.075109,162.43428c-1.747839,89.166052 -4.806556,128.334601 -10.705512,145.845247c-1.529359,3.916855 -3.058718,7.372903 -3.277198,7.372903c-0.43696,0 -4.369597,-2.073629 -8.520714,-4.838468c-8.302234,-5.068871 -13.54575,-16.819436 -18.789266,-41.702985c-1.529359,-7.372903 -3.932637,-13.363388 -5.243516,-13.363388c-4.588077,0 -12.234871,26.035565 -13.76423,47.00226l-1.310879,20.505888l-6.554395,-18.893065c-8.957673,-26.496372 -10.705512,-25.113953 -14.20119,10.137742c-1.092399,10.137742 -2.403278,16.819436 -3.058718,14.97621z"/>
   <path stroke="null" fill="#eb6727" id="svg_15" d="m3263.185063,10697.866552c-5.461996,-3.225645 -5.461996,-3.225645 -0.43696,-3.456049c3.277198,0 4.806556,-1.382419 4.806556,-4.377661c0,-3.686452 -2.403278,-4.608065 -16.385988,-5.990484c-8.957673,-0.69121 -17.041427,-0.921613 -18.133827,-0.230403c-0.873919,0.460806 -3.058718,0.230403 -4.806556,-0.921613c-2.403278,-1.612823 -2.184798,-2.534436 0.65544,-5.760081c5.461996,-5.529678 4.588077,-8.985726 -1.092399,-3.686452c-5.025036,5.068871 -10.050073,4.147258 -5.898956,-1.152016c1.966319,-2.534436 1.747839,-3.225645 -0.873919,-3.225645c-1.747839,0 -3.714157,1.152016 -4.151117,2.534436c-0.873919,2.534436 -17.041427,-12.902581 -17.041427,-16.35863c0,-3.916855 6.117436,-2.534436 8.520714,1.843226c1.966319,3.456049 2.184798,3.456049 2.403278,0.230403c0,-6.220887 -6.117436,-10.368146 -10.923992,-7.1425c-3.714157,2.304032 -5.025036,1.612823 -10.050073,-5.529678c-5.025036,-6.912097 -5.461996,-8.52492 -2.840238,-10.368146c2.184798,-1.843226 1.529359,-1.843226 -2.184798,-0.921613c-4.369597,1.382419 -5.025036,0.921613 -3.932637,-2.073629c0.873919,-2.534436 0.65544,-3.456049 -0.873919,-2.304032c-1.747839,0.921613 -1.966319,-0.921613 -0.873919,-6.220887c0.873919,-5.760081 0.65544,-6.912097 -0.873919,-4.377661c-1.966319,2.995242 -2.621758,2.764839 -5.680476,-1.152016c-1.747839,-2.534436 -3.932637,-6.912097 -4.588077,-9.676936c-0.65544,-2.995242 -2.403278,-5.299274 -3.495677,-5.299274c-1.310879,0 -1.747839,-2.304032 -1.310879,-5.299274c0.873919,-4.147258 0,-5.068871 -4.151117,-4.838468c-6.117436,0.230403 -17.041427,10.137742 -11.142472,10.137742c1.747839,0 4.588077,-1.612823 6.117436,-3.456049c1.529359,-1.843226 3.714157,-2.764839 4.806556,-1.843226c2.621758,1.612823 -6.554395,9.676936 -10.923992,9.907339c-1.529359,0 -2.403278,0.921613 -1.747839,2.073629c0.65544,1.152016 -2.840238,4.838468 -8.083754,8.52492c-5.025036,3.686452 -9.613113,7.372903 -10.268552,8.064113c-0.65544,0.69121 -3.058718,1.843226 -5.461996,2.534436c-2.403278,0.69121 -6.335915,2.073629 -8.520714,3.225645c-3.058718,1.152016 -3.714157,0.921613 -2.621758,-0.921613c1.092399,-1.843226 0.43696,-2.304032 -1.747839,-1.382419c-1.966319,0.69121 -3.495677,2.534436 -3.495677,4.147258c0,1.382419 -3.932637,4.377661 -8.739194,6.681694c-10.923992,4.838468 -11.360952,4.838468 -10.487032,0c0.21848,-2.304032 -0.43696,-4.377661 -1.529359,-4.838468c-1.310879,-0.230403 -2.403278,1.382419 -2.840238,4.147258c-0.43696,2.534436 -2.184798,4.608065 -3.932637,4.608065c-3.495677,0 -4.151117,-3.686452 -1.092399,-5.529678c1.092399,-0.69121 2.621758,-9.907339 3.495677,-20.275485l1.747839,-19.123468l2.403278,9.216129c2.621758,8.985726 2.621758,8.985726 5.461996,3.916855c1.529359,-2.995242 2.184798,-7.603307 1.747839,-10.368146c-0.873919,-4.147258 -1.092399,-3.916855 -1.310879,1.382419c0,3.456049 -1.310879,6.220887 -2.403278,6.220887c-1.310879,0 -1.747839,-3.686452 -0.873919,-9.676936c1.092399,-6.912097 0.873919,-8.985726 -0.873919,-7.83371c-2.184798,1.382419 -3.277198,-5.760081 -3.058718,-19.353872c0,-5.299274 9.831593,-61.97847 11.142472,-65.664922c2.403278,-5.990484 6.335915,-28.570001 8.083754,-47.232663c1.747839,-17.971452 2.840238,-20.505888 3.277198,-6.681694l0.43696,10.137742l1.310879,-9.216129c1.092399,-7.372903 0.43696,-9.907339 -3.058718,-13.132984c-4.151117,-3.456049 -4.369597,-3.456049 -5.680476,0c-0.873919,2.534436 -1.747839,0.69121 -2.403278,-5.068871c-0.873919,-7.83371 -0.65544,-8.294516 1.966319,-4.608065c2.840238,4.147258 3.058718,4.147258 4.151117,-0.921613c0.873919,-2.764839 2.184798,-5.068871 3.277198,-5.068871c2.840238,0 2.403278,3.225645 -0.65544,6.451291c-1.966319,2.073629 -1.966319,3.456049 0,5.529678c1.529359,1.612823 2.621758,1.843226 2.840238,0.69121c0,-1.382419 0.65544,-5.068871 1.092399,-8.52492c0.65544,-3.686452 0.21848,-6.451291 -1.092399,-6.451291c-1.092399,0 -2.621758,-3.686452 -3.277198,-8.064113c-0.873919,-4.377661 -2.403278,-8.064113 -3.714157,-8.064113c-1.310879,0 -1.747839,0.921613 -0.873919,2.073629c0.65544,1.152016 0,2.995242 -1.310879,3.916855c-1.747839,1.152016 -2.184798,0 -1.310879,-4.147258c0.873919,-3.686452 0.43696,-6.912097 -1.529359,-8.52492c-4.151117,-3.686452 -6.554395,-24.422743 -6.554395,-57.831212c0,-32.256453 1.092399,-48.384679 3.714157,-46.771857c0.873919,0.460806 1.529359,-1.382419 1.529359,-4.377661c0,-4.838468 9.831593,-17.510646 12.016391,-15.437017c0.43696,0.69121 -0.65544,4.377661 -2.621758,8.52492c-2.621758,5.760081 -2.840238,8.294516 -0.873919,10.368146c1.747839,1.843226 2.403278,0.921613 2.403278,-3.686452c0,-3.456049 1.092399,-6.220887 2.184798,-6.220887c1.310879,0 2.184798,-2.995242 2.184798,-6.912097c0,-3.686452 0.873919,-6.912097 1.747839,-6.912097c1.092399,0 6.554395,-4.377661 12.234871,-9.676936c19.663186,-18.432259 46.099246,-38.246937 48.065565,-36.403711c2.621758,2.764839 -2.403278,9.216129 -7.209835,9.216129c-1.966319,0 -5.461996,1.843226 -7.865274,3.916855l-4.369597,3.686452l4.369597,-1.843226c7.209835,-2.764839 17.478387,-2.995242 19.007746,-0.230403c0.873919,1.382419 2.184798,1.612823 3.277198,0.69121c0.873919,-1.152016 0.43696,-2.764839 -1.092399,-3.686452c-1.966319,-1.152016 -2.403278,-3.916855 -1.310879,-7.83371c0.873919,-4.147258 0.43696,-6.220887 -1.310879,-6.220887c-2.184798,0 -2.184798,-0.69121 0,-3.456049c2.184798,-2.995242 3.058718,-2.995242 5.898956,0c2.621758,2.995242 3.932637,2.764839 9.613113,-1.612823c3.714157,-2.995242 5.461996,-5.529678 4.151117,-5.990484c-1.310879,-0.460806 -3.714157,0.921613 -5.461996,3.225645c-2.403278,3.456049 -3.495677,3.686452 -5.680476,1.612823c-1.966319,-2.073629 -0.873919,-3.686452 5.461996,-6.681694c4.369597,-2.304032 7.865274,-4.838468 7.865274,-5.990484c0,-0.921613 1.966319,-1.843226 4.151117,-1.843226c4.588077,0 10.487032,14.054597 7.646794,18.662662c-0.873919,1.612823 0,2.073629 2.621758,1.152016c3.932637,-1.152016 4.151117,0.460806 4.588077,21.197098c0.43696,19.123468 3.058718,45.159034 8.520714,90.087665c0.873919,6.681694 0.43696,9.446533 -1.092399,8.294516c-1.310879,-0.69121 -2.403278,-2.995242 -2.403278,-4.838468c0,-1.843226 -0.873919,-3.225645 -2.184798,-3.225645c-3.058718,0 -2.840238,3.686452 0.43696,9.216129c2.184798,3.686452 1.966319,5.760081 -1.092399,11.289758c-4.588077,8.294516 -4.588077,9.907339 0,8.985726c1.966319,-0.460806 4.806556,-4.838468 6.335915,-9.907339l2.621758,-9.216129l0.21848,8.294516c0.21848,4.608065 0.873919,8.985726 1.747839,9.907339c0.873919,0.921613 3.277198,10.137742 5.461996,20.505888c3.714157,19.353872 10.268552,44.237421 14.20119,54.605566c1.310879,3.225645 1.747839,6.912097 1.310879,8.294516c-0.43696,1.612823 0,3.456049 1.310879,4.147258c1.310879,0.921613 1.747839,5.529678 1.092399,11.520162c-0.873919,6.912097 -0.43696,10.598549 1.310879,11.750565c2.184798,1.382419 2.621758,0.230403 1.747839,-4.377661c-1.966319,-10.828952 1.747839,-6.451291 9.613113,11.980968c6.991355,16.35863 8.957673,24.653146 3.714157,16.589033c-1.747839,-2.534436 -1.966319,-2.073629 -0.873919,2.304032c2.403278,9.216129 6.335915,18.432259 8.083754,18.432259c2.621758,0 2.184798,-3.225645 -0.65544,-6.220887c-1.310879,-1.382419 -1.966319,-3.916855 -1.529359,-5.529678c1.092399,-3.686452 10.487032,12.902581 10.487032,18.662662c0,7.1425 2.403278,11.289758 5.680476,9.907339c1.747839,-0.69121 3.714157,1.152016 5.025036,4.608065c1.092399,3.225645 3.277198,6.451291 4.369597,7.372903c3.277198,1.843226 3.058718,5.299274 -0.21848,6.451291c-1.529359,0.460806 -1.092399,0.69121 0.873919,0.460806c3.932637,-0.69121 17.041427,12.902581 17.041427,17.510646c0,1.382419 0.873919,1.612823 2.184798,0.921613c1.092399,-0.69121 1.747839,0 1.092399,1.612823c-0.65544,1.612823 -0.21848,4.377661 0.873919,6.220887c1.747839,2.764839 2.621758,2.764839 5.243516,0.460806c2.621758,-2.073629 3.714157,-2.073629 4.806556,0c0.873919,1.382419 0.21848,3.456049 -1.310879,4.608065c-1.529359,0.921613 -2.184798,2.534436 -1.310879,3.686452c1.092399,0.921613 2.621758,0.230403 3.495677,-1.382419c1.529359,-2.534436 3.714157,-2.304032 12.016391,0.921613c13.54575,5.529678 15.075109,3.916855 20.974065,-25.344356c6.117436,-29.261211 9.176153,-88.705245 10.050073,-187.317829c0.21848,-41.011776 1.092399,-76.033067 1.747839,-77.876293c1.747839,-4.838468 4.806556,-2.304032 6.335915,5.529678c0.873919,5.068871 2.403278,6.451291 6.117436,6.451291c2.621758,-0.230403 5.243516,1.382419 5.898956,3.225645c1.092399,2.995242 0.65544,2.995242 -2.403278,0.230403c-2.184798,-1.612823 -3.714157,-2.073629 -3.714157,-0.69121c0,1.152016 1.747839,2.995242 3.714157,3.686452c5.680476,2.304032 9.831593,-5.068871 8.739194,-15.206613c-0.65544,-5.299274 0,-10.137742 1.966319,-12.672178c1.747839,-2.534436 2.840238,-2.995242 3.058718,-1.152016c0,4.147258 13.10879,3.686452 13.10879,-0.69121c0,-1.843226 1.092399,-3.456049 2.184798,-3.456049c1.310879,0 2.184798,-1.612823 2.184798,-3.456049c0,-1.843226 1.310879,-3.686452 2.840238,-3.686452c1.310879,-0.230403 4.151117,-0.69121 5.898956,-0.921613c1.747839,-0.230403 4.588077,-0.69121 6.335915,-0.921613c2.403278,-0.230403 2.840238,-3.456049 1.529359,-16.35863c-1.310879,-15.66742 -1.092399,-16.589033 4.369597,-21.888307c3.277198,-3.225645 6.554395,-5.760081 7.646794,-5.760081c0.873919,0 3.277198,-1.843226 5.461996,-3.916855c1.966319,-2.304032 6.991355,-3.916855 11.360952,-3.916855c4.151117,0 6.554395,-0.460806 5.025036,-0.921613c-3.714157,-1.382419 -2.840238,-4.377661 1.747839,-5.760081c8.302234,-2.304032 10.050073,1.612823 9.176153,21.197098c-0.43696,14.515404 0.43696,21.427501 4.151117,31.795646c4.369597,12.441775 4.806556,17.280243 4.806556,77.185083c-0.21848,35.251695 -0.873919,65.204115 -1.966319,66.816938c-0.873919,1.612823 -1.747839,8.294516 -1.966319,14.745807c-0.43696,17.510646 -10.268552,73.729035 -11.797911,68.660164c-0.873919,-2.304032 -1.529359,1.152016 -1.310879,7.372903c0,6.912097 -1.966319,15.206613 -4.806556,21.657904l-4.806556,10.368146l0.873919,-8.52492c1.529359,-12.211371 -1.529359,-10.828952 -4.369597,1.612823c-2.184798,9.907339 -1.966319,10.368146 2.184798,8.985726c4.151117,-1.382419 4.151117,-1.152016 -0.43696,6.912097c-2.621758,4.838468 -4.806556,10.598549 -4.806556,12.902581c0,2.304032 -1.310879,5.760081 -2.621758,7.372903c-1.529359,1.843226 -4.588077,6.220887 -6.554395,9.907339c-4.151117,7.603307 -7.428315,9.676936 -8.957673,5.299274c-0.43696,-1.612823 -0.43696,-0.69121 0,2.073629c0.43696,3.456049 -1.092399,6.681694 -4.151117,9.216129c-2.621758,2.304032 -8.520714,8.064113 -13.32727,12.902581c-6.335915,6.451291 -9.613113,8.294516 -13.10879,7.372903c-3.495677,-1.152016 -3.932637,-0.921613 -1.747839,0.69121c2.403278,1.843226 1.529359,3.686452 -4.369597,9.216129c-4.369597,4.147258 -8.302234,6.220887 -9.394633,5.068871c-2.403278,-2.534436 2.403278,-9.216129 6.772875,-9.216129c1.747839,0 2.403278,-1.152016 1.529359,-2.534436c-0.65544,-1.382419 -3.714157,-1.843226 -6.335915,-1.152016c-3.058718,0.921613 -5.461996,0.230403 -6.117436,-1.612823c-0.43696,-1.382419 -1.747839,-1.843226 -2.840238,-0.921613c-1.092399,0.921613 -0.43696,2.764839 1.092399,3.686452c3.277198,2.073629 1.310879,11.520162 -2.840238,14.745807c-1.310879,1.152016 0,1.152016 3.058718,0.230403c5.461996,-1.612823 5.461996,-1.612823 1.310879,3.456049c-3.277198,3.686452 -4.806556,4.147258 -7.209835,2.304032c-1.529359,-1.612823 -3.714157,-2.073629 -4.369597,-1.152016c-0.873919,0.921613 -0.21848,2.534436 1.310879,3.456049c1.966319,1.382419 2.184798,2.534436 0.43696,3.456049c-1.310879,0.921613 -3.495677,0.921613 -5.025036,0c-1.747839,-1.152016 -1.966319,-0.460806 -1.092399,2.304032c1.092399,3.225645 0.65544,3.916855 -1.747839,2.764839c-1.747839,-0.69121 -3.058718,0 -2.621758,1.382419c0.21848,1.382419 -3.058718,5.068871 -7.209835,7.83371c-4.151117,2.995242 -8.520714,6.220887 -9.831593,7.1425c-5.243516,4.377661 -39.981811,21.427501 -43.477488,21.427501c-1.966319,0 -3.058718,1.152016 -2.403278,2.304032c1.747839,2.995242 -0.21848,2.995242 -5.461996,0c-3.495677,-2.073629 -3.932637,-1.843226 -2.840238,1.612823c1.092399,2.995242 0.65544,3.456049 -2.840238,1.843226c-2.184798,-0.921613 -6.554395,-2.073629 -9.613113,-2.534436c-4.369597,-0.69121 -3.932637,-0.230403 2.184798,2.764839l7.428315,3.686452l-8.520714,4.377661c-10.487032,5.068871 -19.881665,5.299274 -27.30998,0.921613z"/>
   <path stroke="null" fill="#eb6727" id="svg_16" d="m2276.311629,10696.023326c-0.873919,-1.843226 -3.495677,-3.916855 -5.680476,-4.608065c-2.403278,-0.921613 -4.588077,-3.686452 -5.243516,-5.990484c-1.310879,-5.068871 -9.394633,-8.064113 -12.453351,-4.838468c-2.840238,2.995242 -7.865274,2.995242 -7.865274,0c0,-1.152016 1.747839,-2.304032 3.932637,-2.304032c1.966319,-0.230403 6.117436,-1.843226 9.176153,-3.686452l5.461996,-3.456049l-5.898956,0.921613c-4.151117,0.69121 -6.117436,0 -6.117436,-2.073629c0,-1.612823 2.621758,-3.456049 6.117436,-3.916855c3.277198,-0.460806 2.403278,-0.69121 -1.966319,-0.460806c-7.428315,0.69121 -8.520714,0 -13.10879,-9.446533c-2.621758,-5.529678 -5.680476,-10.137742 -6.772875,-10.137742c-0.873919,0 -1.747839,-1.382419 -1.747839,-3.225645c0,-1.843226 -0.65544,-3.686452 -1.529359,-4.147258c-1.092399,-0.230403 -3.714157,-4.838468 -6.335915,-9.907339c-2.621758,-5.068871 -5.680476,-8.985726 -6.991355,-8.755323c-1.310879,0.460806 -1.966319,-0.921613 -1.092399,-2.995242c0.65544,-1.843226 0.21848,-3.225645 -1.092399,-2.764839c-1.092399,0.460806 -5.680476,-2.995242 -9.831593,-7.603307c-6.991355,-7.603307 -7.646794,-9.446533 -7.209835,-19.584275c0.43696,-6.220887 0.21848,-8.52492 -0.21848,-4.838468c-0.43696,3.456049 -1.747839,6.220887 -2.840238,6.220887c-3.277198,0 -4.806556,-9.216129 -2.184798,-12.672178c1.966319,-2.534436 1.966319,-3.456049 0.21848,-3.456049c-1.310879,0 -2.403278,1.152016 -2.403278,2.304032c0,1.382419 -0.873919,2.304032 -1.966319,2.304032c-2.840238,0 -9.831593,-19.814678 -8.083754,-22.80992c0.873919,-1.382419 0.21848,-2.073629 -1.529359,-1.152016c-1.966319,0.69121 -4.369597,-2.304032 -6.991355,-8.755323c-3.277198,-7.83371 -15.512069,-29.722017 -20.100145,-36.173308c-0.43696,-0.69121 -2.184798,0.460806 -4.151117,2.304032c-2.840238,3.225645 -2.840238,4.377661 0.21848,11.980968c3.932637,9.907339 4.151117,11.520162 1.092399,9.676936c-1.092399,-0.69121 -2.184798,0.460806 -2.403278,2.764839c-0.21848,3.686452 -0.43696,3.686452 -1.747839,-0.460806c-1.747839,-5.299274 -6.335915,-16.589033 -9.176153,-22.349114c-1.092399,-2.304032 -1.966319,-5.990484 -1.966319,-8.294516c0,-2.304032 -0.873919,-5.068871 -2.184798,-6.451291c-4.369597,-4.608065 -10.923992,-46.31105 -10.923992,-70.042583c0,-16.819436 6.117436,-47.232663 10.268552,-50.458308c0.873919,-0.69121 3.714157,-5.299274 6.117436,-9.907339c4.369597,-9.216129 6.772875,-10.598549 8.302234,-5.760081c0.43696,1.382419 0.65544,0 0.21848,-3.456049c-0.43696,-3.686452 0.21848,-6.451291 1.529359,-6.451291c1.310879,0 1.747839,-0.921613 0.873919,-2.304032c-1.529359,-2.534436 3.058718,-8.985726 18.570786,-24.883549c6.554395,-6.681694 12.234871,-11.059355 12.671831,-9.676936c0.65544,1.612823 -0.43696,3.686452 -1.966319,4.838468c-1.529359,0.921613 -2.184798,2.534436 -1.310879,3.686452c2.621758,2.534436 6.117436,-4.377661 4.806556,-9.676936c-0.873919,-4.377661 6.335915,-14.97621 10.268552,-14.97621c3.058718,0 1.966319,6.912097 -1.529359,8.294516c-4.369597,1.843226 -4.151117,5.529678 0,5.529678c4.369597,0 8.520714,-11.059355 5.680476,-14.745807c-1.310879,-1.612823 -0.873919,-4.147258 1.310879,-7.1425c3.277198,-4.608065 3.277198,-4.608065 2.184798,0.460806c-1.092399,4.838468 -0.873919,5.068871 5.898956,2.073629c4.806556,-2.073629 6.991355,-4.608065 7.428315,-8.985726c0.65544,-4.838468 2.403278,-6.681694 7.646794,-8.064113c5.025036,-1.382419 8.083754,-4.147258 10.923992,-10.368146c2.403278,-5.068871 5.680476,-8.52492 8.083754,-8.52492c5.461996,0 9.176153,-5.529678 8.302234,-12.441775c-1.092399,-9.446533 20.537105,-28.109195 29.494778,-25.574759c3.932637,1.152016 4.151117,0.921613 1.529359,-0.921613c-2.840238,-2.304032 -2.840238,-2.764839 0,-4.838468c1.747839,-1.382419 5.898956,-2.995242 9.394633,-3.916855c3.277198,-0.69121 5.898956,-2.073629 5.898956,-3.225645c0,-1.152016 1.966319,-2.073629 4.369597,-2.073629c2.403278,0 4.369597,1.382419 4.369597,2.995242c0,2.073629 0.43696,2.073629 1.747839,-0.230403c2.184798,-3.456049 28.402379,-4.147258 34.519815,-0.921613c2.403278,1.152016 11.142472,5.760081 19.444706,9.907339c8.520714,4.377661 15.730548,8.294516 16.385988,8.985726c0.65544,0.69121 4.806556,4.147258 9.394633,7.603307c4.369597,3.456049 8.083754,8.52492 8.083754,10.828952c0,2.995242 1.092399,3.916855 3.058718,3.225645c4.369597,-1.843226 19.444706,13.132984 25.562141,25.574759c2.840238,5.760081 6.117436,10.368146 6.991355,10.368146c0.873919,0 1.092399,3.456049 0.43696,7.83371c-1.529359,7.603307 1.747839,13.132984 5.025036,9.446533c0.873919,-0.921613 0.21848,-2.304032 -1.092399,-2.764839c-3.277198,-1.152016 -3.714157,-7.603307 -0.65544,-7.603307c1.310879,0 2.184798,1.612823 2.184798,3.456049c0,1.843226 0.873919,3.456049 1.747839,3.456049c2.403278,0 7.646794,11.750565 5.898956,13.363388c-0.43696,0.69121 -3.058718,-0.69121 -5.243516,-2.764839c-2.403278,-2.304032 -5.461996,-3.456049 -6.554395,-2.534436c-3.932637,2.304032 -2.621758,5.760081 1.966319,5.760081c2.621758,0 7.209835,1.843226 10.268552,3.916855c5.680476,3.916855 5.898956,3.916855 4.369597,-0.230403c-1.310879,-3.686452 -1.092399,-3.916855 1.747839,-1.382419c1.966319,1.612823 2.840238,4.608065 2.184798,6.451291c-0.65544,2.073629 0,2.764839 1.966319,2.073629c5.461996,-2.304032 5.898956,1.382419 0.873919,6.912097c-2.621758,2.995242 -3.495677,5.299274 -2.184798,5.299274c1.529359,0 4.369597,-2.073629 6.335915,-4.377661c1.966319,-2.534436 4.588077,-3.916855 6.117436,-3.456049c1.529359,0.69121 4.806556,-1.382419 7.209835,-4.608065c2.403278,-3.225645 5.461996,-5.990484 6.772875,-5.990484c1.310879,0 1.747839,-1.612823 0.873919,-3.686452c-1.092399,-2.995242 -0.65544,-3.456049 2.840238,-1.382419c5.243516,2.995242 11.797911,-0.460806 11.797911,-5.990484c-0.21848,-3.686452 -0.21848,-3.686452 -2.403278,0.230403c-2.184798,4.147258 -8.520714,5.529678 -8.520714,1.843226c0,-3.456049 26.436061,-33.408469 34.519815,-38.938147c6.772875,-5.068871 6.991355,-5.068871 6.991355,-0.460806c0,2.764839 -1.529359,4.608065 -3.495677,4.608065c-4.806556,0 -12.890311,7.372903 -12.890311,11.520162c0,1.843226 -2.184798,4.377661 -4.806556,5.760081c-2.840238,1.152016 -5.025036,2.995242 -5.025036,4.147258c0,1.152016 2.184798,1.612823 5.025036,1.152016c3.277198,-0.460806 6.117436,-3.916855 9.176153,-10.598549c2.403278,-5.529678 5.461996,-9.216129 6.991355,-8.755323c1.529359,0.69121 4.806556,-0.69121 7.646794,-3.225645c4.151117,-3.686452 4.588077,-5.068871 2.403278,-8.755323c-2.184798,-3.686452 -1.966319,-5.299274 1.310879,-8.294516c2.184798,-2.073629 4.588077,-3.686452 5.461996,-3.686452c0.873919,0 4.588077,-2.073629 8.083754,-4.838468c3.495677,-2.534436 6.335915,-4.147258 6.335915,-3.225645c0,0.69121 2.184798,-0.230403 4.806556,-2.073629c2.621758,-2.073629 6.991355,-3.686452 9.394633,-3.686452c3.714157,0 3.932637,0.460806 1.092399,2.534436c-2.621758,2.073629 -2.621758,2.304032 0.65544,1.152016c2.184798,-0.69121 5.025036,-1.382419 6.117436,-1.382419c1.310879,0 1.529359,-0.921613 0.873919,-2.304032c-0.873919,-1.382419 2.403278,-2.304032 8.083754,-2.304032c6.991355,0 8.520714,0.69121 6.117436,2.304032c-2.403278,1.612823 -0.873919,2.073629 5.461996,1.152016c5.680476,-0.921613 10.705512,-0.230403 14.20119,2.073629c3.058718,1.843226 9.613113,5.529678 14.856629,8.294516c5.025036,2.764839 9.176153,5.990484 9.176153,7.1425c0,1.152016 0.873919,2.073629 2.184798,2.073629c3.058718,0 12.453351,8.294516 27.74694,25.344356c10.050073,10.828952 13.54575,16.128226 12.671831,19.584275c-0.65544,2.534436 -0.43696,3.225645 0.21848,1.843226c2.403278,-5.529678 5.680476,-3.225645 4.369597,2.995242c-0.873919,3.686452 -0.65544,5.299274 0.65544,4.377661c2.621758,-1.612823 8.520714,3.916855 14.20119,13.363388c3.932637,6.681694 2.840238,12.211371 -1.092399,6.220887c-1.966319,-2.764839 -2.184798,-2.764839 -1.092399,0.69121c0.65544,2.304032 1.310879,5.990484 1.310879,7.83371c0,2.995242 0.65544,2.995242 3.495677,0.460806c2.840238,-2.304032 3.714157,-2.304032 5.461996,0.460806c0.873919,1.843226 1.310879,5.068871 0.65544,7.1425c-0.873919,2.995242 -0.21848,3.686452 1.966319,2.764839c1.529359,-0.460806 4.151117,0.230403 5.243516,1.843226c4.369597,5.760081 16.167508,29.95242 15.075109,31.104437c-2.840238,2.995242 -7.428315,-2.073629 -8.739194,-9.446533c-1.966319,-10.828952 -6.772875,-11.059355 -5.025036,-0.230403c1.310879,8.755323 5.898956,14.97621 11.142472,14.97621c4.151117,0 6.554395,7.603307 4.369597,14.285001c-1.310879,4.608065 -1.092399,4.838468 2.184798,1.382419c1.966319,-2.073629 3.495677,-5.299274 3.495677,-6.912097c0.21848,-1.612823 1.529359,-0.460806 3.058718,2.764839c1.747839,3.225645 2.621758,6.451291 2.184798,7.1425c-0.43696,0.69121 1.092399,3.225645 3.495677,5.529678c3.058718,2.764839 3.932637,5.990484 3.058718,11.289758c-0.65544,5.299274 -0.43696,5.990484 0.873919,2.764839c1.310879,-3.456049 2.403278,-3.686452 3.495677,-1.612823c1.092399,1.612823 0.65544,4.147258 -0.65544,5.529678c-3.058718,3.225645 -3.058718,8.52492 -0.21848,8.52492c1.310879,0 2.184798,-1.843226 2.184798,-3.916855c0.21848,-3.225645 0.873919,-2.764839 3.058718,1.612823c1.747839,3.225645 2.621758,6.681694 1.966319,7.83371c-0.873919,1.152016 0,3.225645 1.747839,4.608065c1.747839,1.382419 4.588077,6.220887 6.554395,10.598549c2.621758,6.451291 2.840238,9.216129 0.873919,13.132984c-1.529359,2.995242 -3.277198,4.608065 -3.932637,3.686452c-0.873919,-0.69121 -1.529359,0.230403 -1.529359,2.534436c0,2.073629 0.873919,3.456049 1.966319,2.764839c1.092399,-0.69121 2.403278,0.230403 3.277198,2.073629c0.65544,1.843226 2.184798,3.456049 3.495677,3.456049c2.840238,0 10.923992,8.52492 10.923992,11.520162c0,1.382419 -1.092399,2.304032 -2.184798,2.304032c-1.310879,0 -1.966319,-0.69121 -1.747839,-1.612823c0.43696,-1.152016 -0.21848,-1.843226 -1.529359,-1.843226c-3.277198,0 -3.277198,6.451291 0,10.368146c4.806556,5.760081 12.016391,20.736291 12.016391,24.883549c0,2.304032 1.092399,5.299274 2.621758,6.912097c1.529359,1.612823 1.747839,2.764839 0.43696,2.764839c-1.310879,0 -4.588077,-4.608065 -7.428315,-10.368146c-3.277198,-6.451291 -6.335915,-10.137742 -8.083754,-9.446533c-1.529359,0.69121 -3.932637,-0.921613 -5.243516,-3.456049c-1.310879,-2.534436 -3.495677,-4.147258 -5.025036,-3.686452c-2.184798,0.921613 -2.403278,-0.921613 -1.092399,-8.294516c0.873919,-5.299274 1.092399,-10.137742 0.65544,-10.598549c-0.43696,-0.460806 -0.873919,0.460806 -0.873919,2.073629c0,2.073629 -1.747839,1.382419 -5.025036,-1.843226l-5.243516,-5.068871l-3.932637,4.608065c-2.184798,2.534436 -2.840238,4.608065 -1.529359,4.608065c1.529359,0 2.621758,2.534436 2.621758,5.760081c0,3.225645 1.747839,6.681694 4.369597,8.064113c2.840238,1.612823 4.369597,4.838468 4.369597,9.216129c0,3.916855 1.092399,6.912097 2.184798,6.912097c1.310879,0 2.184798,2.764839 2.184798,6.451291c0,4.838468 0.43696,5.529678 2.184798,2.764839c1.529359,-2.534436 2.184798,-1.382419 2.184798,5.068871c0,4.608065 -1.092399,9.216129 -2.403278,9.907339c-1.310879,0.921613 -3.058718,3.916855 -4.151117,6.681694c-1.747839,4.608065 -1.966319,4.377661 -1.966319,-1.152016c-0.21848,-5.068871 -1.092399,-6.220887 -5.680476,-5.760081c-6.117436,0.230403 -6.772875,1.382419 -2.840238,5.529678c1.529359,1.612823 2.621758,8.294516 2.403278,15.897823c-0.21848,11.750565 4.151117,29.95242 8.302234,32.947662c0.65544,0.69121 2.184798,4.838468 2.840238,9.216129c1.092399,5.529678 0.873919,7.1425 -0.43696,4.838468c-1.747839,-2.534436 -2.403278,-2.073629 -3.058718,2.304032c-0.65544,5.068871 -1.092399,4.838468 -4.806556,-3.225645c-2.403278,-5.068871 -5.461996,-9.446533 -7.209835,-10.137742c-1.529359,-0.69121 -2.184798,-2.073629 -1.529359,-3.225645c1.747839,-2.995242 -1.092399,-11.289758 -4.151117,-11.289758c-1.747839,0 -1.747839,0.69121 0.21848,2.764839c3.932637,4.147258 3.058718,6.220887 -1.966319,4.838468c-2.621758,-0.921613 -5.461996,0 -6.554395,1.843226c-2.840238,4.838468 -2.403278,8.985726 1.310879,8.985726c3.714157,0 4.806556,14.97621 1.092399,17.280243c-1.092399,0.69121 -1.529359,-2.073629 -1.092399,-6.912097c0.873919,-6.912097 0.43696,-8.064113 -2.621758,-7.603307c-3.058718,0.460806 -3.714157,-0.69121 -3.277198,-6.451291c0.43696,-4.147258 -0.65544,-8.294516 -2.621758,-9.907339c-3.277198,-2.764839 -2.403278,-10.368146 0.873919,-8.294516c1.092399,0.69121 1.310879,-0.921613 0.65544,-3.456049c-0.65544,-2.534436 0,-4.608065 1.310879,-4.608065c1.310879,0 2.403278,-2.304032 2.403278,-5.068871c-0.21848,-5.990484 -4.806556,-13.363388 -8.520714,-13.363388c-1.310879,0 -2.403278,-0.921613 -2.403278,-2.304032c0,-1.152016 -1.747839,-2.304032 -3.714157,-2.304032c-3.714157,0.230403 -3.714157,0.460806 0,3.225645c3.277198,2.764839 3.932637,5.990484 3.495677,17.971452c-0.43696,7.83371 -1.529359,15.66742 -2.403278,17.280243c-1.092399,1.382419 -1.747839,7.603307 -1.310879,13.593791c0.43696,7.372903 -0.21848,11.059355 -2.184798,11.750565c-1.966319,0.921613 -2.403278,-0.460806 -1.529359,-4.377661c0.65544,-2.764839 0.21848,-8.294516 -1.092399,-12.211371c-2.184798,-6.681694 -2.184798,-6.681694 -1.310879,1.843226c1.310879,10.598549 -0.21848,15.437017 -4.588077,15.437017c-1.747839,0 -2.403278,1.152016 -1.747839,2.304032c1.310879,2.304032 5.025036,1.843226 13.76423,-1.612823c1.310879,-0.69121 2.621758,0.460806 2.621758,2.764839c0,2.073629 3.495677,7.603307 7.646794,11.980968c4.151117,4.377661 7.646794,9.907339 7.646794,11.980968c0,2.073629 1.092399,5.068871 2.621758,6.681694c1.966319,2.073629 1.966319,2.764839 -0.21848,2.764839c-1.966319,0 -2.403278,1.843226 -1.529359,5.529678c0.65544,3.225645 0.65544,7.372903 0,9.216129c-1.529359,3.916855 -7.428315,5.068871 -7.428315,1.382419c0,-1.152016 1.092399,-2.304032 2.184798,-2.304032c1.310879,0 2.184798,-2.304032 2.184798,-5.068871c0,-4.608065 -0.43696,-4.377661 -4.369597,2.304032c-2.403278,3.916855 -5.461996,7.372903 -6.772875,7.372903c-1.747839,0 -1.747839,-0.921613 0.21848,-3.456049c2.840238,-3.456049 1.747839,-4.377661 -4.806556,-3.686452c-3.932637,0.460806 -5.461996,-2.995242 -2.184798,-5.068871c0.873919,-0.460806 0.21848,-0.460806 -1.529359,0c-4.588077,1.152016 -8.957673,-6.681694 -7.646794,-13.593791c0.65544,-3.916855 0.21848,-6.451291 -1.092399,-6.451291c-1.310879,0 -2.403278,1.843226 -2.621758,4.147258c0,2.764839 -0.65544,2.304032 -2.403278,-1.843226c-1.310879,-3.225645 -2.184798,-6.681694 -1.966319,-8.064113c0.21848,-1.152016 -0.873919,-3.225645 -2.621758,-4.608065c-5.461996,-4.147258 -17.041427,-27.878791 -15.512069,-32.02605c0.873919,-2.304032 0,-4.147258 -2.184798,-5.068871c-5.243516,-2.073629 -10.923992,-14.285001 -8.302234,-17.741049c1.092399,-1.612823 2.840238,-5.299274 3.714157,-8.52492c1.529359,-5.068871 1.310879,-5.299274 -1.966319,-1.843226c-1.966319,2.073629 -3.495677,5.299274 -3.495677,6.912097c-0.21848,4.377661 -4.806556,-4.838468 -5.461996,-10.598549c-0.873919,-8.064113 -1.092399,-8.294516 -4.369597,-8.294516c-2.403278,0 -2.840238,-1.843226 -2.184798,-7.372903c0.873919,-5.529678 0.65544,-6.220887 -0.65544,-3.225645c-1.310879,3.225645 -2.403278,3.686452 -3.495677,1.612823c-0.873919,-1.382419 -0.65544,-3.916855 0.43696,-5.529678c1.092399,-1.612823 2.840238,-5.299274 3.714157,-8.52492c1.529359,-5.068871 1.310879,-5.299274 -1.966319,-1.843226c-1.966319,2.073629 -3.495677,5.299274 -3.495677,6.912097c-0.21848,1.612823 -1.529359,0.460806 -3.058718,-2.534436c-1.747839,-3.225645 -2.621758,-6.912097 -1.966319,-8.52492c0.43696,-1.612823 -0.873919,-4.147258 -3.277198,-5.760081c-6.991355,-5.529678 -8.957673,-11.289758 -5.680476,-17.971452c4.588077,-8.985726 3.714157,-14.054597 -1.092399,-6.451291l-3.932637,6.451291l-5.898956,-10.598549c-3.714157,-6.681694 -5.461996,-12.441775 -4.806556,-15.66742c0.65544,-2.764839 0.65544,-3.686452 0,-2.073629c-1.529359,3.456049 -5.243516,1.382419 -4.369597,-2.534436c0.21848,-1.612823 0.21848,-2.073629 -0.21848,-0.921613c-1.747839,2.764839 -5.025036,1.843226 -5.025036,-1.843226c0,-1.612823 -1.529359,-4.147258 -3.495677,-5.299274c-1.966319,-1.152016 -3.058718,-3.456049 -2.184798,-4.838468c0.873919,-1.382419 2.403278,-2.073629 3.495677,-1.382419c1.092399,0.69121 2.403278,0.230403 3.277198,-1.152016c0.65544,-1.152016 -0.65544,-2.304032 -3.058718,-2.304032c-2.184798,0 -4.588077,-0.69121 -5.243516,-1.612823c-0.43696,-1.152016 -0.43696,-0.230403 0,1.612823c0.43696,1.843226 -1.310879,0.921613 -3.932637,-2.304032c-23.377343,-29.722017 -55.275399,-64.512906 -58.989557,-64.512906c-1.092399,0 -1.966319,-0.921613 -1.966319,-2.304032c0,-1.152016 1.529359,-2.304032 3.277198,-2.304032c1.747839,0 3.277198,1.843226 3.277198,3.916855c0,3.225645 0.65544,3.225645 2.621758,1.152016c2.184798,-2.304032 2.184798,-3.456049 -0.43696,-5.299274c-1.747839,-1.152016 -5.025036,-1.612823 -6.991355,-1.152016c-2.184798,0.460806 -7.428315,-0.921613 -12.016391,-3.456049c-4.369597,-2.304032 -11.360952,-5.068871 -15.293589,-5.760081c-5.243516,-1.152016 -7.209835,-2.764839 -7.209835,-5.990484c0,-2.534436 -1.092399,-4.147258 -2.621758,-3.456049c-4.151117,1.382419 -4.151117,35.482098 0,44.698227c3.495677,7.83371 1.966319,13.593791 -1.966319,7.603307c-1.966319,-2.764839 -2.184798,-2.764839 -1.529359,-0.230403c0.43696,1.843226 5.461996,4.608065 10.923992,6.451291c8.520714,2.534436 10.487032,4.377661 12.453351,10.598549c2.184798,7.1425 0.43696,25.344356 -2.840238,28.570001c-2.621758,2.764839 -1.310879,-13.132984 1.529359,-17.741049c1.747839,-3.456049 1.966319,-5.299274 0.21848,-6.451291c-1.310879,-0.921613 -2.840238,-3.225645 -3.495677,-5.068871c-0.65544,-1.843226 -0.873919,5.529678 -0.873919,16.819436c0.21848,11.059355 -0.21848,21.197098 -0.873919,22.579517c-0.873919,1.152016 -4.806556,2.534436 -8.957673,2.764839c-6.772875,0.460806 -7.428315,1.152016 -7.209835,7.372903c0.21848,10.598549 -1.092399,13.363388 -10.050073,20.736291c-4.588077,3.916855 -7.646794,8.064113 -6.991355,9.216129c0.65544,1.382419 0.21848,1.612823 -0.65544,0.460806c-3.058718,-2.764839 -9.831593,5.760081 -9.831593,12.672178c0,5.068871 -1.747839,7.603307 -7.646794,11.289758c-4.151117,2.764839 -7.646794,5.990484 -7.646794,7.603307c0,4.377661 -11.142472,14.285001 -19.444706,17.280243c-8.957673,2.995242 -8.957673,2.995242 -8.957673,0.230403c0,-1.152016 3.932637,-2.995242 8.739194,-3.686452c4.806556,-0.921613 8.083754,-2.304032 7.428315,-3.456049c-1.310879,-2.534436 -8.957673,-2.764839 -10.050073,-0.230403c-0.21848,0.921613 -3.932637,3.456049 -7.646794,5.760081c-5.461996,3.225645 -8.083754,3.456049 -11.579431,1.612823c-6.335915,-3.456049 -9.176153,-10.828952 -7.646794,-19.123468c1.092399,-6.681694 1.092399,-6.912097 -1.747839,-3.225645c-2.840238,3.686452 -3.277198,3.456049 -5.898956,-2.995242c-1.529359,-3.686452 -3.495677,-6.912097 -4.588077,-6.912097c-1.092399,0 -1.966319,-1.382419 -1.966319,-2.995242c0,-3.686452 -15.949028,-36.403711 -22.284944,-45.850244c-2.403278,-3.686452 -3.277198,-6.451291 -2.184798,-6.451291c1.310879,0 2.621758,1.382419 3.277198,2.995242c1.747839,5.068871 3.277198,0.69121 2.184798,-5.990484c-0.873919,-5.299274 -1.747839,-5.760081 -4.369597,-3.456049c-2.403278,2.073629 -3.495677,2.073629 -5.243516,-0.69121c-0.873919,-1.843226 -1.310879,-4.838468 -0.65544,-6.912097c0.65544,-2.534436 -0.21848,-3.686452 -2.403278,-3.456049c-2.403278,0 -6.335915,-4.838468 -10.705512,-13.132984c-3.932637,-7.603307 -8.520714,-14.515404 -10.050073,-15.437017c-1.529359,-0.921613 -2.184798,-3.456049 -1.529359,-5.529678c0.873919,-2.073629 0.65544,-3.456049 -0.21848,-3.225645c-2.403278,0.921613 -11.360952,-8.064113 -11.360952,-11.059355c0,-1.612823 -1.529359,-3.456049 -3.495677,-4.147258c-2.403278,-0.921613 -3.058718,-3.225645 -1.966319,-7.83371c1.310879,-7.1425 -3.714157,-14.745807 -6.554395,-9.676936c-0.65544,1.152016 0.21848,2.304032 1.966319,2.304032c1.966319,0 3.495677,1.612823 3.495677,3.456049c0,5.760081 -3.932637,3.916855 -7.646794,-3.225645c-1.747839,-3.686452 -3.932637,-7.1425 -4.806556,-7.603307c-1.092399,-0.230403 -4.588077,-4.608065 -7.865274,-9.216129c-3.277198,-4.838468 -7.428315,-8.755323 -8.957673,-8.755323c-3.714157,0 -5.898956,-5.529678 -4.369597,-10.828952c0.873919,-2.995242 0.65544,-3.225645 -0.65544,-1.152016c-1.747839,2.304032 -3.495677,1.843226 -8.520714,-2.304032c-8.083754,-6.451291 -9.394633,-8.755323 -8.083754,-12.672178c0.65544,-1.612823 0.21848,-2.995242 -1.092399,-2.995242c-1.310879,0 -2.621758,0.921613 -3.058718,2.304032c-0.65544,2.073629 -18.352307,-2.764839 -26.217581,-6.912097c-3.058718,-1.843226 -3.495677,-1.152016 -2.621758,6.451291c2.621758,20.275485 7.865274,49.767099 10.050073,55.527179c1.310879,3.225645 3.058718,8.064113 4.151117,10.598549c0.873919,2.534436 2.840238,8.755323 4.369597,13.824194c1.310879,5.068871 4.369597,12.441775 6.554395,16.35863c2.403278,3.916855 4.151117,8.985726 4.151117,11.059355c0,2.073629 0.65544,3.686452 1.747839,3.686452c3.714157,0 6.554395,11.750565 4.588077,19.123468c-2.621758,9.907339 -2.621758,9.907339 2.621758,3.686452l4.369597,-5.529678l-1.529359,5.529678c-1.092399,4.377661 -0.65544,5.299274 1.966319,4.147258c2.403278,-0.921613 3.058718,-0.460806 2.403278,1.612823c-0.65544,1.843226 0.873919,4.838468 3.495677,6.681694c3.058718,2.073629 3.932637,4.608065 3.058718,7.603307c-1.092399,3.456049 -0.873919,3.686452 1.092399,0.921613c1.747839,-2.764839 2.403278,-2.534436 3.714157,1.152016c1.092399,2.534436 3.058718,5.990484 4.588077,7.83371c1.747839,1.612823 2.403278,4.838468 1.747839,7.1425c-0.873919,2.995242 -0.21848,3.916855 2.621758,3.686452c2.840238,-0.230403 3.714157,1.152016 3.277198,5.529678c-0.21848,3.916855 0.21848,4.838468 1.529359,2.534436c2.403278,-3.916855 5.025036,0.230403 3.277198,5.299274c-0.873919,2.534436 -0.43696,3.456049 1.529359,2.534436c3.932637,-1.382419 8.739194,2.764839 14.419669,12.672178c2.621758,4.608065 7.428315,10.828952 10.487032,13.824194c7.646794,7.603307 11.579431,14.97621 6.991355,13.132984c-2.403278,-0.921613 -2.840238,0 -2.184798,3.225645c1.310879,5.068871 4.151117,5.760081 5.680476,1.612823c0.65544,-2.304032 1.747839,-2.304032 4.588077,0.230403c1.966319,1.843226 3.058718,4.838468 2.403278,6.451291c-0.65544,2.073629 0,2.995242 1.529359,2.534436c2.840238,-1.152016 10.487032,4.838468 10.487032,7.83371c0,1.152016 -1.092399,1.843226 -2.403278,1.843226c-1.092399,0 -1.747839,-0.921613 -1.092399,-2.073629c0.65544,-1.152016 0,-2.534436 -1.747839,-3.225645c-3.714157,-1.612823 -3.277198,3.456049 1.747839,20.045081c4.151117,13.363388 4.151117,15.206613 1.310879,15.206613c-1.092399,0 -2.184798,-3.686452 -2.184798,-8.064113c0,-4.377661 -1.092399,-8.064113 -2.184798,-8.064113c-1.310879,0 -1.747839,3.456049 -0.873919,9.216129l1.529359,9.216129l-9.394633,0c-8.957673,0 -9.176153,0.230403 -8.302234,6.451291c0.65544,3.456049 1.529359,7.603307 1.966319,9.446533c0.43696,1.612823 -0.43696,3.686452 -1.966319,4.147258c-1.747839,0.69121 -2.184798,-0.230403 -1.092399,-2.995242c1.310879,-3.686452 1.092399,-3.916855 -1.966319,-0.921613c-1.966319,1.843226 -3.058718,4.377661 -2.403278,5.299274c0.65544,1.152016 -1.092399,4.608065 -3.932637,7.603307c-4.151117,4.838468 -4.588077,6.220887 -1.966319,7.83371c5.461996,3.686452 -5.898956,17.971452 -17.478387,21.427501c-5.461996,1.843226 -10.705512,2.304032 -11.797911,1.152016c-2.840238,-2.534436 -7.865274,-2.304032 -7.865274,0.230403c0,1.152016 1.747839,2.534436 3.932637,2.995242c2.621758,0.69121 1.747839,1.612823 -3.277198,3.456049c-5.680476,2.073629 -6.772875,2.073629 -5.898956,-0.460806c0.873919,-2.304032 -0.21848,-2.764839 -3.714157,-1.843226c-2.840238,0.921613 -3.932637,1.843226 -2.403278,2.534436c1.529359,0.460806 2.184798,1.843226 1.310879,2.995242c-1.747839,2.995242 -6.991355,2.534436 -8.957673,-0.921613z"/>
   <path stroke="null" fill="#eb6727" id="svg_17" d="m2821.855788,10693.258487c-2.184798,-2.764839 -1.966319,-4.608065 1.092399,-9.676936c3.714157,-5.760081 4.151117,-5.990484 5.461996,-1.843226c0.873919,2.534436 1.529359,0 1.529359,-6.681694c0,-5.990484 0.873919,-11.750565 2.184798,-12.441775c1.310879,-0.921613 2.840238,-5.299274 3.495677,-9.676936c0.65544,-4.377661 2.403278,-12.672178 3.714157,-18.432259c1.310879,-5.760081 3.932637,-20.275485 5.680476,-32.256453c1.747839,-11.980968 4.588077,-29.722017 6.335915,-39.16855c1.747839,-9.446533 3.714157,-26.496372 4.369597,-38.016534c0.43696,-11.289758 1.966319,-38.246937 3.277198,-59.904841c1.310879,-21.427501 1.747839,-44.928631 1.092399,-51.840728c-1.966319,-21.657904 -3.058718,-45.61984 -4.151117,-92.161294c-0.873919,-38.938147 -0.873919,-41.472582 0.873919,-18.662662c2.621758,35.251695 4.369597,37.78613 2.840238,4.377661c-1.092399,-20.275485 -0.65544,-27.878791 1.529359,-30.64363c3.714157,-4.608065 1.092399,-7.372903 -3.277198,-3.456049c-5.461996,4.838468 -3.714157,-1.382419 2.403278,-8.52492c5.025036,-5.529678 5.680476,-5.760081 5.243516,-1.843226c-0.873919,8.294516 0.21848,11.980968 1.966319,7.1425c1.310879,-3.916855 2.184798,-3.225645 6.772875,4.608065c2.840238,4.838468 6.554395,9.907339 8.083754,10.828952c4.369597,2.764839 3.277198,5.990484 -1.747839,4.608065c-2.403278,-0.69121 -5.680476,-4.608065 -7.209835,-8.52492c-2.621758,-6.912097 -2.840238,-6.912097 -4.369597,-1.843226c-1.310879,3.916855 -0.43696,6.681694 3.495677,10.828952c2.840238,3.225645 6.335915,5.760081 7.865274,5.760081c1.310879,0 2.621758,1.382419 2.840238,2.995242c0,1.382419 0.873919,0.69121 1.966319,-1.843226c1.529359,-4.377661 1.747839,-4.377661 3.277198,-0.230403c1.092399,2.304032 0.65544,4.838468 -0.43696,5.760081c-1.310879,0.69121 -3.058718,3.916855 -3.932637,7.1425l-1.747839,5.760081l5.025036,-5.760081c3.058718,-3.916855 4.369597,-4.377661 3.495677,-1.843226c-0.65544,2.304032 0.21848,7.83371 1.747839,12.672178l2.840238,8.755323l2.621758,-12.211371c1.310879,-6.681694 2.403278,-14.285001 2.403278,-16.589033c0,-2.534436 1.092399,-4.608065 2.184798,-4.608065c1.310879,0 2.184798,-5.990484 2.184798,-13.593791c0,-7.603307 0.873919,-14.515404 2.184798,-15.206613c3.058718,-2.073629 13.54575,5.990484 12.234871,9.446533c-0.65544,2.073629 0.43696,3.225645 3.058718,3.225645c2.184798,0 4.806556,1.152016 5.461996,2.304032c2.403278,3.916855 11.797911,2.534436 14.20119,-2.073629c1.092399,-2.534436 2.184798,-8.985726 2.184798,-14.285001c0,-5.299274 0.65544,-9.216129 1.310879,-8.294516c0.65544,0.69121 1.310879,6.912097 1.310879,13.593791c-0.21848,11.750565 0,11.980968 2.840238,6.451291c3.058718,-5.760081 3.058718,-5.760081 3.495677,3.456049c0.21848,8.064113 0.43696,8.52492 1.966319,3.456049l1.747839,-5.760081l1.529359,5.299274c1.747839,5.760081 5.461996,6.912097 5.461996,1.612823c0,-1.843226 2.621758,-5.068871 6.117436,-6.912097c3.277198,-2.073629 3.932637,-2.995242 1.529359,-2.304032c-3.277198,1.152016 -2.621758,-0.69121 3.277198,-7.372903c4.151117,-4.838468 8.520714,-8.985726 9.394633,-9.446533c0.873919,-0.460806 0.21848,-2.073629 -1.529359,-3.686452c-3.058718,-2.073629 -3.058718,-5.529678 -1.092399,-24.422743c1.310879,-11.980968 1.966319,-27.417985 1.529359,-34.099679c-0.65544,-6.451291 -0.21848,-11.980968 0.873919,-11.980968c0.873919,0 1.747839,1.843226 1.966319,4.147258c0,3.225645 0.43696,3.225645 1.747839,-0.69121c1.529359,-3.686452 2.403278,-1.612823 4.369597,9.216129c1.529359,7.603307 3.495677,17.049839 4.588077,20.736291c1.092399,3.916855 2.403278,16.589033 3.277198,28.570001c0.873919,11.980968 2.403278,24.19234 3.495677,27.187582c1.092399,3.225645 2.184798,15.897823 2.403278,28.570001c0.21848,12.672178 1.092399,21.888307 1.966319,20.275485c0.873919,-1.382419 1.310879,24.883549 1.310879,58.752825c0,33.638872 -0.65544,60.365647 -1.310879,59.213631c-0.65544,-1.152016 -1.529359,8.294516 -1.747839,21.197098c-0.21848,12.672178 -1.529359,24.19234 -2.621758,25.344356c-1.310879,1.382419 -2.403278,5.760081 -2.403278,9.907339c0,3.916855 -2.403278,17.280243 -5.243516,29.261211c-3.058718,12.211371 -6.117436,26.957178 -6.772875,32.717259c-0.873919,5.760081 -2.403278,11.059355 -3.495677,11.750565c-1.092399,0.69121 -1.966319,2.995242 -1.966319,5.068871c0,2.073629 -1.966319,7.372903 -4.588077,11.750565c-3.714157,6.220887 -5.025036,7.1425 -6.772875,4.608065c-1.529359,-2.304032 -1.747839,-1.843226 -0.65544,1.843226c0.873919,3.456049 -0.65544,8.755323 -4.806556,16.128226c-3.277198,5.990484 -7.209835,13.132984 -8.302234,15.66742c-1.747839,3.225645 -4.151117,4.377661 -8.739194,4.147258c-6.772875,-0.69121 -16.167508,4.838468 -13.54575,7.83371c0.873919,0.921613 2.840238,0.230403 4.151117,-1.152016c3.058718,-3.225645 6.117436,-3.686452 6.117436,-0.921613c0,2.304032 -14.20119,9.676936 -18.789266,9.676936c-1.747839,0 -2.840238,0.921613 -2.184798,2.073629c0.873919,1.152016 -3.277198,4.377661 -8.739194,7.1425c-8.302234,4.377661 -10.487032,4.608065 -12.016391,2.073629c-0.873919,-1.612823 -2.403278,-2.304032 -3.495677,-1.382419c-0.873919,1.152016 -0.21848,2.764839 1.529359,3.916855c1.747839,1.152016 2.621758,2.534436 2.184798,2.995242c-4.151117,3.686452 -38.233972,20.045081 -41.729649,20.045081c-2.403278,0 -3.932637,0.921613 -3.277198,1.843226c1.092399,2.073629 -8.520714,6.220887 -20.537105,8.52492c-4.151117,0.921613 -9.176153,2.073629 -11.142472,2.534436c-1.966319,0.460806 -4.806556,-0.460806 -6.335915,-2.534436z"/>
  </g>
 </g>
</svg>