<svg width="2482" height="1222" xmlns="http://www.w3.org/2000/svg" preserveAspectRatio="xMidYMid meet">
 <metadata>Created by potrace 1.15, written by Peter Selinger 2001-2017</metadata>

 <g>
  <title>background</title>
  <rect fill="none" id="canvas_background" height="402" width="582" y="-1" x="-1"/>
 </g>
 <g>
  <title>Layer 1</title>
  <g id="svg_1" fill="#000000" transform="translate(0,1222) scale(0.10000000149011612,-0.10000000149011612) ">
   <path fill="#5f2519" id="svg_2" d="m13095,11195c-130,-18 -267,-54 -423,-110c-76,-27 -274,-130 -363,-188c-350,-228 -622,-563 -749,-924c-115,-324 -136,-664 -64,-1022c33,-165 126,-446 205,-619c16,-35 29,-65 29,-67c0,-2 14,-34 31,-72c17,-37 39,-86 49,-108c61,-137 118,-262 158,-345c24,-52 53,-115 64,-140c77,-179 504,-1032 618,-1235c40,-71 80,-143 88,-160c9,-16 22,-39 30,-50c13,-19 14,-19 7,5c-14,50 -147,344 -271,597c-210,430 -304,628 -340,716c-13,31 -36,85 -50,120c-34,81 -57,154 -45,142c19,-20 192,-350 394,-755c213,-426 307,-609 358,-693c16,-26 29,-52 29,-57c0,-6 5,-10 10,-10c6,0 10,-5 10,-11c0,-6 38,-74 85,-151c47,-76 85,-141 85,-143c0,-2 19,-33 43,-69c23,-36 54,-84 68,-108c69,-115 174,-274 188,-285c38,-29 62,-10 181,147c35,47 67,87 70,90c6,5 71,93 100,136c252,365 451,683 600,959c24,44 56,103 71,130c46,82 263,520 324,655c54,117 135,306 192,445c204,500 305,993 290,1410c-6,150 -10,185 -38,340c-35,191 -134,438 -245,613c-109,172 -313,379 -494,503c-36,24 -67,47 -70,51c-3,3 -65,36 -138,73c-150,75 -357,147 -507,177c-134,26 -439,33 -580,13zm524,-130c169,-28 344,-86 471,-157c55,-30 220,-137 230,-147c3,-4 23,-19 45,-36c76,-56 260,-250 325,-342c253,-361 365,-740 346,-1173c-28,-628 -375,-1179 -909,-1442c-362,-178 -706,-225 -1091,-147c-526,106 -1000,486 -1246,997c-16,35 -30,65 -30,67c0,3 -11,28 -24,57c-79,172 -134,482 -121,677c11,167 57,397 102,506c45,108 57,136 95,210c48,95 150,250 210,320c88,101 153,164 283,273c58,50 214,146 310,192c128,62 325,124 440,140c50,6 97,13 105,15c53,10 377,3 459,-10z"/>
   <path fill="#eb6727" id="svg_3" d="m13359,10476c-3,-3 -38,-8 -79,-12c-97,-8 -203,-35 -224,-57c-10,-9 -23,-17 -29,-17c-7,0 -6,5 3,11c27,20 -41,2 -102,-26c-59,-27 -75,-53 -38,-62c13,-3 20,-14 20,-28c0,-31 28,-54 41,-34c8,10 9,9 4,-8c-5,-18 2,-25 47,-46c69,-32 118,-47 118,-37c0,5 -8,11 -17,13c-15,4 -15,5 -2,6c9,0 24,-8 34,-19c22,-24 40,-25 235,-8c91,8 136,15 120,19c-37,10 126,-1 190,-13c30,-6 80,-14 110,-18c30,-4 44,-8 30,-9c-23,-2 -23,-3 -5,-10c21,-9 46,-3 56,12c4,5 15,7 25,5c16,-4 15,-6 -8,-18l-27,-13l22,-28c14,-20 27,-27 39,-23c22,7 78,-45 78,-73c0,-15 -2,-15 -10,-3c-5,8 -12,12 -15,8c-4,-3 4,-23 18,-45c31,-49 45,-94 52,-166c4,-31 11,-55 16,-52c5,4 9,-4 9,-17c0,-29 7,-38 51,-71c39,-29 65,-34 72,-14c2,7 8,8 13,3c5,-5 4,-11 -3,-13c-16,-6 -17,-29 -1,-39c6,-4 18,2 26,12c14,18 14,18 9,-5c-5,-18 1,-31 25,-52c33,-32 44,-35 51,-16c2,6 3,4 2,-5c-4,-24 20,-41 47,-33c16,4 19,3 9,-3c-17,-12 -4,-35 15,-28c8,3 14,-1 14,-8c0,-18 22,-26 52,-20c18,3 19,3 5,-4c-17,-7 -16,-10 9,-27c15,-11 35,-28 46,-37c17,-17 18,-17 18,3c0,12 -8,28 -17,35c-17,13 -17,13 0,14c13,0 16,6 13,23c-3,12 -14,69 -26,127c-12,58 -28,119 -36,137c-8,17 -14,37 -14,45c0,20 -112,241 -132,259c-10,9 -18,22 -18,28c0,6 -7,14 -15,17c-8,4 -15,12 -15,20c0,9 -10,13 -30,10c-32,-4 -52,13 -69,56c-9,24 -8,26 7,21c10,-3 2,10 -18,31c-31,33 -36,35 -47,20c-12,-16 -13,-16 -20,1c-4,11 -2,20 5,23c14,4 -10,32 -27,32c-6,0 -11,4 -11,9c0,11 -31,24 -39,16c-3,-3 8,-17 24,-30c17,-13 24,-24 18,-25c-22,0 -63,43 -63,67c0,20 -4,23 -27,18c-21,-4 -23,-3 -9,3c17,7 15,10 -15,28c-75,44 -162,75 -191,69c-22,-5 -27,-3 -23,8c5,11 -14,18 -77,32c-46,10 -104,19 -130,19c-25,1 -50,4 -54,9c-8,7 -108,10 -115,3z"/>
   <path fill="#eb6727" id="svg_4" d="m12700,10245c-14,-8 -31,-17 -39,-21c-17,-9 -51,-42 -51,-49c0,-3 8,-5 17,-5c14,0 13,-3 -5,-16c-12,-8 -28,-13 -35,-11c-7,3 -5,6 6,6c9,1 17,6 17,11c0,19 -16,10 -60,-35c-31,-32 -39,-45 -27,-45c9,0 17,-4 17,-10c0,-5 7,-10 15,-10c8,0 23,-4 33,-9c40,-22 109,-51 120,-51c7,0 12,-4 12,-10c0,-5 8,-10 18,-10c11,0 45,-9 76,-20c53,-18 60,-18 88,-4c16,8 34,14 40,12c6,-2 -3,-11 -21,-20l-32,-15l48,-13c26,-7 62,-18 79,-26c16,-7 49,-16 72,-20c23,-4 42,-10 42,-15c0,-5 6,-9 13,-9c6,0 26,-7 42,-16c17,-9 47,-17 67,-17c20,-1 32,-5 25,-9c-7,-4 -1,-11 17,-18c30,-11 92,-4 102,11c8,14 -50,11 -64,-3c-8,-8 -12,-8 -12,-1c0,15 25,23 76,23c55,0 56,-15 4,-39l-41,-18l32,-13c17,-8 64,-14 103,-14c39,-1 77,-5 85,-10c8,-5 16,-4 20,3c5,8 19,9 47,2l39,-9l-42,-1c-51,-1 -59,-21 -9,-21c19,0 37,-4 41,-9c9,-15 -68,0 -87,17c-11,9 -27,12 -42,8c-14,-3 -28,-2 -31,4c-3,5 -14,10 -23,10c-36,0 7,-20 93,-41c50,-13 92,-26 95,-30c12,-15 63,-19 78,-7c15,11 15,11 4,-3c-11,-15 -8,-18 23,-23c40,-8 59,0 51,19c-4,11 1,11 25,3c36,-12 39,-33 4,-24c-38,10 -30,-7 23,-44c26,-19 51,-40 55,-48c7,-10 12,-11 23,-1c8,6 18,9 21,5c4,-4 1,-11 -6,-15c-10,-7 -10,-12 5,-29c16,-19 19,-19 41,-5l24,16l-22,23c-12,13 -18,28 -13,35c5,9 10,6 15,-9c5,-12 17,-22 28,-22c10,0 21,-7 24,-14c4,-10 1,-13 -7,-10c-8,3 -23,-8 -36,-25c-19,-27 -19,-32 -6,-37c9,-3 16,-11 16,-18c0,-6 13,-27 29,-46c15,-19 41,-59 56,-87c15,-29 31,-53 36,-53c4,0 13,-17 18,-38c6,-21 17,-46 25,-57c15,-20 15,-20 16,1c0,11 -6,26 -12,33c-11,10 -9,11 6,5c15,-6 17,-14 12,-45c-5,-29 1,-52 24,-102c16,-36 30,-70 30,-76c0,-5 5,-13 11,-17c9,-5 10,3 5,28c-3,19 -2,46 3,59c6,17 8,3 6,-49c-2,-55 1,-75 11,-79c8,-3 14,-17 14,-32c0,-14 7,-35 15,-45c8,-11 15,-14 15,-8c0,7 5,12 11,12c7,0 9,-10 5,-25c-4,-14 -4,-25 -2,-25c7,0 47,72 42,77c-2,3 4,20 14,39c11,18 17,41 13,50c-4,10 0,22 10,29c10,7 21,32 26,56c5,24 15,70 22,102c12,56 11,59 -11,74c-13,9 -31,24 -40,32c-8,9 -43,34 -78,56c-34,22 -62,44 -62,48c0,5 -9,5 -20,2c-23,-7 -53,12 -44,27c4,6 1,14 -6,18c-7,4 -40,33 -74,63c-33,30 -76,67 -94,83c-19,17 -40,50 -50,81c-10,29 -22,50 -27,45c-4,-4 -5,7 -1,23c6,32 0,49 -24,58c-12,4 -11,6 3,6c23,1 22,10 -10,67c-29,52 -91,115 -133,136c-14,7 -33,19 -42,26c-15,13 -18,13 -24,-1c-5,-13 -9,-14 -19,-4c-11,10 -10,13 4,18c12,5 10,9 -14,18c-16,7 -37,10 -47,8c-10,-3 -18,0 -18,7c0,13 -39,27 -130,47c-30,6 -71,16 -90,21c-19,5 -122,12 -227,15c-175,5 -193,5 -193,-10c0,-15 -11,-16 -87,-13c-129,6 -120,5 -103,15c8,6 28,8 45,5c28,-3 28,-3 5,5c-14,5 -37,9 -52,10c-17,1 -41,14 -63,36c-19,20 -40,33 -45,30c-6,-3 -10,3 -10,14c0,12 4,21 9,21c5,0 7,9 4,20c-6,24 -10,24 -43,5z"/>
   <path fill="#eb6727" id="svg_5" d="m12487,10033c2,-13 -1,-23 -7,-23c-5,0 -10,8 -10,18c-1,12 -13,3 -40,-28c-22,-25 -37,-51 -35,-58c2,-7 2,-26 -2,-42c-4,-22 -10,-29 -22,-25c-12,4 -25,-11 -49,-54c-34,-62 -32,-71 19,-71c11,0 18,-4 15,-9c-9,-14 142,-45 213,-43c47,1 74,-4 100,-18c32,-17 66,-26 183,-47c15,-3 36,-2 45,2c17,7 16,8 -2,16c-13,6 -7,6 20,2c51,-7 53,-10 16,-18c-52,-11 -37,-28 36,-41c16,-3 30,-9 31,-15c2,-5 9,-9 15,-9c7,0 34,-11 61,-25c27,-14 53,-25 58,-25c5,0 24,-11 42,-25c18,-14 36,-25 40,-25c7,0 113,-76 134,-96c6,-7 12,-17 12,-23c0,-6 6,-11 13,-11c8,0 24,-11 37,-25c23,-25 60,-34 60,-15c0,6 8,10 18,10c16,-1 16,-1 0,-14c-27,-20 -22,-37 21,-81c69,-70 77,-74 115,-68c24,4 36,2 36,-6c0,-6 -7,-11 -16,-11c-8,0 -12,-4 -9,-10c3,-5 15,-10 26,-10c11,0 18,-4 15,-9c-4,-5 4,-7 16,-3c13,3 19,1 15,-5c-4,-6 22,-19 63,-32c38,-12 70,-25 72,-29c2,-4 21,-16 43,-27c22,-10 48,-26 58,-34c16,-13 19,-13 28,-1c8,11 9,9 4,-9c-6,-19 -4,-23 9,-18c8,3 18,1 22,-5c4,-7 3,-8 -4,-4c-7,4 -12,3 -12,-3c0,-17 22,-24 31,-10c4,7 11,10 15,6c4,-3 2,-12 -4,-19c-7,-10 -2,-22 19,-48c16,-19 29,-29 29,-22c0,7 7,9 17,5c11,-4 12,-8 5,-11c-18,-6 -15,-16 16,-64c44,-69 51,-81 72,-123c11,-22 26,-49 35,-59c14,-19 15,-19 36,5c51,57 61,90 24,76c-8,-4 -15,-16 -15,-27c0,-11 -4,-20 -10,-20c-16,0 -12,26 8,50c15,18 22,21 38,12c16,-9 22,-7 32,9c12,19 7,69 -8,69c-4,0 -7,12 -7,27c0,15 -6,29 -12,31c-6,2 -11,12 -11,23c0,11 -9,36 -19,57c-18,36 -21,43 -21,60c0,4 -4,1 -8,-5c-5,-8 -8,1 -8,21c0,18 -8,41 -17,51c-10,10 -21,30 -24,46c-3,16 -12,34 -19,40c-17,14 -17,15 1,-43c8,-27 10,-48 5,-48c-12,0 -20,32 -23,90c-4,56 -47,126 -66,107c-10,-9 -12,-6 -9,18c2,19 -1,29 -9,28c-7,-2 -10,4 -6,13c4,12 0,14 -19,9c-27,-7 -65,24 -40,32c17,6 15,28 -4,44c-15,12 -16,11 -9,-11c7,-22 6,-23 -9,-11c-9,7 -15,19 -14,25c1,6 -6,23 -16,39c-14,20 -24,26 -40,22c-11,-2 -15,-2 -8,1c6,3 12,10 12,15c0,14 -28,11 -33,-3c-2,-7 -8,-9 -13,-5c-5,4 -2,12 6,17c10,6 11,12 5,19c-11,11 -38,-5 -48,-29c-3,-8 -4,4 -2,28l2,43l-31,-5c-22,-4 -25,-3 -11,2c17,8 14,12 -25,35c-25,14 -63,33 -85,43c-22,9 -50,21 -62,27c-15,7 -31,6 -52,-3c-32,-13 -61,-8 -61,9c0,6 13,8 32,4c22,-4 29,-3 24,5c-4,7 -18,12 -32,12c-13,0 -24,4 -24,8c0,5 -24,14 -52,21c-49,11 -141,43 -179,61c-9,5 -38,11 -65,15c-27,4 -85,15 -129,25c-44,10 -100,21 -125,25c-25,3 -64,12 -87,20c-23,8 -57,12 -75,10c-26,-4 -28,-3 -9,3c23,7 22,9 -19,25c-35,13 -46,14 -53,4c-6,-8 -7,-7 -4,5c8,24 -17,40 -68,42c-24,1 -50,7 -57,14c-9,9 -9,12 3,12c8,0 20,-5 26,-11c6,-6 16,-10 23,-7c6,2 -3,14 -21,27c-25,19 -33,21 -41,10c-7,-10 -8,-8 -3,7c4,15 0,24 -10,28c-9,3 -14,2 -11,-3c3,-4 -6,-6 -20,-3c-17,3 -22,7 -13,12c9,6 9,12 -4,24c-8,9 -20,16 -26,16c-5,0 -11,6 -14,13c-2,6 -2,2 0,-10z"/>
   <path fill="#eb6727" id="svg_6" d="m12257,9644c-8,-50 8,-68 22,-23l10,34l-5,-41c-6,-45 4,-56 76,-84c19,-8 38,-18 41,-23c4,-5 45,-10 93,-11c47,0 78,-4 68,-7c-9,-3 13,-9 48,-13c85,-10 147,-25 189,-47c20,-11 46,-16 60,-14c22,5 23,4 6,-4c-11,-5 -15,-10 -9,-10c6,-1 29,-17 50,-37c39,-35 39,-35 46,-12c5,18 6,15 7,-14c1,-24 9,-46 24,-62c12,-13 29,-37 36,-53c16,-36 34,-72 48,-98c6,-11 16,-33 23,-49c9,-24 13,-27 21,-15c7,10 8,4 4,-20c-4,-19 -3,-31 2,-28c5,3 15,-14 22,-38c10,-34 16,-42 31,-38c11,3 21,12 23,22c4,14 5,14 6,-2c0,-10 -6,-20 -14,-23c-21,-8 -19,-25 13,-94c18,-40 32,-59 42,-57c9,1 14,11 12,22c-2,11 -1,17 3,13c8,-8 16,-46 19,-93c1,-22 6,-29 19,-27c10,2 15,-2 12,-11c-6,-15 30,-50 86,-85c44,-27 50,-27 43,-4c-4,12 -3,13 3,4c5,-7 17,-10 26,-6c10,3 17,1 17,-5c0,-6 -8,-11 -17,-11c-10,0 2,-10 27,-22c41,-20 63,-22 240,-24c221,-2 317,-13 383,-42l45,-20l31,32c37,38 40,51 9,35c-19,-9 -21,-9 -10,2c20,21 14,34 -8,14c-16,-14 -20,-15 -20,-4c0,8 5,20 12,27c9,9 9,12 0,12c-7,0 -12,5 -12,11c0,6 -14,22 -31,36c-17,15 -35,37 -40,50c-6,17 -15,22 -31,20c-13,-2 -17,-2 -10,0c18,6 15,21 -8,35c-11,7 -20,18 -20,25c0,7 -17,25 -37,40c-21,15 -39,31 -41,35c-8,16 -102,77 -102,65c-1,-7 -8,-3 -18,8c-20,24 -114,85 -130,85c-7,0 -12,5 -12,10c0,6 -8,10 -18,10c-11,0 -27,9 -36,19c-10,11 -28,22 -42,25c-13,4 -24,10 -24,15c0,12 -71,91 -82,91c-14,0 -9,-30 7,-36c8,-4 12,-10 9,-16c-10,-16 -34,13 -34,43c0,18 -5,27 -12,25c-7,-1 -10,-1 -5,1c13,8 7,21 -19,38c-22,14 -28,15 -36,4c-7,-10 -8,-9 -4,5c8,24 -21,47 -52,39c-18,-4 -21,-2 -15,12c5,15 2,17 -15,13c-15,-4 -28,3 -46,23c-14,16 -49,40 -78,55c-29,15 -55,30 -58,33c-11,14 -91,39 -109,34c-11,-3 -28,0 -38,7c-16,10 -16,10 5,5c27,-8 30,11 2,20c-11,3 -20,11 -20,16c0,5 -7,9 -16,9c-8,0 -36,9 -61,21c-25,11 -54,18 -64,16c-11,-3 -19,0 -19,7c0,17 -78,48 -103,41c-16,-5 -18,-4 -8,3c11,8 -4,16 -56,31c-39,12 -75,21 -80,21c-5,0 -24,7 -42,16c-20,10 -71,18 -140,21l-108,5l-6,-38z"/>
   <path fill="#eb6727" id="svg_7" d="m12347,9459c110,-8 200,-25 190,-36c-4,-3 -20,0 -38,6c-36,12 -103,15 -96,4c3,-5 -33,-7 -80,-5l-85,4l33,-31c29,-26 36,-28 46,-15c9,12 11,9 10,-18c-2,-32 -1,-33 35,-32c34,0 36,-1 25,-20c-10,-19 -12,-19 -15,-3c-3,17 -22,25 -22,9c0,-14 36,-43 43,-35c4,3 7,1 7,-5c0,-15 31,-52 43,-52c5,0 7,7 3,15c-4,10 1,15 16,15c20,0 20,-1 4,-19c-17,-18 -17,-21 -1,-45c10,-14 20,-26 24,-26c3,0 19,-18 35,-40c16,-21 33,-37 37,-34c5,3 6,-2 3,-10c-4,-11 0,-13 18,-9c16,3 19,2 10,-5c-18,-12 17,-71 63,-106c25,-19 32,-31 28,-48l-5,-23l21,24c24,26 25,24 11,-15c-9,-21 -7,-29 7,-41c12,-9 13,-12 3,-8c-13,6 -13,5 0,-7c8,-7 24,-31 36,-53c52,-100 59,-108 89,-98c17,5 18,4 7,-9c-11,-13 -4,-24 40,-67c52,-51 92,-73 48,-26c-13,14 -20,25 -16,25c11,0 66,-63 66,-75c0,-10 105,-65 123,-65c5,0 16,-7 24,-16c10,-10 25,-13 42,-9c14,3 21,2 15,-2c-7,-5 7,-14 37,-24c54,-17 66,-10 19,13l-29,14l49,1c27,0 47,-3 44,-8c-3,-5 6,-9 20,-9c32,0 34,-17 4,-23c-22,-3 -22,-4 -3,-12c11,-5 23,-13 26,-18c4,-6 42,-10 85,-11c42,-1 68,-3 58,-5c-28,-7 131,-30 299,-43c112,-9 150,-9 159,0c17,17 3,25 -20,13c-12,-6 -40,-10 -64,-10l-43,1l53,8c29,4 59,13 67,20c11,9 15,9 15,1c0,-6 7,-11 15,-11c17,0 105,60 105,72c0,11 -7,10 -31,-4c-17,-11 -22,-10 -29,2c-5,8 -13,21 -18,28c-7,11 -52,14 -203,14c-116,1 -184,4 -169,9c21,7 19,8 -10,5c-19,-2 -44,-6 -55,-9c-11,-2 -14,-2 -7,0c6,3 12,9 12,14c0,13 -34,11 -48,-3c-9,-9 -12,-9 -12,3c0,8 -32,31 -75,52c-81,40 -102,46 -70,20c19,-15 19,-15 -10,-8c-35,8 -45,16 -27,22c19,7 14,19 -14,32c-15,6 -24,15 -20,18c3,3 -4,13 -15,21c-18,12 -23,12 -29,1c-7,-10 -15,-7 -34,14c-14,16 -26,37 -26,48c0,10 -6,19 -12,19c-10,0 -9,3 1,9c11,7 9,15 -13,43c-14,19 -26,39 -26,44c-1,21 -39,54 -57,48c-14,-5 -15,-4 -3,4c12,9 12,15 1,39c-15,31 -36,79 -46,103c-14,37 -63,105 -74,102c-8,-2 -10,4 -6,17c6,20 -32,71 -53,71c-5,0 -8,9 -5,20c6,22 -12,28 -21,8c-2,-7 -4,-2 -3,12c2,21 -2,25 -23,22c-19,-2 -22,0 -10,8c13,8 10,15 -17,40c-25,24 -42,30 -81,32c-41,2 -48,5 -45,19c5,18 33,15 33,-2c0,-5 8,-9 18,-9c14,0 12,4 -8,20c-14,11 -30,20 -37,20c-6,0 -24,5 -40,12c-43,17 -56,20 -85,21c-15,0 -25,3 -23,7c10,17 -126,40 -227,39l-103,-2l112,-8z"/>
   <path fill="#eb6727" id="svg_8" d="m12265,9312c-10,-22 -6,-139 5,-161c5,-9 12,-41 16,-71c4,-30 11,-61 16,-70c5,-8 18,-48 29,-87c11,-40 31,-94 43,-120c19,-41 26,-48 47,-45c21,2 22,1 8,-8c-15,-9 -15,-13 3,-50c11,-23 26,-43 34,-47c8,-3 15,-11 15,-19c0,-8 7,-14 16,-14c8,0 13,-4 10,-8c-3,-5 8,-22 24,-37c30,-28 39,-55 20,-55c-5,0 -10,7 -10,16c0,12 -6,15 -24,10c-14,-3 -28,-2 -31,4c-4,6 1,7 12,3c17,-6 17,-5 -1,15c-11,12 -25,22 -31,22c-7,0 -15,9 -18,20c-4,14 -11,18 -24,14c-14,-5 -15,-4 -4,4c12,8 9,15 -14,36c-15,14 -33,26 -38,26c-6,0 -8,3 -4,6c3,4 -17,40 -45,80c-30,42 -55,69 -58,63c-5,-7 -9,-5 -13,5c-4,11 -1,16 10,16c18,0 8,15 -10,15c-7,0 -11,13 -10,30c3,35 -16,63 -29,43c-5,-8 -6,3 -3,27c5,30 4,36 -4,25c-9,-12 -11,-10 -10,10c1,14 -7,57 -16,95c-10,39 -21,102 -25,140l-7,70l-1,-62c-1,-34 2,-73 8,-88c5,-14 12,-47 16,-73c3,-26 7,-54 8,-62c14,-71 66,-220 77,-220c5,0 9,-7 9,-15c0,-16 36,-84 52,-100c7,-7 9,-7 6,0c-3,6 -2,19 3,30l9,20l-1,-20c-2,-37 1,-60 11,-75c9,-13 11,-13 20,0c7,11 10,7 10,-17c0,-27 13,-45 79,-110c43,-43 95,-93 116,-111c57,-49 167,-112 201,-113c19,-1 23,-3 10,-6c-15,-4 -10,-10 23,-30c25,-14 51,-23 62,-20c14,4 19,1 16,-7c-7,-17 81,-39 124,-31c35,6 70,-8 55,-22c-5,-4 -11,-2 -13,5c-5,14 -33,17 -33,3c0,-5 23,-14 50,-20c60,-13 72,-13 45,0c-16,7 -14,8 10,4c17,-4 36,-14 43,-23c11,-15 34,-17 183,-16c96,1 174,6 182,12c6,5 28,13 47,16c19,4 44,11 55,15c11,5 45,16 75,25c141,42 147,61 19,56c-100,-3 -300,27 -436,66c-14,4 -23,2 -23,-4c0,-6 10,-12 23,-14c12,-2 -9,-4 -48,-4c-38,0 -59,3 -45,6c17,4 21,8 12,14c-15,9 -52,-1 -52,-15c0,-5 -7,-9 -15,-9c-8,0 -15,4 -15,8c0,17 37,42 61,42c23,0 23,0 -5,15c-36,19 -47,19 -40,0c4,-8 1,-15 -5,-15c-10,0 -16,22 -12,44c1,4 -10,6 -23,2c-21,-5 -24,-3 -19,10c5,13 2,15 -17,9c-18,-6 -22,-4 -17,8c4,11 0,13 -14,10c-14,-4 -19,0 -19,15c0,13 -11,24 -32,33c-18,7 -43,24 -55,37c-13,14 -27,21 -34,16c-7,-4 -9,-3 -6,3c8,13 -60,76 -73,68c-5,-3 -11,4 -15,15c-9,29 -54,80 -71,80c-7,0 -11,6 -8,13c3,8 -6,24 -18,38c-31,32 -108,134 -108,143c0,3 -15,29 -34,57c-19,27 -38,58 -41,69c-7,21 -25,28 -25,10c0,-5 5,-10 10,-10c6,0 10,-10 10,-22c-1,-23 -1,-23 -15,2c-8,14 -12,32 -9,41c4,15 -41,109 -53,109c-3,0 -2,-11 1,-25c4,-14 2,-25 -4,-25c-5,0 -10,6 -10,13c0,8 -4,7 -10,-3c-13,-20 -12,-10 1,28c10,29 8,35 -20,69c-17,21 -31,41 -31,46c0,11 -42,52 -67,66c-17,9 -22,7 -29,-7z"/>
   <path fill="#eb6727" id="svg_9" d="m17293,6223c-7,-2 -13,-13 -13,-24c0,-10 -4,-19 -9,-19c-16,0 -48,-84 -55,-145c-12,-108 36,-321 69,-309c25,10 55,-15 54,-44c-1,-21 -2,-22 -6,-7c-7,27 -19,39 -32,31c-13,-8 13,-66 29,-66c20,0 25,2 23,10c-1,4 12,7 30,6c22,-1 31,-5 29,-15c-5,-24 29,-111 44,-111c8,0 14,7 14,15c0,8 -4,15 -10,15c-5,0 -10,5 -10,11c0,6 7,9 15,5c8,-3 15,-1 15,3c0,5 3,16 6,25c4,11 1,16 -10,16c-10,0 -16,8 -16,22c0,20 1,20 18,5c23,-21 46,-22 38,-2c-3,8 -2,15 3,15c4,0 12,-14 17,-31c5,-17 13,-30 17,-29c5,1 17,-9 28,-22c15,-16 22,-19 28,-10c6,10 14,9 36,-2c24,-13 29,-22 33,-63c4,-53 47,-159 67,-167c9,-3 13,7 12,37c-1,122 7,130 70,72c21,-19 44,-33 51,-30c7,2 12,-3 12,-13c0,-10 5,-23 10,-28c6,-6 13,-24 16,-40c3,-16 9,-33 15,-39c5,-5 9,-17 9,-27c0,-10 4,-18 10,-18c6,0 4,15 -4,38c-28,80 -33,110 -30,202c4,125 12,198 25,222c12,23 2,39 -11,18c-6,-9 -10,-10 -10,-3c0,6 8,19 17,29c34,34 40,57 23,86c-8,16 -18,28 -22,28c-5,0 -8,7 -8,15c0,8 -5,15 -11,15c-6,0 -29,18 -50,40c-22,22 -42,40 -45,40c-4,0 -29,14 -56,30c-27,17 -53,28 -57,25c-5,-2 -11,4 -14,15c-3,13 -10,18 -21,14c-9,-3 -16,-1 -16,5c0,5 -14,25 -32,43c-24,24 -39,32 -62,30c-26,-1 -28,0 -11,7c34,15 -99,70 -183,75c-37,3 -73,2 -79,-1z"/>
   <path fill="#5f2519" id="svg_10" d="m11122,5987c-19,-58 -40,-111 -47,-117c-7,-6 -25,-8 -39,-4c-18,4 -27,2 -30,-7c-2,-8 -9,-97 -15,-199c-6,-102 -22,-356 -35,-565c-56,-848 -54,-1348 8,-1755c41,-270 143,-520 232,-568c36,-19 159,-30 238,-22c181,21 266,99 397,361c39,79 91,172 115,205c70,100 186,162 219,118c37,-51 57,-254 35,-361c-54,-264 -66,-398 -51,-602c7,-86 15,-172 20,-191l8,-35l12,30c7,17 32,84 57,150c25,66 52,136 59,155c8,19 32,87 55,150c23,63 52,142 65,175c13,33 33,89 46,125c24,71 39,95 39,64c0,-10 -9,-93 -19,-184c-32,-267 -53,-480 -48,-493c5,-16 156,296 200,413c101,270 135,515 104,745c-18,127 -36,187 -82,270c-89,159 -240,249 -440,262c-80,5 -97,2 -285,-47c-98,-26 -207,-27 -214,-2c-16,56 -58,449 -86,802c-31,397 -84,758 -141,955c-21,71 -97,245 -108,245c-13,0 -59,-92 -97,-197c-40,-108 -100,-223 -116,-223c-9,0 -9,-6 -17,254l-6,200l-33,-107z"/>
   <path fill="#5f2519" id="svg_11" d="m9680,5135c-338,-94 -525,-407 -490,-820c21,-249 104,-422 329,-687c152,-180 198,-245 232,-330c31,-79 24,-202 -16,-278c-34,-62 -76,-94 -134,-104c-29,-4 -46,-14 -63,-39c-20,-28 -23,-46 -27,-144l-3,-112l42,-21c125,-64 215,-84 375,-84c136,0 143,1 230,35c211,81 338,212 411,424c25,71 28,94 28,205c0,150 -15,212 -84,355c-45,94 -124,209 -202,293c-189,205 -390,468 -438,576c-39,86 -43,190 -7,231c26,30 43,32 197,21c100,-8 106,-7 134,14c24,20 28,28 23,60c-6,47 -81,139 -157,193c-70,49 -67,46 -44,47c40,0 178,-40 220,-65c51,-30 118,-96 181,-178c26,-34 51,-66 55,-72c4,-5 24,-28 44,-50l35,-40l-6,45c-14,95 -87,238 -158,311c-90,92 -186,152 -312,196c-91,33 -307,42 -395,18z"/>
   <path fill="#5f2519" id="svg_12" d="m5916,5125c-211,-40 -415,-144 -551,-282c-75,-75 -154,-222 -180,-333c-28,-120 -14,-306 31,-415c57,-139 155,-316 224,-405c15,-19 85,-120 155,-225c131,-194 204,-332 230,-433c20,-74 19,-92 -2,-92c-21,0 -198,27 -487,75c-456,74 -598,96 -607,93c-9,-3 330,-208 446,-269c33,-17 75,-40 92,-49c18,-9 30,-19 28,-22c-3,-2 -101,17 -217,43c-117,27 -220,48 -228,49c-8,0 24,-36 70,-79c95,-89 174,-134 333,-187c113,-39 289,-77 429,-94c146,-18 422,-8 523,19c402,107 503,385 306,844c-35,83 -172,355 -191,382c-18,25 -169,301 -222,406c-115,231 -138,376 -70,444c51,51 76,58 242,65c175,7 208,17 245,80c26,46 28,149 3,201c-36,75 -133,146 -242,176c-77,21 -266,25 -360,8z"/>
   <path fill="#5f2519" id="svg_13" d="m13341,5103c-162,-33 -283,-320 -297,-708c-5,-134 -2,-182 31,-445c39,-317 90,-742 126,-1040c43,-365 54,-443 64,-447c6,-1 29,14 53,35c40,35 43,42 57,122c8,47 16,103 16,125c1,22 6,2 10,-44c5,-47 11,-87 13,-89c3,-2 15,3 28,12c12,9 28,16 34,16c7,0 25,-36 40,-80c16,-44 34,-80 41,-80c25,0 105,199 139,348c113,489 174,1240 129,1587c-32,244 -142,498 -263,607c-72,65 -154,95 -221,81z"/>
   <path fill="#5f2519" id="svg_14" d="m7048,5080c-10,-24 -105,-512 -132,-675c-36,-215 -46,-332 -46,-541c0,-404 84,-620 346,-886c155,-158 321,-263 489,-309c111,-30 267,-24 374,16c148,55 309,187 411,338c25,37 48,67 52,67c6,0 53,-72 90,-139c14,-25 24,-31 49,-31l32,0l-6,433l-7,432l29,-85c32,-92 55,-177 100,-370c38,-158 61,-224 100,-286l31,-49l0,97c0,325 -98,1329 -151,1548c-42,170 -106,276 -193,316c-96,45 -194,23 -257,-57c-76,-96 -103,-210 -119,-499c-14,-268 -19,-332 -37,-430c-69,-391 -244,-647 -427,-626c-122,14 -213,119 -268,306c-47,163 -59,287 -69,705c-8,387 -22,557 -49,633c-7,17 -14,32 -15,32c-2,0 -20,-9 -39,-21c-38,-22 -62,-73 -86,-181c-7,-32 -18,-58 -24,-58c-21,0 -56,113 -63,204l-6,89l-30,-82c-41,-115 -49,-109 -65,44c-5,44 -11,73 -14,65z"/>
   <path fill="#eb6727" id="svg_15" d="m19660,4685c-25,-14 -25,-14 -2,-15c15,0 22,-6 22,-19c0,-16 -11,-20 -75,-26c-41,-3 -78,-4 -83,-1c-4,2 -14,1 -22,-4c-11,-7 -10,-11 3,-25c25,-24 21,-39 -5,-16c-23,22 -46,18 -27,-5c9,-11 8,-14 -4,-14c-8,0 -17,5 -19,11c-4,11 -78,-56 -78,-71c0,-17 28,-11 39,8c9,15 10,15 11,1c0,-27 -28,-45 -50,-31c-17,10 -23,7 -46,-24c-23,-30 -25,-37 -13,-45c10,-8 7,-8 -10,-4c-20,6 -23,4 -18,-9c4,-11 3,-15 -4,-10c-8,4 -9,-4 -4,-27c4,-25 3,-30 -4,-19c-9,13 -12,12 -26,-5c-8,-11 -18,-30 -21,-42c-3,-13 -11,-23 -16,-23c-6,0 -8,-10 -6,-23c4,-18 0,-22 -19,-21c-28,1 -78,44 -51,44c8,0 21,-7 28,-15c7,-8 17,-12 22,-8c12,7 -30,42 -50,43c-7,0 -11,4 -8,9c3,5 -13,21 -37,37c-23,16 -44,32 -47,35c-3,3 -14,8 -25,11c-11,3 -29,9 -39,14c-14,5 -17,4 -12,-4c5,-8 2,-10 -8,-6c-9,3 -16,11 -16,18c0,6 -18,19 -40,29c-50,21 -52,21 -48,0c1,-10 -2,-19 -7,-21c-6,-1 -11,6 -13,18c-2,11 -10,20 -18,20c-16,0 -19,-16 -5,-24c5,-3 12,-43 16,-88l8,-83l11,40c12,39 12,39 25,17c7,-13 10,-33 8,-45c-4,-18 -5,-17 -6,6c0,15 -6,27 -11,27c-6,0 -8,-16 -4,-42c5,-30 4,-39 -4,-34c-10,6 -15,-25 -14,-84c0,-23 45,-269 51,-285c11,-26 29,-124 37,-205c8,-78 13,-89 15,-29l2,44l6,-40c5,-32 2,-43 -14,-57c-19,-15 -20,-15 -26,0c-4,11 -8,3 -11,-22c-4,-34 -3,-36 9,-20c13,18 14,18 19,-4c4,-12 10,-22 15,-22c13,0 11,14 -3,28c-9,9 -9,15 0,24c7,7 12,8 13,3c0,-6 3,-22 5,-37c3,-16 1,-28 -5,-28c-5,0 -12,-16 -15,-35c-4,-19 -11,-35 -17,-35c-6,0 -8,4 -4,9c3,5 0,13 -6,17c-8,5 -10,0 -6,-18c4,-16 2,-30 -7,-37c-19,-16 -30,-106 -30,-251c0,-140 5,-210 17,-203c4,2 7,-6 7,-19c0,-21 45,-76 55,-67c2,3 -3,19 -12,37c-12,25 -13,36 -4,45c8,8 11,4 11,-16c0,-15 5,-27 10,-27c6,0 10,-13 10,-30c0,-16 4,-30 8,-30c5,0 30,-19 56,-42c90,-80 211,-166 220,-158c12,12 -11,40 -33,40c-9,0 -25,8 -36,17l-20,16l20,-8c33,-12 80,-13 87,-1c4,6 10,7 15,3c4,-5 2,-12 -5,-16c-9,-5 -11,-17 -6,-34c4,-18 2,-27 -6,-27c-10,0 -10,-3 0,-15c10,-13 14,-13 27,0c12,13 18,12 44,-7c17,-13 25,-24 19,-26c-6,-2 -17,4 -25,14c-11,15 -16,16 -26,7c-9,-9 -4,-16 25,-29c20,-10 36,-21 36,-26c0,-4 9,-8 19,-8c21,0 48,61 35,81c-4,7 0,9 12,5c18,-5 19,2 21,92c2,83 14,196 39,391c4,29 2,41 -5,36c-6,-3 -11,-13 -11,-21c0,-8 -4,-14 -10,-14c-14,0 -13,16 2,40c10,16 9,25 -5,49c-21,36 -21,43 0,39c9,-2 22,-21 29,-43l12,-40l1,36c1,20 4,39 8,43c4,4 15,44 25,89c17,84 47,192 65,237c6,14 8,30 6,36c-2,7 0,15 6,18c6,4 8,24 5,50c-4,30 -2,46 6,51c10,6 12,1 8,-19c-9,-47 8,-28 44,52c32,71 41,107 17,72c-8,-11 -9,-9 -4,10c11,40 29,80 37,80c12,0 10,-14 -3,-27c-6,-6 -9,-17 -7,-24c5,-16 48,56 48,81c0,31 11,49 26,43c8,-3 17,5 23,20c5,14 15,28 20,32c15,8 14,23 -1,28c-7,2 -5,3 4,2c18,-3 78,56 78,76c0,6 4,7 10,4c5,-3 8,0 5,7c-3,7 -1,19 4,27c8,12 12,12 24,2c12,-9 17,-9 22,0c4,6 1,15 -6,20c-7,4 -10,11 -6,16c5,4 12,1 16,-6c7,-11 17,-10 55,4c62,24 69,17 96,-110c28,-127 42,-385 46,-813c1,-178 5,-330 8,-338c8,-21 22,-10 29,24c4,22 11,28 28,28c12,-1 24,6 27,14c5,13 3,13 -11,1c-10,-7 -17,-9 -17,-3c0,5 8,13 17,16c26,10 45,-22 40,-66c-3,-23 0,-44 9,-55c8,-11 13,-13 14,-5c0,18 60,16 60,-3c0,-8 5,-15 10,-15c6,0 10,-7 10,-15c0,-8 6,-16 13,-16c6,-1 19,-3 27,-4c8,-1 21,-3 29,-4c11,-1 13,-15 7,-71c-6,-68 -5,-72 20,-95c15,-14 30,-25 35,-25c4,0 15,-8 25,-17c9,-10 32,-17 52,-17c19,0 30,-2 23,-4c-17,-6 -13,-19 8,-25c38,-10 46,7 42,92c-2,63 2,93 19,138c20,54 22,75 22,335c-1,153 -4,283 -9,290c-4,7 -8,36 -9,64c-2,76 -47,320 -54,298c-4,-10 -7,5 -6,32c0,30 -9,66 -22,94l-22,45l4,-37c7,-53 -7,-47 -20,7c-10,43 -9,45 10,39c19,-6 19,-5 -2,30c-12,21 -22,46 -22,56c0,10 -6,25 -12,32c-7,8 -21,27 -30,43c-19,33 -34,42 -41,23c-2,-7 -2,-3 0,9c2,15 -5,29 -19,40c-12,10 -39,35 -61,56c-29,28 -44,36 -60,32c-16,-5 -18,-4 -8,3c11,8 7,16 -20,40c-20,18 -38,27 -43,22c-11,-11 11,-40 31,-40c8,0 11,-5 7,-11c-3,-6 -17,-8 -29,-5c-14,4 -25,1 -28,-7c-2,-6 -8,-8 -13,-4c-5,4 -2,12 5,16c15,9 6,50 -13,64c-6,5 0,5 14,1c25,-7 25,-7 6,15c-15,16 -22,18 -33,10c-7,-7 -17,-9 -20,-5c-4,4 -1,11 6,15c9,6 10,11 2,15c-6,4 -16,4 -23,0c-8,-5 -9,-2 -5,10c5,14 3,17 -8,12c-8,-3 -14,0 -12,6c1,6 -14,22 -33,34c-19,13 -39,27 -45,31c-24,19 -183,93 -199,93c-9,0 -14,5 -11,10c8,13 -1,13 -25,0c-16,-9 -18,-8 -13,7c5,13 3,15 -13,8c-10,-4 -30,-9 -44,-11c-20,-3 -18,-1 10,12l34,16l-39,19c-48,22 -91,23 -125,4z"/>
   <path fill="#eb6727" id="svg_16" d="m15143,4677c-4,-8 -16,-17 -26,-20c-11,-4 -21,-16 -24,-26c-6,-22 -43,-35 -57,-21c-13,13 -36,13 -36,0c0,-5 8,-10 18,-10c9,-1 28,-8 42,-16l25,-15l-27,4c-19,3 -28,0 -28,-9c0,-7 12,-15 28,-17c15,-2 11,-3 -9,-2c-34,3 -39,0 -60,-41c-12,-24 -26,-44 -31,-44c-4,0 -8,-6 -8,-14c0,-8 -3,-16 -7,-18c-5,-1 -17,-21 -29,-43c-12,-22 -26,-39 -32,-38c-6,2 -9,-4 -5,-13c3,-8 1,-14 -5,-12c-5,2 -26,-13 -45,-33c-32,-33 -35,-41 -33,-85c2,-27 1,-37 -1,-21c-2,15 -8,27 -13,27c-15,0 -22,-40 -10,-55c9,-11 9,-15 1,-15c-6,0 -11,5 -11,10c0,6 -4,10 -9,10c-13,0 -45,-86 -37,-99c4,-6 1,-9 -7,-5c-9,3 -20,-10 -32,-38c-15,-34 -71,-129 -92,-157c-2,-3 -10,2 -19,10c-13,14 -13,19 1,52c18,43 19,50 5,42c-5,-3 -10,2 -11,12c-1,16 -2,16 -8,-2c-8,-23 -29,-72 -42,-97c-5,-10 -9,-26 -9,-36c0,-10 -4,-22 -10,-28c-20,-20 -50,-201 -50,-304c0,-73 28,-205 47,-219c4,-3 17,-23 28,-43c20,-40 31,-46 38,-25c2,6 3,0 1,-15c-2,-16 1,-28 7,-28c6,0 8,-4 4,-10c-7,-11 14,-39 85,-108c30,-29 56,-48 58,-42c3,7 -2,16 -9,21c-7,4 -10,11 -6,16c12,11 28,-19 22,-42c-4,-19 29,-65 47,-65c14,0 9,30 -7,36c-20,8 -19,24 0,24c20,0 39,-48 26,-64c-6,-7 -4,-18 6,-31c15,-20 15,-20 10,2c-5,21 -4,22 27,9c22,-9 32,-20 34,-39c3,-21 11,-29 35,-35c23,-6 37,-18 50,-45c11,-22 26,-37 37,-37c25,0 42,-24 38,-54c-5,-41 94,-122 135,-111c18,5 19,4 7,-4c-13,-10 -13,-12 0,-21c8,-6 27,-13 43,-17c15,-3 27,-9 27,-14c0,-5 9,-9 20,-9c11,0 20,6 20,13c0,9 2,9 8,-1c10,-15 130,-18 158,-4c11,5 51,25 89,43c39,19 72,36 75,39c3,3 22,18 43,33c20,15 37,37 37,47c0,13 5,17 14,14c20,-8 89,57 117,111c13,25 28,45 32,45c4,0 5,15 2,34c-7,33 8,57 23,41c4,-4 1,-10 -5,-12c-15,-5 -17,-33 -3,-33c6,0 10,7 10,15c0,8 4,15 8,15c11,0 35,51 27,58c-2,3 -14,-3 -24,-12c-11,-10 -25,-15 -30,-11c-18,10 -12,25 9,25c12,0 33,8 47,17c26,17 27,17 20,-1c-6,-16 -5,-17 8,-6c9,7 13,20 10,28c-3,9 0,12 9,9c25,-10 27,6 4,30c-12,13 -16,23 -10,23c7,0 20,-9 29,-19c9,-11 21,-17 28,-15c7,3 22,-6 33,-20c11,-14 25,-26 31,-26c6,0 8,-7 4,-16c-5,-13 -3,-15 13,-6c24,13 54,-2 54,-26c-1,-16 -1,-16 -11,1c-10,18 -39,24 -39,8c0,-15 121,-145 158,-169c31,-22 32,-22 32,-2c0,12 -7,20 -16,20c-22,0 -59,32 -59,50c0,8 -10,19 -22,25c-13,5 -23,13 -23,18c0,5 10,7 23,5c15,-2 28,-17 42,-46c11,-24 25,-40 32,-38c7,3 22,-3 35,-14c19,-16 21,-22 11,-38c-10,-16 -9,-23 6,-36c10,-9 21,-16 25,-16c4,0 21,-9 37,-21c16,-11 29,-18 29,-14c0,3 10,-1 22,-9c12,-9 32,-16 43,-16c17,0 18,2 5,11c-12,9 -12,10 3,5c10,-3 23,-6 28,-6c6,0 7,-4 4,-10c-4,-6 11,-10 37,-10c32,0 39,3 28,10c-11,7 -4,9 25,5c26,-4 49,-1 65,9c14,8 44,24 68,36c23,12 42,26 42,31c0,5 4,9 10,9c14,0 57,36 127,110c46,47 62,70 58,85c-3,11 -2,14 1,8c11,-24 26,-14 20,13c-4,16 -3,23 3,19c12,-7 39,17 65,58c18,29 13,53 -5,27c-9,-12 -10,-12 -5,3c3,10 6,26 6,34c0,13 3,13 16,2c13,-10 17,-10 25,2c4,8 6,22 3,31c-4,13 -1,16 9,12c7,-2 19,1 24,8c20,25 74,130 69,135c-13,13 -34,-9 -40,-41c-9,-47 -31,-48 -23,-1c6,38 27,65 51,65c19,0 30,33 20,62c-6,20 -5,21 10,6c9,-9 16,-23 16,-30c1,-7 7,-2 14,12c8,14 12,28 10,31c-2,3 5,14 16,24c14,12 18,26 14,49c-3,23 -2,26 4,12c6,-15 11,-16 16,-7c5,7 3,18 -3,24c-14,14 -14,37 -1,37c6,0 10,-8 10,-17c1,-14 4,-12 14,7c8,14 12,29 9,34c-4,5 0,14 8,20c8,6 21,27 30,46c12,28 13,40 4,57c-7,13 -15,20 -18,16c-4,-3 -7,1 -7,11c0,9 4,15 9,12c5,-3 11,1 15,9c3,8 10,15 16,15c13,0 50,37 50,50c0,6 -5,10 -10,10c-6,0 -9,-3 -8,-7c2,-5 -1,-8 -7,-8c-15,0 -15,28 0,45c22,25 55,90 55,108c0,10 5,23 12,30c7,7 8,12 2,12c-6,0 -21,-20 -34,-45c-15,-28 -29,-44 -37,-41c-7,3 -18,-4 -24,-15c-6,-11 -16,-18 -23,-16c-10,4 -11,-4 -5,-36c4,-23 5,-44 3,-46c-2,-2 -4,2 -4,9c0,9 -8,6 -23,-8l-24,-22l-18,20c-10,11 -13,20 -7,20c7,0 12,11 12,25c0,14 8,29 20,35c13,7 20,21 20,40c0,17 5,30 10,30c6,0 10,12 10,28c0,21 2,24 10,12c7,-11 10,-6 10,22c0,20 -5,40 -11,43c-6,4 -14,17 -19,29c-8,20 -9,19 -9,-5c-1,-22 -5,-27 -26,-25c-28,1 -31,6 -13,24c7,7 12,36 11,69c-1,51 19,130 38,143c3,3 10,21 13,40c5,24 4,31 -2,21c-8,-11 -11,-9 -14,10c-3,22 -5,21 -22,-14c-11,-22 -25,-41 -33,-44c-7,-3 -10,-9 -7,-14c8,-13 -5,-49 -19,-49c-8,0 -8,3 1,12c18,18 14,27 -9,21c-12,-4 -25,0 -30,8c-13,21 -11,39 6,39c17,0 22,65 5,75c-5,3 -7,-9 -5,-30c4,-30 2,-35 -12,-33c-14,2 -17,-3 -15,-28c2,-18 -3,-36 -12,-43c-15,-12 -11,-45 4,-36c5,3 6,-4 3,-15c-3,-11 0,-20 6,-20c6,0 11,-10 11,-22c-1,-26 -22,-58 -39,-58c-6,0 -11,-4 -11,-10c0,-5 -8,-10 -17,-10c-17,1 -17,2 0,14c15,12 18,26 16,78c-2,34 -7,68 -11,75c-5,6 -8,33 -6,59c2,32 -1,48 -10,51c-9,4 -11,-2 -7,-19c3,-12 1,-36 -5,-53c-10,-29 -10,-29 -6,8c6,46 -1,67 -21,67c-8,0 -11,5 -8,10c6,10 23,8 63,-7c6,-3 12,2 12,12c0,9 16,33 35,52c19,19 35,43 35,52c0,9 5,22 12,29c9,9 9,12 -1,12c-9,0 -11,8 -7,24c3,14 3,32 0,40c-7,17 -34,22 -34,6c0,-5 5,-10 10,-10c6,0 10,-10 10,-22c0,-20 -2,-19 -20,10c-11,17 -25,32 -31,32c-8,0 -8,-4 1,-15c13,-15 8,-19 -22,-16c-18,2 -25,-13 -10,-22c4,-2 1,-2 -7,0c-21,5 -41,-29 -35,-59c3,-17 1,-28 -5,-28c-6,0 -11,8 -12,18c0,12 -3,10 -11,-8c-6,-14 -10,-29 -9,-35c1,-5 -4,-14 -12,-20c-25,-18 -78,-121 -71,-139c4,-10 0,-18 -10,-22c-24,-9 -50,-62 -38,-77c5,-7 13,-23 17,-37c7,-22 6,-23 -9,-8c-9,9 -16,23 -16,30c-1,19 -22,-21 -25,-46c-4,-35 -5,-36 -20,-36c-11,0 -13,-8 -10,-32c4,-24 3,-27 -3,-14c-6,14 -11,16 -16,7c-4,-6 -3,-17 2,-24c5,-7 13,-23 17,-37c7,-22 6,-23 -9,-8c-9,9 -16,23 -16,30c-1,7 -7,2 -14,-11c-8,-14 -12,-30 -9,-37c2,-7 -4,-18 -15,-25c-32,-24 -41,-49 -26,-78c21,-39 17,-61 -5,-28l-18,28l-27,-46c-17,-29 -25,-54 -22,-68c3,-12 3,-16 0,-9c-7,15 -24,6 -20,-11c1,-7 1,-9 -1,-4c-8,12 -23,8 -23,-8c0,-7 -7,-18 -16,-23c-9,-5 -14,-15 -10,-21c4,-6 11,-9 16,-6c5,3 11,1 15,-5c3,-5 -3,-10 -14,-10c-10,0 -21,-3 -24,-7c-2,-5 -2,-1 0,7c2,8 -6,4 -18,-10c-107,-129 -253,-280 -270,-280c-5,0 -9,-4 -9,-10c0,-5 7,-10 15,-10c8,0 15,8 15,17c0,14 3,14 12,5c10,-10 10,-15 -2,-23c-8,-5 -23,-7 -32,-5c-10,2 -34,-4 -55,-15c-20,-10 -52,-22 -70,-25c-24,-5 -33,-12 -33,-26c0,-11 -5,-18 -12,-15c-19,6 -19,154 0,194c16,34 9,59 -9,33c-9,-12 -10,-12 -7,-1c2,8 25,20 50,28c39,11 48,19 57,46c10,31 2,110 -13,124c-12,12 -6,-57 7,-77c8,-15 9,-23 1,-28c-6,-4 -13,-14 -16,-22c-3,-8 -4,24 -4,73c1,48 -1,92 -4,98c-4,5 -22,11 -41,12c-31,2 -34,5 -33,32c1,46 -5,58 -46,90c-21,17 -35,35 -32,40c3,6 1,7 -3,2c-14,-12 -45,25 -45,55c0,22 -8,33 -35,49c-19,12 -35,26 -35,33c0,19 -51,62 -89,75c-41,13 -41,13 -41,1c0,-5 18,-13 40,-16c22,-4 37,-10 34,-15c-6,-11 -41,-12 -46,-1c-1,4 -18,15 -35,25c-25,14 -37,15 -53,7c-29,-15 -42,-47 -35,-83c5,-29 5,-30 -8,-14c-13,16 -15,15 -27,-13c-7,-16 -16,-30 -21,-30c-5,0 -9,-6 -9,-13c0,-16 -73,-158 -102,-199c-11,-16 -15,-28 -10,-28c6,0 12,6 15,13c8,22 15,3 10,-26c-4,-23 -8,-25 -20,-15c-11,9 -16,9 -24,-3c-4,-8 -6,-21 -3,-30c3,-11 -1,-16 -11,-15c-11,0 -29,-21 -49,-57c-18,-33 -39,-63 -46,-67c-7,-4 -10,-15 -7,-24c4,-9 3,-15 -1,-14c-11,4 -52,-35 -52,-48c0,-7 -7,-15 -16,-18c-11,-4 -14,-14 -9,-34c6,-31 -17,-64 -30,-42c-3,5 1,10 9,10c9,0 16,7 16,15c0,25 -18,17 -35,-14c-8,-16 -18,-31 -22,-33c-5,-1 -21,-20 -36,-40c-15,-21 -34,-38 -41,-38c-17,0 -27,-24 -20,-47c4,-13 3,-14 -3,-5c-8,10 -16,8 -39,-10c-37,-28 -43,-38 -37,-55c3,-7 1,-13 -5,-13c-6,0 -12,4 -14,10c-3,9 -84,-12 -120,-30c-14,-8 -16,-5 -12,28c12,88 36,216 46,241c6,14 14,35 19,46c4,11 13,38 20,60c6,22 20,54 30,71c11,17 19,39 19,48c0,9 3,16 8,16c17,0 30,51 21,83c-12,43 -12,43 12,16l20,-24l-7,24c-5,19 -3,23 9,18c11,-4 14,-2 11,7c-3,8 4,21 16,29c14,9 18,20 14,33c-5,15 -4,16 5,4c8,-12 11,-11 17,5c5,11 14,26 21,34c8,7 11,21 8,31c-4,13 -1,17 12,16c13,-1 17,5 15,24c-1,17 1,21 7,11c11,-17 23,1 15,23c-4,11 -2,15 7,11c18,-6 40,12 66,55c12,20 34,47 48,60c35,33 53,65 32,57c-11,-4 -13,0 -10,14c6,22 19,25 26,7c3,-10 8,-10 21,1c9,8 14,21 11,28c-3,9 0,13 7,11c13,-5 48,21 48,34c0,5 -5,8 -11,8c-5,0 -8,-4 -5,-9c3,-5 0,-11 -8,-14c-17,-7 -15,15 8,87c19,58 19,66 6,66c-5,0 -10,-16 -10,-35c0,-19 -5,-35 -10,-35c-6,0 -8,15 -4,40l7,40l-43,0c-41,0 -42,1 -38,28c3,15 7,33 9,41c2,7 -2,16 -9,18c-8,3 -10,-1 -5,-13c6,-16 5,-17 -9,-4c-9,8 -14,19 -11,23c3,5 -5,20 -18,33c-19,21 -21,27 -9,34c25,16 -27,78 -80,93c-25,8 -49,10 -54,5c-13,-11 -36,-10 -36,1c0,5 8,11 18,13c12,3 8,7 -15,15c-26,9 -31,9 -27,-2c4,-10 -1,-12 -17,-8c-13,4 -18,8 -11,11c7,2 10,8 6,13c-8,13 -32,11 -41,-4z"/>
   <path fill="#eb6727" id="svg_17" d="m17640,4665c-10,-12 -9,-20 5,-42c17,-25 19,-26 25,-8c4,11 7,0 7,-29c0,-26 4,-51 10,-54c6,-4 13,-23 16,-42c3,-19 11,-55 17,-80c6,-25 18,-88 26,-140c8,-52 21,-129 29,-170c8,-41 17,-115 20,-165c2,-49 9,-166 15,-260c6,-93 8,-195 5,-225c-9,-94 -14,-198 -19,-400c-4,-169 -4,-180 4,-81c12,153 20,164 13,19c-5,-88 -3,-121 7,-133c17,-20 5,-32 -15,-15c-25,21 -17,-6 11,-37c23,-24 26,-25 24,-8c-4,36 1,52 9,31c6,-17 10,-14 31,20c13,21 30,43 37,47c20,12 15,26 -8,20c-11,-3 -26,-20 -33,-37c-12,-30 -13,-30 -20,-8c-6,17 -2,29 16,47c13,14 29,25 36,25c6,0 12,6 13,13c0,6 4,3 9,-8c7,-19 8,-19 15,-1c5,10 3,21 -2,25c-6,3 -14,17 -18,31l-8,25l23,-25c14,-17 20,-19 16,-8c-3,10 1,34 8,55l13,38l12,-53c6,-29 11,-62 11,-72c0,-11 5,-20 10,-20c6,0 10,-26 10,-59c0,-33 4,-63 10,-66c14,-9 62,26 56,41c-3,9 2,14 14,14c10,0 22,5 25,10c11,17 54,11 65,-9c5,-11 10,-39 10,-62c0,-23 3,-40 6,-36c3,3 6,30 6,59c-1,51 0,52 13,28c14,-25 14,-25 16,15c1,35 2,37 9,15l8,-25l7,23c8,25 25,30 25,7c0,-8 12,-22 28,-30c15,-9 18,-13 7,-10c-15,5 -12,-3 15,-32c19,-21 39,-39 43,-41c4,-2 1,-9 -7,-16c-14,-9 -14,-24 -5,-106c6,-52 9,-119 7,-148c-3,-28 -1,-52 4,-52c4,0 8,8 9,18c0,14 2,14 8,-3c7,-16 11,-7 20,40c7,33 16,74 21,90c5,17 11,72 15,124c4,52 11,105 16,118c5,14 10,69 11,124c1,55 5,95 9,88c4,-6 6,108 6,255c0,146 -3,262 -6,257c-3,-5 -7,36 -8,92c-1,55 -7,105 -12,110c-6,6 -11,25 -11,43c0,17 -11,75 -24,127c-14,53 -28,117 -31,142c-4,25 -11,48 -16,51c-5,3 -9,13 -9,22c0,9 -9,32 -21,51c-17,27 -23,31 -31,20c-7,-10 -8,-8 -3,8c4,15 -3,38 -22,70c-15,26 -33,57 -38,68c-8,14 -19,19 -40,18c-31,-3 -74,21 -62,34c4,4 13,1 19,-5c14,-14 28,-16 28,-4c0,10 -65,42 -86,42c-8,0 -13,4 -10,9c4,5 -15,19 -40,31c-38,19 -48,20 -55,9c-4,-7 -11,-10 -16,-6c-4,5 -1,12 7,17c8,5 12,11 10,13c-19,16 -175,87 -191,87c-11,0 -18,4 -15,8c5,9 -39,27 -94,37c-19,4 -42,9 -51,11c-9,2 -22,-2 -29,-11z"/>
  </g>
 </g>
</svg>