<svg xmlns="http://www.w3.org/2000/svg" xmlns:xlink="http://www.w3.org/1999/xlink" version="1.1" baseProfile="tiny" xml:space="preserve" width="125" height="125" style=""><rect id="backgroundrect" width="100%" height="100%" x="0" y="0" fill="none" stroke="none"/><g class="currentLayer" style=""><title>Layer 1</title><g id="Layer_1_1_" class="selected" fill="#ffffff" fill-opacity="1"><path fill="#ffffff" d="M106.49999389648437,18.299993896484352 c-24.4,-24.4 -63.8,-24.4 -88.2,0 c-24.4,24.4 -24.4,63.8 0,88.2 c24.4,24.4 63.8,24.4 88.2,0 S130.89999389648438,42.699993896484386 106.49999389648437,18.299993896484352 zM94.89999389648438,79.89999389648438 c0.8,0.8 0.8,1.7000000000000002 -0.1,2.7 l-12.2,12.2 c-0.4,0.4 -0.8,0.6000000000000001 -1.4,0.6000000000000001 c-0.6000000000000001,0 -1,-0.1 -1.3,-0.4 l-17.5,-17.5 l-17.4,17.4 c-0.4,0.4 -0.8,0.6000000000000001 -1.4,0.6000000000000001 c-0.6000000000000001,0 -1,-0.1 -1.3,-0.4 l-12.3,-12.3 c-0.30000000000000004,-0.30000000000000004 -0.4,-0.7000000000000001 -0.4,-1.3 c0,-0.6000000000000001 0.1,-1 0.6000000000000001,-1.4 l17.4,-17.4 l-17.5,-17.5 c-0.30000000000000004,-0.30000000000000004 -0.4,-0.7000000000000001 -0.4,-1.3 c0,-0.6000000000000001 0.1,-1 0.6000000000000001,-1.4 l12.2,-12.2 c1,-1 1.8,-1 2.7,-0.1 l17.5,17.5 l17.4,-17.4 c1,-1 1.8,-1 2.7,-0.1 l12.3,12.3 c0.8,0.8 0.8,1.7000000000000002 -0.1,2.7 l-17.4,17.4 L94.89999389648438,79.89999389648438 z" id="svg_1" fill-opacity="1"/></g><g id="Layer_2" class="" opacity="0" fill="#ffffff" fill-opacity="1"><path fill="#ffffff" d="M77.29999389648438,62.29999389648435 l17.5,17.5 c0.8,0.8 0.8,1.7000000000000002 -0.1,2.7 l-12.2,12.2 c-0.4,0.4 -0.8,0.6000000000000001 -1.4,0.6000000000000001 c-0.6000000000000001,0 -1,-0.1 -1.3,-0.4 l-17.5,-17.5 l-17.4,17.4 c-0.4,0.4 -0.8,0.6000000000000001 -1.4,0.6000000000000001 c-0.6000000000000001,0 -1,-0.1 -1.3,-0.4 l-12.3,-12.3 c-0.30000000000000004,-0.30000000000000004 -0.4,-0.7000000000000001 -0.4,-1.3 c0,-0.6000000000000001 0.1,-1 0.6000000000000001,-1.4 l17.4,-17.4 l-17.5,-17.5 c-0.30000000000000004,-0.30000000000000004 -0.4,-0.7000000000000001 -0.4,-1.3 c0,-0.6000000000000001 0.1,-1 0.6000000000000001,-1.4 l12.2,-12.2 c1,-1 1.8,-1 2.7,-0.1 l17.5,17.5 l17.4,-17.4 c1,-1 1.8,-1 2.7,-0.1 l12.3,12.3 c0.8,0.8 0.8,1.7000000000000002 -0.1,2.7 L77.29999389648438,62.29999389648435 z" id="svg_2" opacity="0" fill-opacity="1"/></g></g></svg>