<svg width="80" height="80" xmlns="http://www.w3.org/2000/svg">

 <g>
  <title>background</title>
  <rect fill="none" id="canvas_background" height="402" width="582" y="-1" x="-1"/>
 </g>
 <g>
  <title>Layer 1</title>
  <g id="svg_1" fill-rule="evenodd" fill="none">
   <path stroke="#ffffff" id="svg_2" d="m73,8.5c0.82843,0 1.5,0.67157 1.5,1.5c0,0.82843 -0.67157,1.5 -1.5,1.5l-52,0c-4.69442,0 -8.5,3.80558 -8.5,8.5l0,51c0,0.82843 -0.67157,1.5 -1.5,1.5c-0.82843,0 -1.5,-0.67157 -1.5,-1.5l0,-51c0,-6.35127 5.14873,-11.5 11.5,-11.5l52,0z" fill-rule="nonzero" fill="#ffffff"/>
   <path stroke="#ffffff" id="svg_3" d="m11,35.5c-0.82843,0 -1.5,-0.67157 -1.5,-1.5c0,-0.82843 0.67157,-1.5 1.5,-1.5l56,0c0.82843,0 1.5,0.67157 1.5,1.5c0,0.82843 -0.67157,1.5 -1.5,1.5l-56,0z" fill-rule="nonzero" fill="#ffffff"/>
   <path stroke="#ffffff" id="svg_4" d="m21,16.5c3.03757,0 5.5,2.46243 5.5,5.5c0,3.03757 -2.46243,5.5 -5.5,5.5c-3.03757,0 -5.5,-2.46243 -5.5,-5.5c0,-3.03757 2.46243,-5.5 5.5,-5.5z" fill-rule="nonzero" fill="#e16729"/>
   <rect stroke="#ffffff" id="svg_5" rx="10.5" fill-rule="nonzero" fill="#e16729" y="42" x="19" height="21" width="21"/>
   <path stroke="#ffffff" id="svg_6" d="m28,43.5c-4.14214,0 -7.5,3.35786 -7.5,7.5c0,4.14214 3.35786,7.5 7.5,7.5c4.14214,0 7.5,-3.35786 7.5,-7.5c0,-4.14214 -3.35786,-7.5 -7.5,-7.5zm0,-3c5.79899,0 10.5,4.70101 10.5,10.5c0,5.79899 -4.70101,10.5 -10.5,10.5c-5.79899,0 -10.5,-4.70101 -10.5,-10.5c0,-5.79899 4.70101,-10.5 10.5,-10.5zm7,-21c-1.38071,0 -2.5,1.11929 -2.5,2.5c0,1.38071 1.11929,2.5 2.5,2.5c1.38071,0 2.5,-1.11929 2.5,-2.5c0,-1.38071 -1.11929,-2.5 -2.5,-2.5zm0,-3c3.03757,0 5.5,2.46243 5.5,5.5c0,3.03757 -2.46243,5.5 -5.5,5.5c-3.03757,0 -5.5,-2.46243 -5.5,-5.5c0,-3.03757 2.46243,-5.5 5.5,-5.5zm14,3c-1.38071,0 -2.5,1.11929 -2.5,2.5c0,1.38071 1.11929,2.5 2.5,2.5c1.38071,0 2.5,-1.11929 2.5,-2.5c0,-1.38071 -1.11929,-2.5 -2.5,-2.5zm0,-3c3.03757,0 5.5,2.46243 5.5,5.5c0,3.03757 -2.46243,5.5 -5.5,5.5c-3.03757,0 -5.5,-2.46243 -5.5,-5.5c0,-3.03757 2.46243,-5.5 5.5,-5.5z" fill-rule="nonzero" fill="#ffffff"/>
   <path stroke="#ffffff" id="svg_7" d="m33.93934,59.06066c-0.58579,-0.58579 -0.58579,-1.53553 0,-2.12132c0.58579,-0.58579 1.53553,-0.58579 2.12132,0l9,9c0.58579,0.58579 0.58579,1.53553 0,2.12132c-0.58579,0.58579 -1.53553,0.58579 -2.12132,0l-9,-9z" fill-rule="nonzero" fill="#ffffff"/>
  </g>
 </g>
</svg>