<svg width="80" height="80" xmlns="http://www.w3.org/2000/svg">

 <g>
  <title>background</title>
  <rect fill="none" id="canvas_background" height="402" width="582" y="-1" x="-1"/>
 </g>
 <g>
  <title>Layer 1</title>
  <g id="svg_1" stroke-linejoin="round" stroke-linecap="round" fill-rule="evenodd" fill="none">
   <path id="svg_2" transform="rotate(45 35.11112976074221,46.287368774414055) " d="m8.66667,33.00001l9.33334,0.00002c2.57733,0 4.66666,2.08934 4.66666,4.66666l0.00001,5.09433c0,1.56829 1.16729,2.89138 2.72335,3.08685l3.49887,0.43951c4.13191,0.51904 8.31253,0.51904 12.44445,0l3.49886,-0.43951c1.55606,-0.19547 2.72336,-1.51856 2.72336,-3.08685l0,-5.09433c0,-2.57732 2.08934,-4.66666 4.66666,-4.66666l9.33336,-0.00003c2.57733,0 4.66667,2.08933 4.66667,4.66666c0,0.00001 0,0.00001 0,0.00001l-0.00002,9.0344c0,1.29765 -0.54032,2.53671 -1.49124,3.4197c-6.78748,6.30265 -16.66078,9.45397 -29.61988,9.45397c-12.95909,0 -22.83238,-3.15132 -29.61986,-9.45396l-0.00001,0.00001c-0.95092,-0.883 -1.49124,-2.12206 -1.49124,-3.41972l-0.00001,-9.0344c0,-2.57733 2.08934,-4.66666 4.66666,-4.66667c0.00001,0 0.00001,0 0.00001,0l0,0.00001z" stroke-width="3" stroke="#ffffff"/>
   <path id="svg_3" transform="rotate(90 56.626388549804695,24.68858909606934) " d="m69.25278,12c-12.76236,0 -25.25278,12.55195 -25.25278,25.37718" stroke-width="6" stroke="#e16729"/>
   <path id="svg_4" transform="rotate(90 50.34952545166016,31.39558029174805) " d="m59.69905,22c-9.45021,0 -18.69905,9.2944 -18.69905,18.79116" stroke-width="3" stroke="#ffffff"/>
  </g>
 </g>
</svg>