<svg width="462.999" height="462.999" xmlns="http://www.w3.org/2000/svg">

 <g>
  <title>background</title>
  <rect fill="none" id="canvas_background" height="402" width="582" y="-1" x="-1"/>
 </g>
 <g>
  <title>Layer 1</title>
  <g id="svg_1">
   <g id="svg_2">
    <g id="svg_3">
     <path fill="#ffffff" stroke="#ffffff" id="svg_4" d="m383.5,313c-7.995,0 -14.5,6.505 -14.5,14.5s6.505,14.5 14.5,14.5s14.5,-6.505 14.5,-14.5s-6.505,-14.5 -14.5,-14.5z"/>
     <path fill="#ffffff" stroke="#ffffff" id="svg_5" d="m95.5,313c-7.995,0 -14.5,6.505 -14.5,14.5s6.505,14.5 14.5,14.5s14.5,-6.505 14.5,-14.5s-6.505,-14.5 -14.5,-14.5z"/>
     <path fill="#ffffff" stroke="#ffffff" id="svg_6" d="m444.293,218.312l-55.167,-24.519l-40.382,-87.494c-5.13,-11.117 -16.357,-18.299 -28.6,-18.299l-296.644,0c-12.958,0 -23.5,10.542 -23.5,23.5l0,200c0,12.958 10.542,23.5 23.5,23.5l25.098,0c3.607,22.64 23.263,40 46.902,40s43.295,-17.36 46.902,-40l194.195,0c3.607,22.64 23.263,40 46.902,40c23.639,0 43.295,-17.36 46.902,-40l9.098,0c12.958,0 23.5,-10.542 23.5,-23.5l0,-64.403c0.001,-12.436 -7.342,-23.735 -18.706,-28.785zm-95.13,-75.312l22.615,49l-68.778,0l0,-49l46.163,0zm-253.663,217c-17.92,0 -32.5,-14.58 -32.5,-32.5c0,-17.921 14.58,-32.5 32.5,-32.5s32.5,14.579 32.5,32.5c0,17.92 -14.58,32.5 -32.5,32.5zm288,0c-17.92,0 -32.5,-14.579 -32.5,-32.5c0,-17.921 14.58,-32.5 32.5,-32.5c17.92,0 32.5,14.579 32.5,32.5c0,17.92 -14.58,32.5 -32.5,32.5zm64.5,-72l-8.5,0c-4.142,0 -7.5,3.357 -7.5,7.5s3.358,7.5 7.5,7.5l8.5,0l0,8.5c0,4.687 -3.813,8.5 -8.5,8.5l-9.098,0c-3.607,-22.64 -23.263,-40 -46.902,-40c-23.639,0 -43.295,17.36 -46.902,40l-194.196,0c-3.607,-22.64 -23.263,-40 -46.902,-40s-43.295,17.36 -46.902,40l-25.098,0c-4.687,0 -8.5,-3.813 -8.5,-8.5l0,-8.5l24.5,0c4.142,0 7.5,-3.357 7.5,-7.5s-3.358,-7.5 -7.5,-7.5l-24.5,0l0,-176.5c0,-4.687 3.813,-8.5 8.5,-8.5l296.644,0c6.413,0 12.294,3.763 14.981,9.585l7.115,15.415l-70.74,0c-8.547,0 -15.5,6.953 -15.5,15.5l0,32c0,17.369 14.131,31.5 31.5,31.5l94.409,0l46.575,20.7l-1.18,0.716c-6.972,4.233 -11.304,11.93 -11.304,20.087l0,14.997c0,4.143 3.358,7.5 7.5,7.5l24.5,0l0,17zm-160,-145l0,49l-0.5,0c-9.098,0 -16.5,-7.402 -16.5,-16.5l0,-32c0,-0.275 0.224,-0.5 0.5,-0.5l16.5,0zm160,113l-17,0l0,-7.496c0,-2.95 1.567,-5.734 4.088,-7.266l8.616,-5.231c2.707,2.982 4.296,6.911 4.296,11.089l0,8.904z"/>
     <path fill="#ffffff" stroke="#ffffff" id="svg_7" d="m327.5,288l-176,0c-4.142,0 -7.5,3.357 -7.5,7.5s3.358,7.5 7.5,7.5l176,0c4.142,0 7.5,-3.357 7.5,-7.5s-3.358,-7.5 -7.5,-7.5z"/>
     <path fill="#ffffff" stroke="#ffffff" id="svg_8" d="m119.5,120c-4.142,0 -7.5,3.357 -7.5,7.5l0,32.5l-9,0l0,-32.5c0,-4.143 -3.358,-7.5 -7.5,-7.5c-4.142,0 -7.5,3.357 -7.5,7.5l0,32.5l-9,0l0,-32.5c0,-4.143 -3.358,-7.5 -7.5,-7.5c-4.142,0 -7.5,3.357 -7.5,7.5l0,48c0,12.958 10.542,23.5 23.5,23.5l0.5,0l0,64.5c0,4.143 3.358,7.5 7.5,7.5c4.142,0 7.5,-3.357 7.5,-7.5l0,-64.5l0.5,0c12.958,0 23.5,-10.542 23.5,-23.5l0,-48c0,-4.143 -3.358,-7.5 -7.5,-7.5zm-7.5,55.5c0,4.687 -3.813,8.5 -8.5,8.5l-16,0c-4.687,0 -8.5,-3.813 -8.5,-8.5l0,-0.5l33,0l0,0.5z"/>
     <path fill="#ffffff" stroke="#ffffff" id="svg_9" d="m151.5,271c4.142,0 7.5,-3.357 7.5,-7.5l0,-32.5l15.056,0c4.565,0 8.876,-1.998 11.827,-5.481c2.951,-3.483 4.212,-8.063 3.462,-12.567l-13.244,-79.465c-1.302,-7.815 -7.998,-13.487 -15.961,-13.487c-8.9,0 -16.14,7.24 -16.14,16.14l0,127.36c0,4.143 3.358,7.5 7.5,7.5zm7.5,-134.86c0,-0.628 0.511,-1.14 1.181,-1.14c0.56,0 1.033,0.4 1.125,0.953l13.244,79.465c0.01,0.063 0.038,0.229 -0.111,0.405c-0.151,0.177 -0.319,0.177 -0.383,0.177l-15.056,0l0,-79.86z"/>
    </g>
    <ellipse stroke="#e16729" ry="39.383724" rx="41.500004" id="svg_25" cy="326.97526" cx="384.499516" stroke-width="20" fill="none"/>
    <ellipse stroke="#e16729" ry="39.383724" rx="41.500004" id="svg_26" cy="327.97526" cx="95.499516" stroke-width="20" fill="none"/>
    <ellipse stroke="#e16729" ry="16.021738" rx="17.547618" id="svg_27" cy="327.456012" cx="96.547129" stroke-width="0" fill="#e16729"/>
    <ellipse stroke="#e16729" ry="16.021738" rx="17.547618" id="svg_29" cy="326.456012" cx="384.547129" stroke-width="0" fill="#e16729"/>
   </g>
  </g>
  <g id="svg_10"/>
  <g id="svg_11"/>
  <g id="svg_12"/>
  <g id="svg_13"/>
  <g id="svg_14"/>
  <g id="svg_15"/>
  <g id="svg_16"/>
  <g id="svg_17"/>
  <g id="svg_18"/>
  <g id="svg_19"/>
  <g id="svg_20"/>
  <g id="svg_21"/>
  <g id="svg_22"/>
  <g id="svg_23"/>
  <g id="svg_24"/>
 </g>
</svg>