<svg width="80" height="80" xmlns="http://www.w3.org/2000/svg">
 <metadata>Svg Vector Icons : http://www.onlinewebfonts.com/icon</metadata>

 <g>
  <title>background</title>
  <rect x="-1" y="-1" width="82" height="82" id="canvas_background" fill="none"/>
 </g>
 <g>
  <title>Layer 1</title>
  <g stroke="null" id="svg_1">
   <g stroke="null" transform="translate(0,512) scale(0.10000000149011612,-0.10000000149011612) " id="svg_2">
    <path stroke="null" d="m125.554578,5111.650897c-40.052991,-5.08303 -83.805656,-24.490232 -111.529081,-49.607801c-6.313574,-5.702323 -7.391305,-7.391305 -6.627242,-10.632541c1.077731,-4.463737 28.809199,-32.195205 32.195205,-32.195205c1.230544,0 8.629891,4.930218 16.479634,10.785354c33.425749,25.262338 72.248196,36.658942 111.223456,32.348018c34.350668,-3.852486 63.618305,-16.326822 91.655399,-39.433698c5.702323,-4.624592 11.090979,-8.316223 12.16871,-8.316223s8.782704,6.466386 17.098927,14.324172c18.329471,17.565408 18.329471,17.718221 0.305625,33.120124c-29.573263,24.956713 -61.004405,40.052991 -98.435453,47.291483c-15.707528,3.080381 -48.827652,4.166154 -64.535181,2.316318z" id="svg_3" fill="#e16729"/>
    <path stroke="null" d="m454.753167,5111.498085c-9.088329,-2.155462 -17.871033,-7.238492 -24.651088,-14.171359c-4.463737,-4.930218 -24.031795,-40.977909 -77.178414,-143.571474l-71.017653,-137.105088l-16.793302,-3.386006c-34.197855,-6.932867 -64.704079,-19.25439 -89.194311,-36.200504c-16.487677,-11.396604 -35.894879,-30.811849 -41.130722,-41.283535c-15.707528,-31.125517 -30.184513,-97.832245 -39.425655,-181.018608c-2.00265,-17.871033 -3.233193,-24.184607 -5.702323,-27.731468c-8.629891,-12.635191 -25.262338,-30.659036 -51.763263,-56.379813c-25.109526,-24.498275 -29.267637,-29.114825 -30.192556,-34.350668c-1.383356,-6.780054 0.924918,-15.715571 5.235843,-21.257039c2.00265,-2.461087 33.586604,-18.482284 91.349773,-46.213752c48.522027,-23.412501 90.11923,-43.133372 92.580317,-43.591809c8.935517,-2.308275 14.485027,0.305625 30.192556,14.943465c19.407202,17.871033 35.122773,28.962012 73.631553,52.221701c22.954063,13.865734 34.045042,21.570707 41.902828,29.267637l10.785354,10.479728l59.001755,-28.809199l58.848943,-28.809199l12.482378,0c15.096278,0.152813 26.653737,4.777405 36.353317,14.943465c4.930218,5.235843 35.428399,62.540574 139.413362,262.958341c77.178414,148.960129 133.719082,259.572335 134.796813,264.036072c2.308275,9.707622 0.924918,20.645789 -3.699674,30.964662c-6.780054,14.63784 -11.557459,18.023846 -61.776511,42.514078c-25.567963,12.474335 -91.044148,44.677583 -145.574124,71.47609c-54.690831,26.80655 -102.135127,49.446945 -105.521133,50.219051c-7.55216,1.697024 -15.096278,1.697024 -22.954063,-0.14477zm29.886931,-50.685532l15.401903,-7.857786l-7.544118,-14.171359c-4.158112,-7.857786 -52.840994,-101.515834 -108.143075,-208.275553c-55.302081,-106.751676 -100.904583,-194.409819 -101.210208,-194.868256c-0.458438,-0.458438 -5.08303,-0.619293 -10.318873,-0.458438c-16.479634,0.305625 -27.112175,8.316223 -24.651088,18.635096c0.924918,4.158112 204.270254,397.594298 211.203121,408.998945c2.155462,3.546861 4.777405,5.702323 6.627242,5.702323c1.688982,0 10.16606,-3.546861 18.635096,-7.704973zm181.927441,-89.347124c65.009704,-31.88958 82.880737,-41.283535 83.491988,-43.905477c0.619293,-2.308275 -35.428399,-73.173115 -126.625359,-248.939794c-70.092734,-135.102438 -129.094489,-248.634169 -131.249952,-252.486655c-2.461087,-4.310924 -5.08303,-7.08568 -7.238492,-7.391305c-2.00265,-0.305625 -24.184607,9.707622 -53.452245,24.031795l-50.066239,24.651088l10.471686,15.868384c13.712922,21.104227 102.593565,182.699547 105.834801,192.559982c8.163411,24.956713 -8.316223,54.529976 -38.508779,69.167816c-7.08568,3.386006 -13.865734,6.160761 -15.249091,6.160761s-2.927568,0.619293 -3.386006,1.544212c-0.458438,0.772106 28.189906,57.457544 63.618305,125.861296c35.589254,68.548522 66.087435,127.397465 67.937272,131.097139c3.233193,6.313574 3.386006,6.466386 7.544118,4.47178c2.308275,-1.254672 41.436347,-20.356249 86.877994,-42.691019zm-419.317818,-214.741939c0,-0.305625 -9.707622,-18.023846 -21.72352,-39.433698c-24.33742,-44.05829 -26.80655,-50.371864 -25.728819,-70.86484c0.772106,-16.174009 5.702323,-27.4178 16.946115,-38.669635c14.018547,-14.018547 33.739417,-21.409852 57.457544,-21.409852c26.80655,0 42.208453,6.627242 63.931973,27.264988c18.795952,17.871033 29.114825,30.498181 43.133372,52.840994c14.324172,22.801251 22.495626,33.578562 27.884281,36.353317c5.694281,2.774755 18.482284,2.774755 25.567963,-0.152813c7.391305,-3.080381 15.868384,-9.55481 15.868384,-12.16871c0,-3.386006 -89.194311,-164.217263 -100.904583,-181.935483c-26.492882,-40.052991 -41.436347,-54.843644 -78.56177,-77.025601c-31.270287,-18.643139 -53.299432,-33.89223 -65.78181,-45.288834l-8.629891,-7.857786l-55.921375,27.112175c-30.811849,14.943465 -58.382462,28.189906 -61.157217,29.42045l-5.235843,2.155462l19.873683,20.332121c20.332121,21.104227 37.583861,42.361266 43.286184,54.071538c2.621943,4.930218 4.005299,12.635191 5.702323,30.345368c6.627242,65.162517 18.948764,130.936284 30.192556,160.364776c4.005299,10.16606 6.160761,13.093628 15.715571,22.33477c6.160761,5.855136 15.715571,13.399254 21.104227,16.64049c14.49307,8.790747 36.980653,18.345557 36.980653,15.570801z" id="svg_4" fill="#ffffff"/>
    <path stroke="null" d="m124.010367,5036.322321c-7.238492,-1.544212 -17.871033,-4.777405 -23.565314,-7.08568c-19.101577,-7.704973 -44.211103,-26.187257 -44.211103,-32.500831c0,-1.697024 6.627242,-10.013248 14.790653,-18.643139c16.793302,-18.023846 18.795952,-18.795952 28.189906,-10.471686c8.629891,7.857786 22.648438,15.868384 33.89223,19.25439c24.651088,7.704973 49.607801,0.772106 73.173115,-20.179308c5.702323,-4.930218 11.396604,-9.088329 12.635191,-9.088329c1.383356,0 9.707622,7.08568 18.643139,15.868384c19.72087,19.25439 19.72087,19.568058 3.080381,33.425749c-13.712922,11.396604 -33.120124,21.72352 -51.296782,26.959363c-18.803995,5.694281 -46.535463,6.619199 -65.331415,2.461087z" id="svg_5" fill="#e16729"/>
    <path stroke="null" d="m138.953832,4963.607644c-11.863085,-2.774755 -33.425749,-16.793302 -33.425749,-21.72352c0,-2.927568 18.795952,-22.801251 21.562664,-22.801251c1.544212,0 3.699674,1.077731 4.777405,2.621943c3.080381,3.699674 16.793302,9.707622 22.181958,9.707622c6.313574,0 17.404553,-5.388655 23.412501,-11.090979c2.621943,-2.461087 5.541468,-4.463737 6.313574,-4.158112c2.774755,1.077731 20.332121,21.409852 20.332121,23.565314c0,2.774755 -10.013248,11.863085 -18.643139,16.793302c-12.92473,7.55216 -32.026307,10.471686 -46.511335,7.08568z" id="svg_6" fill="#e16729"/>
   </g>
  </g>
 </g>
</svg>