<svg width="200" height="200" xmlns="http://www.w3.org/2000/svg">
 <metadata>Svg Vector Icons : http://www.onlinewebfonts.com/icon</metadata>

 <g>
  <title>background</title>
  <rect fill="none" id="canvas_background" height="202" width="202" y="-1" x="-1"/>
 </g>
 <g>
  <title>Layer 1</title>
  <g id="svg_1">
   <g id="svg_2" transform="translate(0, 511) scale(0.1, -0.1)">
    <path fill="#e16729" id="svg_3" d="m462.28421,5093.073242c-176.713898,-37.184082 -323.048233,-157.487305 -398.327255,-328.902832c-43.944948,-99.646484 -57.510248,-173.994629 -53.306618,-295.327637c5.158014,-158.519531 51.438347,-274.695313 160.36657,-401.187988c172.043335,-199.809082 821.40918,-938.668213 827.481079,-941.27002c14.499268,-6.189697 -28.978455,-54.20752 457.685364,502.897705c182.806152,208.600098 354.382446,405.852051 382.446899,437.340576c77.614502,89.845703 118.756714,167.804688 146.80127,277.790527c9.341431,37.185059 12.164185,62.999023 14.032104,128.040039c3.736938,121.849121 -9.341064,192.071289 -55.174805,295.328125c-75.745972,171.415039 -230.954468,296.898438 -401.596436,325.291504c-192.614502,32.521484 -381.492676,-45.438965 -505.366943,-209.115234c-15.900757,-21.172363 -30.379822,-38.733887 -32.248047,-38.733887c-1.868286,0 -13.565308,13.950684 -26.643127,30.973633c-82.752136,109.469238 -190.746338,183.302246 -312.305725,212.726563c-46.300415,10.85498 -159.432312,13.43457 -203.84433,4.148926zm169.240814,-77.442383c72.923462,-14.981445 134.170227,-42.344238 193.548706,-86.750977c40.675354,-30.456055 99.119812,-98.098633 128.565247,-149.211426c42.076782,-73.315918 61.246887,-73.315918 102.856506,0c115.000122,202.925781 345.487671,292.75 552.134644,215.306641c259.933105,-97.583496 391.300781,-415.115234 287.997681,-694.453125c-20.571289,-56.271484 -48.148438,-104.804199 -82.284912,-146.632813c-34.624146,-41.827637 -743.368408,-853.487549 -783.109619,-896.346924l-26.176086,-27.877686l-30.846802,33.058838c-45.346191,49.026611 -743.347916,848.306885 -778.398285,891.165771c-84.620438,103.773438 -129.966568,256.103027 -115.93428,393.966309c23.840805,237.509766 176.713974,420.8125 390.366898,467.282227c43.924591,9.777832 114.53299,9.777832 161.280304,0.493164z"/>
   </g>
  </g>
 </g>
</svg>