<svg width="80" height="80" xmlns="http://www.w3.org/2000/svg">
 <g>
  <title>background</title>
  <rect x="-1" y="-1" width="82" height="82" id="canvas_background" fill="none"/>
 </g>

 <g>
  <title>Layer 1</title>
  <g fill="currentColor" fill-rule="nonzero" id="svg_1">
   <rect stroke="#ffffff" width="50" height="13" x="15" y="67" fill="#e16729" rx="2" id="svg_2"/>
   <path stroke="#ffffff" stroke-linecap="round" stroke-linejoin="round" stroke-width="3" d="m20,62l40,0l0,13l-40,0l0,-13z" id="svg_3" fill="none"/>
   <path stroke="#ffffff" stroke-width="3" d="m47,61.996l14.081,-13.814a4.5,4.5 0 1 1 6.364,6.364l-7.45,7.45m-41.459,-5.46a5,5 0 0 0 0,-7.072c-0.64,-0.639 -0.722,-4.243 -1.536,-4.464c-0.773,-0.21 -3.22,-0.168 -4,0c-0.91,0.195 -0.829,3.758 -1.536,4.464a5,5 0 1 0 7.072,7.072zm26.464,-42.536a3.58,3.58 0 0 1 3.558,3.976l-1.337,12.036a2.235,2.235 0 0 1 -4.442,0l-1.337,-12.036a3.58,3.58 0 0 1 3.558,-3.976z" id="svg_4" fill="none"/>
   <rect width="10" height="6" x="55" y="18" stroke="#ffffff" stroke-width="3" rx="3" id="svg_5" fill="none"/>
   <path stroke="#ffffff" stroke-width="3" d="m29.28,5l2,0a3,3 0 0 1 0,6l-0.5,0c-2.278,0 -4.501,0.7 -6.368,2.007l-2.132,1.493a1.449,1.449 0 0 1 -2.107,-1.874l1.736,-3.224a8.371,8.371 0 0 1 7.371,-4.402z" id="svg_6" fill="none"/>
   <path stroke="#ffffff" stroke-linecap="round" stroke-width="3" d="m30.703,61.576a6.973,6.973 0 0 1 -1.703,-4.576l0,-2l2,0c3.39,0 6.218,2.41 6.862,5.61" id="svg_7" fill="none"/>
   <path stroke="#ffffff" stroke-width="3" d="m35,40l0,2a7,7 0 0 1 -7,7l-2,0l0,-2a7,7 0 0 1 7,-7l2,0z" id="svg_8" fill="none"/>
   <path stroke="#ffffff" stroke-linecap="round" stroke-width="3" d="m45,14l0,-4m-10,-3l3,0" id="svg_9" fill="none"/>
   <g stroke="#484848" stroke-width="3" id="svg_10">
    <path stroke="#ffffff" d="m60.605,39.108l-1.285,-1.532a3,3 0 0 1 4.596,-3.857l0.321,0.383a11.103,11.103 0 0 0 5.63,3.588l2.515,0.674a1.449,1.449 0 0 1 -0.081,2.818l-3.586,0.742a8.371,8.371 0 0 1 -8.11,-2.816z" id="svg_11" fill="none"/>
    <path stroke="#ffffff" stroke-linecap="round" d="m58.46,33.44l-1.928,-2.298" id="svg_12" fill="none"/>
   </g>
   <path stroke="#ffffff" stroke-width="3" d="m44.5,42l0,-2a2.5,2.5 0 1 1 5,0l0,2l2,0a2.5,2.5 0 1 1 0,5l-2,0l0,5.5l-5,0l0,-5.5l-2,0a2.5,2.5 0 1 1 0,-5l2,0zm0.5,5l4,0m-35.823,-21.786a3.621,3.621 0 1 1 4.037,-4.037a5.63,5.63 0 0 1 6.813,3.904a3.501,3.501 0 0 1 4.295,5.465l-5.657,5.657a3.5,3.5 0 0 1 -5.541,-4.164a5.623,5.623 0 0 1 -3.947,-6.825z" id="svg_13" fill="none"/>
   <path stroke="#ffffff" stroke-linecap="round" stroke-width="3" d="m26,33l2,2" id="svg_14" fill="none"/>
  </g>
 </g>
</svg>