<svg width="80" height="80" xmlns="http://www.w3.org/2000/svg">
 <g>
  <title>background</title>
  <rect x="-1" y="-1" width="82" height="82" id="canvas_background" fill="none"/>
 </g>

 <g>
  <title>Layer 1</title>
  <g fill="currentColor" fill-rule="nonzero" id="svg_1">
   <path stroke="#ffffff" fill="#e16729" d="m42.22426,45.73974c11.374,-2.842 16.808,-3.38 16.808,-9.73c0,-6.352 -10.297,-11.5 -23,-11.5s-23,5.148 -23,11.5c0,3.152 2.082,8.537 6.192,10.615c4.17,2.107 10.616,2.211 23,-0.885z" id="svg_2"/>
   <path stroke="#ffffff" stroke-linecap="round" stroke-linejoin="round" stroke-width="3" d="m48.94042,20.03974c-23.5,-6.5 -43.263,5.428 -43.263,15.928s6,17 17.763,18.572c11.764,1.572 22.737,-7.072 50.737,-5.572c0,-4 -3,-10 -14.5,-10l-18,0a5,5 0 0 1 0,-10l25,0c-1.5,-1.5 -5.64,-5.582 -17.737,-8.928z" id="svg_3" fill="none"/>
   <path stroke="#ffffff" stroke-linecap="round" stroke-linejoin="round" stroke-width="3" d="m5.67742,35.96774l0,10c0,12.593 4.555,16.093 18.055,17.593s22.5,-6.5 50.5,-5l0,-9.093m-7.555,-20.5l0,11m-44.5,-14l-10.5,13.5m20,-0.5l-8,10.5m13.5,-5.5l-3.5,4.5m0.5,-25l-18,23" id="svg_4" fill="none"/>
  </g>
 </g>
</svg>