<svg width="90" height="90" xmlns="http://www.w3.org/2000/svg">

 <g>
  <title>background</title>
  <rect fill="none" id="canvas_background" height="92" width="92" y="-1" x="-1"/>
 </g>
 <g>
  <title>Layer 1</title>
  <path fill="#e16729" stroke="null" id="svg_1" d="m44.910419,8.135457c11.991082,0 13.413245,0.045134 18.151294,0.263283c12.170723,0.556656 17.855634,6.360175 18.409529,18.501302c0.217067,4.757907 0.258235,6.18716 0.258235,18.238018c0,12.054619 -0.04491,13.480111 -0.258235,18.238018c-0.557638,12.129843 -6.227578,17.944645 -18.409529,18.501302c-4.738049,0.218149 -6.152727,0.263283 -18.151294,0.263283c-11.991082,0 -13.413245,-0.045134 -18.147552,-0.263283c-12.200664,-0.560418 -17.855634,-6.390265 -18.409529,-18.505063c-0.217067,-4.757907 -0.261977,-6.183399 -0.261977,-18.238018c0,-12.050858 0.048653,-13.47635 0.261977,-18.238018c0.557638,-12.137365 6.227578,-17.944645 18.409529,-18.501302c4.738049,-0.214388 6.15647,-0.259522 18.147552,-0.259522zm0,-8.135457c-12.196921,0 -13.723875,0.052657 -18.51432,0.270806c-16.309967,0.752238 -25.374386,9.8468 -26.122893,26.253117c-0.22081,4.818086 -0.273205,6.352653 -0.273205,18.610376c0,12.257723 0.052395,13.796051 0.269463,18.610376c0.748507,16.391273 9.797956,25.500879 26.122893,26.253117c4.794187,0.218149 6.321141,0.270806 18.518063,0.270806c12.196921,0 13.727618,-0.052657 18.518063,-0.270806c16.294997,-0.752238 25.381872,-9.8468 26.119151,-26.253117c0.22081,-4.814325 0.273205,-6.352653 0.273205,-18.610376c0,-12.257723 -0.052395,-13.79229 -0.269463,-18.606615c-0.733537,-16.376228 -9.794214,-25.500879 -26.119151,-26.253117c-4.794187,-0.22191 -6.324884,-0.274567 -18.521805,-0.274567zm0,21.957837c-12.735846,0 -23.0615,10.377128 -23.0615,23.176463s10.325654,23.180224 23.0615,23.180224s23.0615,-10.377128 23.0615,-23.180224c0,-12.799335 -10.325654,-23.176463 -23.0615,-23.176463zm0,38.221229c-8.26726,0 -14.97014,-6.732533 -14.97014,-15.044766c0,-8.308472 6.70288,-15.044766 14.97014,-15.044766s14.97014,6.736294 14.97014,15.044766c0,8.312233 -6.70288,15.044766 -14.97014,15.044766zm23.974678,-44.551315c-2.979058,0 -5.392993,2.425969 -5.392993,5.416116s2.413935,5.416116 5.392993,5.416116c2.975315,0 5.385508,-2.425969 5.385508,-5.416116s-2.410192,-5.416116 -5.385508,-5.416116z"/>
 </g>
</svg>