<svg width="512" height="512" xmlns="http://www.w3.org/2000/svg">

 <g>
  <title>background</title>
  <rect fill="none" id="canvas_background" height="402" width="582" y="-1" x="-1"/>
 </g>
 <g>
  <title>Layer 1</title>
  <g id="svg_1">
   <path fill="#e16729" id="svg_2" d="m240,0c-17.672,0 -32,14.328 -32,32s14.328,32 32,32c114.688,0 208,93.313 208,208c0,17.672 14.328,32 32,32c17.672,0 32,-14.328 32,-32c0,-149.984 -122.016,-272 -272,-272z"/>
   <path fill="#e16729" id="svg_3" d="m352,272c0,17.672 14.328,32 32,32c17.672,0 32,-14.328 32,-32c0,-97.047 -78.953,-176 -176,-176c-17.672,0 -32,14.328 -32,32s14.328,32 32,32c61.75,0 112,50.25 112,112z"/>
   <path fill="#ffffff" id="svg_4" d="m416,368l-32,0c-22.055,0 -43.391,-2.984 -63.672,-8.531c-9.438,-2.578 -19.523,-1.109 -27.344,4.766l-46.586,34.969c-57.438,-29.281 -104.477,-76.164 -133.602,-133.766l34.953,-46.555c5.883,-7.844 7.344,-17.938 4.75,-27.391c-5.531,-20.18 -8.5,-41.477 -8.5,-63.492l0,-32c0,-17.602 -14.336,-32 -38.547,-32l-41.452,0c-35.484,0 -64.047,29.047 -64,64.523c0.281,211.586 171.891,383.196 383.477,383.477c35.476,0.047 64.523,-28.523 64.523,-64l0,-48c0,-17.602 -14.398,-32 -32,-32z"/>
  </g>
  <g id="svg_5"/>
  <g id="svg_6"/>
  <g id="svg_7"/>
  <g id="svg_8"/>
  <g id="svg_9"/>
  <g id="svg_10"/>
  <g id="svg_11"/>
  <g id="svg_12"/>
  <g id="svg_13"/>
  <g id="svg_14"/>
  <g id="svg_15"/>
  <g id="svg_16"/>
  <g id="svg_17"/>
  <g id="svg_18"/>
  <g id="svg_19"/>
 </g>
</svg>