<svg width="100" height="100" xmlns="http://www.w3.org/2000/svg">

 <metadata id="metadata7">image/svg+xml</metadata>
 <g>
  <title>background</title>
  <rect fill="none" id="canvas_background" height="102" width="102" y="-1" x="-1"/>
 </g>
 <g>
  <title>Layer 1</title>
  <g stroke="null" id="layer1">
   <path stroke="#ffffff" fill="#ffffff" fill-rule="evenodd" stroke-width="1.182182px" id="path2996" d="m49.403674,0.270731c-26.91225,0.282066 -48.836434,21.932972 -49.2377,48.934833l0,1.561291c0.44668,26.821925 22.160686,48.446611 49.047476,48.844263c27.496025,0.406663 50.118399,-21.50006 50.526034,-48.930522c0.407635,-27.430462 -21.55145,-49.998889 -49.047476,-50.405552c-0.429625,-0.006349 -0.861155,-0.008792 -1.288334,-0.004306l0,-0.000007zm-4.176277,20.020762l9.454987,0c0.290208,0 0.523115,0.232353 0.523115,0.521868l0,23.889481l23.946582,0c0.290208,0 0.523115,0.232352 0.523115,0.521868l0,9.432442c0,0.289516 -0.232907,0.526181 -0.523115,0.526181l-23.946582,0l0,23.889481c0,0.289516 -0.232907,0.521868 -0.523115,0.521868l-9.454987,0c-0.290208,0 -0.523115,-0.232352 -0.523115,-0.521868l0,-23.889481l-23.946582,0c-0.290208,0 -0.523115,-0.236665 -0.523115,-0.526181l0,-9.432442c0,-0.289516 0.232907,-0.521868 0.523115,-0.521868l23.946582,0l0,-23.889481c0,-0.289515 0.232907,-0.521868 0.523115,-0.521868z"/>
  </g>
 </g>
</svg>