<svg width="280" height="280" xmlns="http://www.w3.org/2000/svg">

 <g>
  <title>background</title>
  <rect fill="none" id="canvas_background" height="402" width="582" y="-1" x="-1"/>
 </g>
 <g>
  <title>Layer 1</title>
  <g id="XMLID_30_">
   <path fill="#ffffff" d="m235.098,19.89c-25.653,-12.827 -59.425,-19.89 -95.098,-19.89s-69.445,7.063 -95.098,19.89c-28.955,14.478 -44.902,34.938 -44.902,57.61l0,125c0,22.672 15.947,43.132 44.902,57.61c25.653,12.826 59.425,19.89 95.098,19.89s69.445,-7.064 95.098,-19.89c28.955,-14.478 44.902,-34.938 44.902,-57.61l0,-125c0,-22.672 -15.947,-43.132 -44.902,-57.61zm-95.098,10.11c62.958,0 110,25.078 110,47.5s-47.042,47.5 -110,47.5s-110,-25.078 -110,-47.5s47.042,-47.5 110,-47.5zm0,220c-62.958,0 -110,-25.078 -110,-47.5l0,-76.145c4.497,3.112 9.471,6.039 14.902,8.755c25.653,12.826 59.425,19.89 95.098,19.89s69.445,-7.064 95.098,-19.89c5.432,-2.716 10.405,-5.643 14.902,-8.755l0,76.145c0,22.422 -47.042,47.5 -110,47.5z" id="XMLID_31_"/>
   <ellipse stroke="null" fill="#eb6727" ry="30.5" rx="74.999993" cy="79.500999" cx="138.999995" id="XMLID_87_"/>
  </g>
  <g id="svg_1"/>
  <g id="svg_2"/>
  <g id="svg_3"/>
  <g id="svg_4"/>
  <g id="svg_5"/>
  <g id="svg_6"/>
  <g id="svg_7"/>
  <g id="svg_8"/>
  <g id="svg_9"/>
  <g id="svg_10"/>
  <g id="svg_11"/>
  <g id="svg_12"/>
  <g id="svg_13"/>
  <g id="svg_14"/>
  <g id="svg_15"/>
 </g>
</svg>