<svg width="100" height="100" xmlns="http://www.w3.org/2000/svg">
 <g>
  <title>background</title>
  <rect x="-1" y="-1" width="102" height="102" id="canvas_background" fill="none"/>
 </g>

 <g>
  <title>Layer 1</title>
  <g stroke="null" id="XMLID_30_">
   <path stroke="null" id="XMLID_31_" d="m83.750504,16.087661c-9.093072,-3.657223 -21.064039,-5.67102 -33.708842,-5.67102s-24.615771,2.013797 -33.708842,5.67102c-10.263513,4.127955 -15.916154,9.961493 -15.916154,16.425714l0,35.639893c0,6.464221 5.652642,12.297759 15.916154,16.425714c9.093072,3.656938 21.064039,5.67102 33.708842,5.67102s24.615771,-2.014082 33.708842,-5.67102c10.263513,-4.127955 15.916154,-9.961493 15.916154,-16.425714l0,-35.639893c0,-6.464221 -5.652642,-12.297759 -15.916154,-16.425714zm-33.708842,2.882555c22.316361,0 38.991069,7.150218 38.991069,13.543159s-16.674708,13.543159 -38.991069,13.543159s-38.991069,-7.150218 -38.991069,-13.543159s16.674708,-13.543159 38.991069,-13.543159zm0,62.726212c-22.316361,0 -38.991069,-7.150218 -38.991069,-13.543159l0,-21.710397c1.594026,0.887291 3.357131,1.721835 5.282226,2.496218c9.093072,3.656938 21.064039,5.67102 33.708842,5.67102s24.615771,-2.014082 33.708842,-5.67102c1.92545,-0.774384 3.688201,-1.608927 5.282226,-2.496218l0,21.710397c0,6.392941 -16.674708,13.543159 -38.991069,13.543159z" fill="#ffffff"/>
   <ellipse stroke="null" id="XMLID_87_" cx="49.687196" cy="33.083898" rx="26.584817" ry="8.696134" fill="#eb6727"/>
  </g>
  <g id="svg_1"/>
  <g id="svg_2"/>
  <g id="svg_3"/>
  <g id="svg_4"/>
  <g id="svg_5"/>
  <g id="svg_6"/>
  <g id="svg_7"/>
  <g id="svg_8"/>
  <g id="svg_9"/>
  <g id="svg_10"/>
  <g id="svg_11"/>
  <g id="svg_12"/>
  <g id="svg_13"/>
  <g id="svg_14"/>
  <g id="svg_15"/>
 </g>
</svg>