<svg width="512" height="512" xmlns="http://www.w3.org/2000/svg">
 <g>
  <title>background</title>
  <rect x="-1" y="-1" width="514" height="514" id="canvas_background" fill="none"/>
 </g>

 <g>
  <title>Layer 1</title>
  <g id="svg_1">
   <g id="svg_2">
    <path fill="#ffffff" d="m454.883,221.016c-0.061,-0.074 -0.128,-0.14 -0.192,-0.213c-4.276,-16.007 -16.713,-28.74 -32.625,-33.398c-3.462,-2.953 -7.031,-5.84 -10.677,-8.628c-5.407,-20.837 -24.151,-35.552 -46.074,-35.552c-4.38,0 -8.7,0.601 -12.894,1.785c-1.066,-0.431 -2.151,-0.864 -3.266,-1.297c-8.876,-12.444 -23.411,-20.048 -38.794,-20.048c-7.205,0 -14.304,1.652 -20.752,4.778c-2.395,-0.314 -4.8,-0.596 -7.222,-0.843c-7.563,-5.058 -16.645,-8.015 -26.407,-8.015c-9.764,0 -18.849,2.958 -26.413,8.019c-2.406,0.247 -4.798,0.526 -7.18,0.839c-6.448,-3.126 -13.548,-4.777 -20.752,-4.777c-15.382,0 -29.915,7.602 -38.792,20.047c-1.118,0.436 -2.208,0.87 -3.282,1.305c-4.2,-1.188 -8.528,-1.791 -12.914,-1.791c-21.94,0 -40.687,14.729 -46.083,35.584c-3.482,2.662 -6.876,5.4 -10.155,8.182c-17.216,4.435 -30.65,18.28 -34.56,35.621c-36.023,45.13 -55.849,101.719 -55.849,159.602c0,5.632 4.567,10.199 10.199,10.199l491.602,0c5.632,0 10.199,-4.567 10.199,-10.199c0,-58.564 -20.284,-115.812 -57.117,-161.2zm-2.517,31.012c4.828,7.289 9.235,14.835 13.21,22.592c-5.228,-5.41 -10.869,-10.642 -16.923,-15.669c1.426,-2.207 2.671,-4.52 3.713,-6.923zm-41.894,-46.086c1.482,0.099 2.954,0.313 4.417,0.655c0.001,0 0.002,0 0.003,0c10.277,2.394 18.303,10.61 20.446,20.93c0,0.002 0.001,0.004 0.001,0.006c0.379,1.825 0.571,3.699 0.571,5.572c0,4.829 -1.237,9.434 -3.562,13.487c-10.987,-7.617 -22.746,-14.449 -35.158,-20.446c6.024,-5.458 10.653,-12.412 13.282,-20.204zm-59.416,-38.287c0.001,-0.001 0.003,-0.001 0.005,-0.002c1.405,-0.867 2.948,-1.623 4.58,-2.245c0.001,0 0.003,-0.001 0.004,-0.001c3.109,-1.184 6.362,-1.785 9.672,-1.785c13.353,0.002 24.641,9.543 26.844,22.689c0,0.001 0,0.003 0,0.004c0.255,1.522 0.385,3.049 0.385,4.539c0,1.282 -0.096,2.598 -0.285,3.91c0,0.003 0,0.005 -0.001,0.008c-1.422,9.895 -8.366,18.258 -17.655,21.648c-10.243,-3.906 -20.831,-7.291 -31.7,-10.139c-1.383,-2.001 -2.499,-4.159 -3.3,-6.46c0,-0.001 0,-0.002 -0.001,-0.004c-1.007,-2.889 -1.518,-5.905 -1.518,-8.964c0,-9.519 4.849,-18.19 12.97,-23.198zm-52.138,-21.051c3.573,-1.658 7.479,-2.541 11.447,-2.541c9.118,0.001 17.412,4.431 22.498,11.92c-9.629,8.914 -15.175,21.405 -15.175,34.872c0,3.401 0.364,6.771 1.08,10.074c-8.488,-1.55 -17.109,-2.786 -25.838,-3.699c6.672,-8.198 10.683,-18.645 10.683,-30.015c0,-7.379 -1.687,-14.37 -4.695,-20.611zm-42.935,-6.619c15.014,0 27.231,12.216 27.231,27.23c0,15.015 -12.217,27.231 -27.231,27.231c-15.014,0 -27.23,-12.217 -27.23,-27.231c0,-15.015 12.215,-27.23 27.23,-27.23zm-54.347,4.079c3.956,0 7.852,0.877 11.418,2.527c-3.012,6.244 -4.701,13.24 -4.701,20.623c0,11.371 4.01,21.82 10.685,30.018c-8.73,0.914 -17.354,2.151 -25.843,3.702c0.716,-3.305 1.081,-6.677 1.081,-10.081c0,-13.454 -5.538,-25.938 -15.153,-34.851c5.085,-7.5 13.387,-11.938 22.513,-11.938zm-81.837,42.278c0,-0.002 0.001,-0.004 0.001,-0.005c2.193,-13.161 13.484,-22.713 26.848,-22.713c3.314,0 6.57,0.603 9.682,1.789c1.641,0.626 3.188,1.385 4.596,2.256c0.001,0 0.002,0.001 0.002,0.001c8.108,5.008 12.95,13.675 12.95,23.185c0,3.055 -0.509,6.064 -1.513,8.949c0,0.001 -0.001,0.002 -0.001,0.004c-0.804,2.311 -1.924,4.478 -3.313,6.487c-10.853,2.845 -21.423,6.226 -31.651,10.125c-9.266,-3.368 -16.221,-11.68 -17.682,-21.52c0,-0.002 -0.001,-0.003 -0.001,-0.005c-0.199,-1.342 -0.299,-2.701 -0.299,-4.039c0,-1.485 0.129,-3.002 0.381,-4.514zm-44.371,42.364c0,-0.003 0.001,-0.005 0.002,-0.008c1.815,-11.188 10.511,-20.156 21.638,-22.316c1.454,-0.281 2.917,-0.439 4.378,-0.484c2.607,7.9 7.198,14.864 13.24,20.308c-12.632,6.111 -24.586,13.09 -35.738,20.879c-2.507,-4.189 -3.88,-9.015 -3.88,-13.98c0,-1.448 0.122,-2.928 0.36,-4.399zm-16.406,24.238c1.044,2.276 2.267,4.47 3.66,6.561c-5.802,4.858 -11.221,9.904 -16.258,15.115c3.808,-7.432 8.005,-14.672 12.598,-21.676zm-38.186,119.071c3.382,-39.376 26.219,-75.099 61.785,-102.423c0.54,-0.333 1.055,-0.715 1.535,-1.158c16.529,-12.46 35.73,-23.128 56.953,-31.541c0.367,-0.122 0.725,-0.267 1.075,-0.43c11.085,-4.34 22.715,-8.066 34.796,-11.114c0.279,-0.057 0.556,-0.134 0.83,-0.214c24.477,-6.103 50.794,-9.425 78.189,-9.425c27.354,0 53.636,3.312 78.081,9.398c0.298,0.09 0.597,0.17 0.9,0.233c12.099,3.052 23.747,6.781 34.847,11.128c0.35,0.163 0.709,0.308 1.077,0.43c21.02,8.334 40.054,18.879 56.474,31.187c0.439,0.394 0.906,0.737 1.392,1.042c35.913,27.384 58.992,63.288 62.394,102.888l-470.328,0l0,-0.001z" id="svg_3"/>
   </g>
  </g>
  <g id="svg_4">
   <g id="svg_5">
    <path d="m463.044,340.909l-6.797,0c-5.633,0 -10.199,4.567 -10.199,10.199c0,5.632 4.567,10.199 10.199,10.199l6.797,0c5.632,0 10.199,-4.567 10.199,-10.199c0,-5.632 -4.567,-10.199 -10.199,-10.199z" id="svg_6" fill="#eb6727"/>
   </g>
  </g>
  <g id="svg_7">
   <g id="svg_8">
    <path d="m414.336,340.909l-123.68,0c-5.632,0 -10.199,4.567 -10.199,10.199c0,5.632 4.567,10.199 10.199,10.199l123.68,0c5.632,0 10.199,-4.567 10.199,-10.199c0.001,-5.632 -4.565,-10.199 -10.199,-10.199z" id="svg_9" fill="#eb6727"/>
   </g>
  </g>
  <g id="svg_10">
   <g id="svg_11">
    <path d="m232.213,256.479l-18.124,0c-5.632,0 -10.199,4.567 -10.199,10.199s4.567,10.199 10.199,10.199l18.124,0c5.632,0 10.199,-4.567 10.199,-10.199s-4.567,-10.199 -10.199,-10.199z" id="svg_12" fill="#eb6727"/>
   </g>
  </g>
  <g id="svg_13">
   <g id="svg_14">
    <path d="m123.472,325.575l-21.522,0c-5.632,0 -10.199,4.567 -10.199,10.199s4.567,10.199 10.199,10.199l21.521,0c5.632,0 10.199,-4.567 10.199,-10.199s-4.566,-10.199 -10.198,-10.199z" id="svg_15" fill="#eb6727"/>
   </g>
  </g>
  <g id="svg_16"/>
  <g id="svg_17"/>
  <g id="svg_18"/>
  <g id="svg_19"/>
  <g id="svg_20"/>
  <g id="svg_21"/>
  <g id="svg_22"/>
  <g id="svg_23"/>
  <g id="svg_24"/>
  <g id="svg_25"/>
  <g id="svg_26"/>
  <g id="svg_27"/>
  <g id="svg_28"/>
  <g id="svg_29"/>
  <g id="svg_30"/>
  <ellipse fill="#eb6727" stroke="#000" stroke-width="0" cx="257" cy="167" id="svg_31" rx="30.5" ry="29.5"/>
  <ellipse fill="#eb6727" stroke="#000" stroke-width="0" cx="367" cy="189" id="svg_33" rx="30.5" ry="29.5"/>
  <ellipse fill="#eb6727" stroke="#000" stroke-width="0" cx="146" cy="189" id="svg_34" rx="30.5" ry="29.5"/>
 </g>
</svg>